<svg width="43" height="38" viewBox="0 0 43 38" fill="none" xmlns="http://www.w3.org/2000/svg">
<path d="M1.15687 35.2129L20.4366 1.60808C20.5433 1.42348 20.698 1.26993 20.885 1.16311C21.0719 1.05628 21.2845 1 21.5009 1C21.7173 1 21.9298 1.05628 22.1168 1.16311C22.3038 1.26993 22.4585 1.42348 22.5652 1.60808L41.8449 35.2129C41.9675 35.4283 42.0194 35.6756 41.9935 35.921C41.9676 36.1664 41.8651 36.398 41.7001 36.5842C41.535 36.7705 41.3154 36.9023 41.0712 36.9617C40.8269 37.0211 40.57 37.0052 40.3353 36.9161L21.9437 29.9063C21.6589 29.7979 21.3429 29.7979 21.058 29.9063L2.66646 36.9185C2.43148 37.0081 2.17404 37.0243 1.92933 36.9648C1.68463 36.9054 1.46461 36.7734 1.29939 36.5867C1.13416 36.4 1.03179 36.1678 1.00628 35.9219C0.98077 35.676 1.03336 35.4284 1.15687 35.2129Z" stroke="black" stroke-width="2" stroke-linecap="round" stroke-linejoin="round"/>
</svg>
