<svg width="145" height="30" viewBox="0 0 145 30" fill="none" xmlns="http://www.w3.org/2000/svg">
<path d="M0.763906 3.8H17.1639V8.04H6.24391V13.8H16.1239V18H6.24391V24.76H17.2839V29H0.763906V3.8ZM32.802 0.439998H38.122V29H34.322L33.762 26.92H33.562C33.082 27.5867 32.3887 28.1733 31.482 28.68C30.602 29.1867 29.442 29.44 28.002 29.44C26.802 29.44 25.682 29.2133 24.642 28.76C23.602 28.3067 22.6954 27.6533 21.922 26.8C21.1487 25.9467 20.5354 24.9067 20.082 23.68C19.6554 22.4533 19.442 21.0533 19.442 19.48C19.442 17.96 19.642 16.5867 20.042 15.36C20.442 14.1333 21.0154 13.0933 21.762 12.24C22.5087 11.36 23.4287 10.6933 24.522 10.24C25.6154 9.76 26.8687 9.52 28.282 9.52C29.1887 9.52 30.042 9.65333 30.842 9.92C31.6687 10.1867 32.322 10.5333 32.802 10.96V0.439998ZM32.802 14.92C32.4554 14.4933 32.002 14.1333 31.442 13.84C30.882 13.5467 30.2687 13.4 29.602 13.4C28.962 13.4 28.3487 13.5067 27.762 13.72C27.202 13.9333 26.6954 14.28 26.242 14.76C25.8154 15.2133 25.4687 15.8267 25.202 16.6C24.9354 17.3467 24.802 18.2667 24.802 19.36C24.802 20.4267 24.922 21.3467 25.162 22.12C25.402 22.8933 25.722 23.5333 26.122 24.04C26.522 24.5467 26.9887 24.92 27.522 25.16C28.082 25.4 28.6687 25.52 29.282 25.52C30.1354 25.52 30.8554 25.32 31.442 24.92C32.0554 24.4933 32.5087 24 32.802 23.44V14.92ZM55.3411 9.92H60.6611V29H56.7011L56.1411 26.84H55.9811C55.6878 27.1333 55.3411 27.44 54.9411 27.76C54.5678 28.0533 54.1144 28.3333 53.5811 28.6C53.0744 28.84 52.4878 29.04 51.8211 29.2C51.1811 29.36 50.4611 29.44 49.6611 29.44C47.6078 29.44 45.9811 28.8667 44.7811 27.72C43.6078 26.5733 43.0211 24.88 43.0211 22.64V9.92H48.3411V22.2C48.3411 23.3467 48.6078 24.1733 49.1411 24.68C49.7011 25.1867 50.4078 25.44 51.2611 25.44C52.2211 25.44 53.0344 25.24 53.7011 24.84C54.3944 24.44 54.9411 23.9733 55.3411 23.44V9.92ZM78.243 25.2C79.4696 25.2 80.5096 25.0933 81.363 24.88C82.2163 24.6667 82.9496 24.3733 83.563 24L84.683 28C84.043 28.3733 83.1363 28.7067 81.963 29C80.7896 29.2933 79.363 29.44 77.683 29.44C75.7896 29.44 74.043 29.1467 72.443 28.56C70.843 27.9467 69.4563 27.08 68.283 25.96C67.1363 24.8133 66.243 23.44 65.603 21.84C64.963 20.2133 64.643 18.3867 64.643 16.36C64.643 14.3867 64.9496 12.6 65.563 11C66.203 9.4 67.083 8.04 68.203 6.92C69.3496 5.77333 70.7363 4.89333 72.363 4.28C73.9896 3.66667 75.803 3.36 77.803 3.36C79.5096 3.36 80.9096 3.52 82.003 3.84C83.123 4.16 84.0296 4.50666 84.723 4.88L83.483 8.92C82.7896 8.54667 82.0163 8.24 81.163 8C80.3363 7.73333 79.403 7.6 78.363 7.6C77.2696 7.6 76.243 7.76 75.283 8.08C74.323 8.4 73.483 8.92 72.763 9.64C72.043 10.3333 71.4696 11.24 71.043 12.36C70.643 13.4533 70.443 14.7867 70.443 16.36C70.443 17.88 70.643 19.2 71.043 20.32C71.443 21.4133 71.9896 22.32 72.683 23.04C73.403 23.76 74.2296 24.3067 75.163 24.68C76.123 25.0267 77.1496 25.2 78.243 25.2ZM94.0461 29H88.7261V0.439998H94.0461V11.64C94.8194 11.0267 95.6994 10.52 96.6861 10.12C97.6994 9.72 98.7928 9.52 99.9661 9.52C101.086 9.52 102.059 9.69333 102.886 10.04C103.739 10.36 104.433 10.8267 104.966 11.44C105.526 12.0267 105.939 12.7467 106.206 13.6C106.473 14.4267 106.606 15.3333 106.606 16.32V29H101.286V17.24C101.286 15.9333 101.019 15 100.486 14.44C99.9528 13.88 99.1794 13.6 98.1661 13.6C97.4728 13.6 96.7528 13.7733 96.0061 14.12C95.2861 14.44 94.6328 14.88 94.0461 15.44V29ZM111.818 11.6C112.964 10.9333 114.178 10.4267 115.458 10.08C116.738 9.70667 118.098 9.52 119.538 9.52C120.684 9.52 121.724 9.65333 122.658 9.92C123.618 10.1867 124.431 10.6133 125.098 11.2C125.791 11.76 126.311 12.4933 126.658 13.4C127.031 14.28 127.218 15.3467 127.218 16.6V29H123.098L122.618 27.04H122.458C121.844 27.7867 121.058 28.3733 120.098 28.8C119.164 29.2267 118.071 29.44 116.818 29.44C115.778 29.44 114.858 29.2933 114.058 29C113.258 28.68 112.578 28.2667 112.018 27.76C111.458 27.2267 111.031 26.6 110.738 25.88C110.471 25.16 110.338 24.3867 110.338 23.56C110.338 22.4667 110.564 21.5333 111.018 20.76C111.498 19.96 112.151 19.3067 112.978 18.8C113.804 18.2933 114.764 17.92 115.858 17.68C116.978 17.44 118.178 17.32 119.458 17.32H121.858V16.16C121.858 15.28 121.578 14.64 121.018 14.24C120.484 13.8133 119.724 13.6 118.738 13.6C117.964 13.6 117.164 13.72 116.338 13.96C115.538 14.2 114.644 14.5867 113.658 15.12L111.818 11.6ZM121.898 20.64L120.178 20.68C118.551 20.7333 117.418 21.0133 116.778 21.52C116.138 22 115.818 22.5867 115.818 23.28C115.818 24.1867 116.084 24.8133 116.618 25.16C117.178 25.48 117.804 25.64 118.498 25.64C119.191 25.64 119.844 25.44 120.458 25.04C121.098 24.64 121.578 24.1733 121.898 23.64V20.64ZM143.523 13.76H138.443V22.56C138.443 23.4667 138.643 24.0933 139.043 24.44C139.469 24.76 140.029 24.92 140.723 24.92C141.256 24.92 141.803 24.8667 142.363 24.76C142.923 24.6533 143.376 24.5067 143.723 24.32L144.523 28.04C144.069 28.2533 143.389 28.4667 142.483 28.68C141.576 28.8933 140.616 29 139.603 29C137.283 29 135.629 28.5467 134.643 27.64C133.656 26.7067 133.163 25.32 133.163 23.48V13.76H130.203V9.92H133.163V4.04H138.443V9.92H143.523V13.76Z" fill="black"/>
</svg>
