<svg width="553" height="151" viewBox="0 0 553 151" fill="none" xmlns="http://www.w3.org/2000/svg">
<path d="M3.98164 138V106.5H9.33164V119.5H23.2816V106.5H28.6316V138H23.2816V123.9H9.33164V138H3.98164ZM57.7582 125.95C57.7582 127.917 57.4415 129.683 56.8082 131.25C56.2082 132.817 55.3749 134.133 54.3082 135.2C53.2415 136.267 51.9915 137.083 50.5582 137.65C49.1249 138.217 47.5749 138.5 45.9082 138.5C44.2415 138.5 42.6915 138.233 41.2582 137.7C39.8582 137.167 38.6249 136.4 37.5582 135.4C36.5249 134.367 35.7082 133.1 35.1082 131.6C34.5415 130.1 34.2582 128.383 34.2582 126.45C34.2582 124.45 34.5582 122.683 35.1582 121.15C35.7915 119.617 36.6415 118.317 37.7082 117.25C38.7749 116.183 40.0249 115.383 41.4582 114.85C42.8915 114.283 44.4415 114 46.1082 114C47.7749 114 49.3082 114.267 50.7082 114.8C52.1415 115.3 53.3749 116.05 54.4082 117.05C55.4749 118.05 56.2915 119.3 56.8582 120.8C57.4582 122.3 57.7582 124.017 57.7582 125.95ZM52.4082 126.2C52.4082 124.7 52.2249 123.433 51.8582 122.4C51.4915 121.333 51.0082 120.467 50.4082 119.8C49.8082 119.133 49.1249 118.65 48.3582 118.35C47.5915 118.05 46.7915 117.9 45.9582 117.9C45.1582 117.9 44.3749 118.033 43.6082 118.3C42.8415 118.567 42.1582 119.017 41.5582 119.65C40.9582 120.283 40.4749 121.133 40.1082 122.2C39.7749 123.267 39.6082 124.6 39.6082 126.2C39.6082 127.667 39.7915 128.933 40.1582 130C40.5249 131.067 41.0082 131.95 41.6082 132.65C42.2082 133.317 42.8915 133.817 43.6582 134.15C44.4582 134.45 45.2582 134.6 46.0582 134.6C46.8582 134.6 47.6415 134.467 48.4082 134.2C49.1749 133.933 49.8582 133.483 50.4582 132.85C51.0582 132.183 51.5249 131.317 51.8582 130.25C52.2249 129.15 52.4082 127.8 52.4082 126.2ZM59.9102 114.4H65.3602L69.0602 128.45L69.9602 134.05H70.1602L71.2602 128.45L74.9102 114.4H80.4102L84.2102 128.45L85.2602 134.05H85.4602L86.5102 128.45L90.1102 114.4H95.3602L88.4102 138H82.4602L78.7602 124.1L77.6602 118.3L76.5102 124.1L72.7102 138H66.9602L59.9102 114.4ZM121.916 134.6C122.983 134.6 123.916 134.483 124.716 134.25C125.55 133.983 126.3 133.683 126.966 133.35L128.016 137.05C127.216 137.483 126.25 137.833 125.116 138.1C123.983 138.367 122.733 138.5 121.366 138.5C119.633 138.5 118 138.25 116.466 137.75C114.966 137.217 113.65 136.45 112.516 135.45C111.416 134.417 110.533 133.133 109.866 131.6C109.233 130.067 108.916 128.283 108.916 126.25C108.916 124.383 109.216 122.7 109.816 121.2C110.416 119.667 111.266 118.367 112.366 117.3C113.466 116.233 114.783 115.417 116.316 114.85C117.85 114.283 119.533 114 121.366 114C122.4 114 123.433 114.083 124.466 114.25C125.533 114.417 126.7 114.8 127.966 115.4L126.816 119.15C125.25 118.283 123.616 117.85 121.916 117.85C119.616 117.85 117.75 118.567 116.316 120C114.883 121.433 114.166 123.467 114.166 126.1C114.166 127.7 114.383 129.05 114.816 130.15C115.283 131.217 115.883 132.083 116.616 132.75C117.35 133.417 118.166 133.9 119.066 134.2C120 134.467 120.95 134.6 121.916 134.6ZM132.54 116.5C134.074 115.667 135.54 115.05 136.94 114.65C138.374 114.217 139.957 114 141.69 114C143.024 114 144.24 114.15 145.34 114.45C146.474 114.75 147.44 115.233 148.24 115.9C149.04 116.567 149.657 117.467 150.09 118.6C150.557 119.7 150.79 121.05 150.79 122.65V138H146.64L146.09 135.45H145.94C145.007 136.517 143.924 137.3 142.69 137.8C141.457 138.267 140.09 138.5 138.59 138.5C136.224 138.5 134.307 137.867 132.84 136.6C131.407 135.333 130.69 133.65 130.69 131.55C130.69 130.25 130.957 129.133 131.49 128.2C132.024 127.233 132.774 126.433 133.74 125.8C134.707 125.167 135.857 124.7 137.19 124.4C138.524 124.067 139.99 123.9 141.59 123.9H145.59V122.1C145.59 120.6 145.19 119.567 144.39 119C143.59 118.4 142.49 118.1 141.09 118.1C140.224 118.1 139.24 118.25 138.14 118.55C137.074 118.817 135.84 119.333 134.44 120.1L132.54 116.5ZM145.64 127.3L142.49 127.35C140.124 127.417 138.457 127.833 137.49 128.6C136.524 129.367 136.04 130.267 136.04 131.3C136.04 131.967 136.14 132.517 136.34 132.95C136.574 133.383 136.874 133.733 137.24 134C137.607 134.267 138.024 134.467 138.49 134.6C138.99 134.7 139.49 134.75 139.99 134.75C141.024 134.75 142.04 134.5 143.04 134C144.074 133.467 144.94 132.717 145.64 131.75V127.3ZM162.146 138H156.996V114.4H161.046L161.746 117.55C162.913 116.417 164.129 115.55 165.396 114.95C166.696 114.317 168.163 114 169.796 114C172.296 114 174.229 114.683 175.596 116.05C176.963 117.417 177.646 119.367 177.646 121.9V138H172.496V122.55C172.496 121.183 172.146 120.1 171.446 119.3C170.746 118.5 169.696 118.1 168.296 118.1C167.229 118.1 166.163 118.367 165.096 118.9C164.063 119.4 163.079 120.133 162.146 121.1V138ZM201.373 106.5V138H196.023V106.5H201.373ZM224.941 138H219.791V102.45H224.941V117.1C226.008 116.233 227.175 115.5 228.441 114.9C229.741 114.3 231.175 114 232.741 114C234.075 114 235.241 114.2 236.241 114.6C237.241 115 238.058 115.55 238.691 116.25C239.358 116.95 239.841 117.783 240.141 118.75C240.475 119.717 240.641 120.767 240.641 121.9V138H235.491V123.05C235.491 121.283 235.125 120.017 234.391 119.25C233.658 118.483 232.591 118.1 231.191 118.1C230.158 118.1 229.091 118.367 227.991 118.9C226.925 119.4 225.908 120.1 224.941 121V138ZM267.632 127.1H251.082V127.3C251.082 129.7 251.782 131.517 253.182 132.75C254.582 133.983 256.432 134.6 258.732 134.6C259.998 134.6 261.132 134.5 262.132 134.3C263.165 134.067 264.198 133.717 265.232 133.25L266.232 137C265.265 137.433 264.115 137.783 262.782 138.05C261.448 138.35 259.982 138.5 258.382 138.5C256.682 138.5 255.065 138.267 253.532 137.8C251.998 137.333 250.648 136.6 249.482 135.6C248.348 134.6 247.448 133.333 246.782 131.8C246.115 130.267 245.782 128.433 245.782 126.3C245.782 124.467 246.048 122.8 246.582 121.3C247.148 119.767 247.932 118.467 248.932 117.4C249.965 116.3 251.198 115.467 252.632 114.9C254.098 114.3 255.715 114 257.482 114C259.015 114 260.398 114.25 261.632 114.75C262.898 115.25 263.965 115.967 264.832 116.9C265.732 117.8 266.415 118.917 266.882 120.25C267.382 121.55 267.632 123 267.632 124.6V127.1ZM262.332 123.5C262.332 122.7 262.232 121.95 262.032 121.25C261.832 120.55 261.532 119.95 261.132 119.45C260.732 118.917 260.198 118.5 259.532 118.2C258.898 117.867 258.132 117.7 257.232 117.7C255.565 117.7 254.198 118.233 253.132 119.3C252.098 120.367 251.465 121.8 251.232 123.6L262.332 123.5ZM272.821 138V102.45H277.871V138H272.821ZM294.883 138.5C293.883 138.5 292.916 138.367 291.983 138.1C291.049 137.833 290.249 137.467 289.583 137V149.5H284.483V114.1H288.633L289.283 117.05C290.216 116.183 291.266 115.467 292.433 114.9C293.599 114.3 294.949 114 296.483 114C299.616 114 302.083 115.017 303.883 117.05C305.683 119.083 306.583 121.967 306.583 125.7C306.583 127.867 306.249 129.767 305.583 131.4C304.949 133 304.083 134.333 302.983 135.4C301.916 136.433 300.666 137.217 299.233 137.75C297.833 138.25 296.383 138.5 294.883 138.5ZM295.233 118.05C293.966 118.05 292.833 118.367 291.833 119C290.866 119.6 290.116 120.233 289.583 120.9V133.05C290.949 134.083 292.499 134.6 294.233 134.6C295.099 134.6 295.949 134.45 296.783 134.15C297.616 133.85 298.366 133.35 299.033 132.65C299.699 131.95 300.233 131.05 300.633 129.95C301.033 128.817 301.233 127.45 301.233 125.85C301.233 123.483 300.733 121.6 299.733 120.2C298.766 118.767 297.266 118.05 295.233 118.05ZM320.113 114.4H325.663L330.413 127.15L332.113 132.8H332.213L333.863 127.1L338.163 114.4H343.413L334.463 139.6C333.463 142.433 332.18 144.733 330.613 146.5C329.08 148.3 327.063 149.633 324.563 150.5L322.363 146.45C324.03 145.817 325.48 144.9 326.713 143.7C327.946 142.533 328.863 141 329.463 139.1L329.863 137.95L320.113 114.4ZM369.135 125.95C369.135 127.917 368.818 129.683 368.185 131.25C367.585 132.817 366.752 134.133 365.685 135.2C364.618 136.267 363.368 137.083 361.935 137.65C360.502 138.217 358.952 138.5 357.285 138.5C355.618 138.5 354.068 138.233 352.635 137.7C351.235 137.167 350.002 136.4 348.935 135.4C347.902 134.367 347.085 133.1 346.485 131.6C345.918 130.1 345.635 128.383 345.635 126.45C345.635 124.45 345.935 122.683 346.535 121.15C347.168 119.617 348.018 118.317 349.085 117.25C350.152 116.183 351.402 115.383 352.835 114.85C354.268 114.283 355.818 114 357.485 114C359.152 114 360.685 114.267 362.085 114.8C363.518 115.3 364.752 116.05 365.785 117.05C366.852 118.05 367.668 119.3 368.235 120.8C368.835 122.3 369.135 124.017 369.135 125.95ZM363.785 126.2C363.785 124.7 363.602 123.433 363.235 122.4C362.868 121.333 362.385 120.467 361.785 119.8C361.185 119.133 360.502 118.65 359.735 118.35C358.968 118.05 358.168 117.9 357.335 117.9C356.535 117.9 355.752 118.033 354.985 118.3C354.218 118.567 353.535 119.017 352.935 119.65C352.335 120.283 351.852 121.133 351.485 122.2C351.152 123.267 350.985 124.6 350.985 126.2C350.985 127.667 351.168 128.933 351.535 130C351.902 131.067 352.385 131.95 352.985 132.65C353.585 133.317 354.268 133.817 355.035 134.15C355.835 134.45 356.635 134.6 357.435 134.6C358.235 134.6 359.018 134.467 359.785 134.2C360.552 133.933 361.235 133.483 361.835 132.85C362.435 132.183 362.902 131.317 363.235 130.25C363.602 129.15 363.785 127.8 363.785 126.2ZM389.931 114.4H395.081V138H391.131L390.481 135.15H390.281C389.448 136.017 388.398 136.8 387.131 137.5C385.865 138.167 384.331 138.5 382.531 138.5C380.031 138.5 378.031 137.8 376.531 136.4C375.031 135 374.281 132.9 374.281 130.1V114.4H379.431V129.55C379.431 131.383 379.848 132.667 380.681 133.4C381.548 134.133 382.581 134.5 383.781 134.5C385.081 134.5 386.231 134.233 387.231 133.7C388.231 133.133 389.131 132.4 389.931 131.5V114.4ZM425.855 118.2H419.155V130.95C419.155 132.117 419.422 132.9 419.955 133.3C420.522 133.7 421.272 133.9 422.205 133.9C422.872 133.9 423.572 133.833 424.305 133.7C425.072 133.533 425.739 133.35 426.305 133.15L427.105 136.95C426.439 137.217 425.572 137.467 424.505 137.7C423.472 137.9 422.372 138 421.205 138C418.672 138 416.839 137.483 415.705 136.45C414.605 135.383 414.055 133.817 414.055 131.75V118.2H410.455V114.4H414.055V106.95H419.155V114.4H425.855V118.2ZM453.461 125.95C453.461 127.917 453.145 129.683 452.511 131.25C451.911 132.817 451.078 134.133 450.011 135.2C448.945 136.267 447.695 137.083 446.261 137.65C444.828 138.217 443.278 138.5 441.611 138.5C439.945 138.5 438.395 138.233 436.961 137.7C435.561 137.167 434.328 136.4 433.261 135.4C432.228 134.367 431.411 133.1 430.811 131.6C430.245 130.1 429.961 128.383 429.961 126.45C429.961 124.45 430.261 122.683 430.861 121.15C431.495 119.617 432.345 118.317 433.411 117.25C434.478 116.183 435.728 115.383 437.161 114.85C438.595 114.283 440.145 114 441.811 114C443.478 114 445.011 114.267 446.411 114.8C447.845 115.3 449.078 116.05 450.111 117.05C451.178 118.05 451.995 119.3 452.561 120.8C453.161 122.3 453.461 124.017 453.461 125.95ZM448.111 126.2C448.111 124.7 447.928 123.433 447.561 122.4C447.195 121.333 446.711 120.467 446.111 119.8C445.511 119.133 444.828 118.65 444.061 118.35C443.295 118.05 442.495 117.9 441.661 117.9C440.861 117.9 440.078 118.033 439.311 118.3C438.545 118.567 437.861 119.017 437.261 119.65C436.661 120.283 436.178 121.133 435.811 122.2C435.478 123.267 435.311 124.6 435.311 126.2C435.311 127.667 435.495 128.933 435.861 130C436.228 131.067 436.711 131.95 437.311 132.65C437.911 133.317 438.595 133.817 439.361 134.15C440.161 134.45 440.961 134.6 441.761 134.6C442.561 134.6 443.345 134.467 444.111 134.2C444.878 133.933 445.561 133.483 446.161 132.85C446.761 132.183 447.228 131.317 447.561 130.25C447.928 129.15 448.111 127.8 448.111 126.2ZM474.157 102.45H479.307V138H475.257L474.657 135.4H474.457C473.591 136.4 472.624 137.167 471.557 137.7C470.491 138.233 469.107 138.5 467.407 138.5C466.074 138.5 464.791 138.25 463.557 137.75C462.357 137.217 461.274 136.433 460.307 135.4C459.374 134.367 458.624 133.083 458.057 131.55C457.491 130.017 457.207 128.25 457.207 126.25C457.207 124.383 457.441 122.7 457.907 121.2C458.407 119.7 459.107 118.417 460.007 117.35C460.941 116.283 462.074 115.467 463.407 114.9C464.741 114.3 466.257 114 467.957 114C469.124 114 470.257 114.183 471.357 114.55C472.457 114.917 473.391 115.433 474.157 116.1V102.45ZM474.157 120.25C472.757 118.65 471.074 117.85 469.107 117.85C468.241 117.85 467.407 118 466.607 118.3C465.807 118.6 465.091 119.083 464.457 119.75C463.824 120.417 463.324 121.267 462.957 122.3C462.591 123.333 462.407 124.6 462.407 126.1C462.407 127.6 462.574 128.883 462.907 129.95C463.274 131.017 463.741 131.9 464.307 132.6C464.874 133.3 465.524 133.817 466.257 134.15C467.024 134.45 467.807 134.6 468.607 134.6C469.807 134.6 470.857 134.333 471.757 133.8C472.691 133.267 473.491 132.517 474.157 131.55V120.25ZM486.154 116.5C487.687 115.667 489.154 115.05 490.554 114.65C491.987 114.217 493.57 114 495.304 114C496.637 114 497.854 114.15 498.954 114.45C500.087 114.75 501.054 115.233 501.854 115.9C502.654 116.567 503.27 117.467 503.704 118.6C504.17 119.7 504.404 121.05 504.404 122.65V138H500.254L499.704 135.45H499.554C498.62 136.517 497.537 137.3 496.304 137.8C495.07 138.267 493.704 138.5 492.204 138.5C489.837 138.5 487.92 137.867 486.454 136.6C485.02 135.333 484.304 133.65 484.304 131.55C484.304 130.25 484.57 129.133 485.104 128.2C485.637 127.233 486.387 126.433 487.354 125.8C488.32 125.167 489.47 124.7 490.804 124.4C492.137 124.067 493.604 123.9 495.204 123.9H499.204V122.1C499.204 120.6 498.804 119.567 498.004 119C497.204 118.4 496.104 118.1 494.704 118.1C493.837 118.1 492.854 118.25 491.754 118.55C490.687 118.817 489.454 119.333 488.054 120.1L486.154 116.5ZM499.254 127.3L496.104 127.35C493.737 127.417 492.07 127.833 491.104 128.6C490.137 129.367 489.654 130.267 489.654 131.3C489.654 131.967 489.754 132.517 489.954 132.95C490.187 133.383 490.487 133.733 490.854 134C491.22 134.267 491.637 134.467 492.104 134.6C492.604 134.7 493.104 134.75 493.604 134.75C494.637 134.75 495.654 134.5 496.654 134C497.687 133.467 498.554 132.717 499.254 131.75V127.3ZM507.222 114.4H512.772L517.522 127.15L519.222 132.8H519.322L520.972 127.1L525.272 114.4H530.522L521.572 139.6C520.572 142.433 519.289 144.733 517.722 146.5C516.189 148.3 514.172 149.633 511.672 150.5L509.472 146.45C511.139 145.817 512.589 144.9 513.822 143.7C515.056 142.533 515.972 141 516.572 139.1L516.972 137.95L507.222 114.4ZM540.995 102.25C542.528 102.25 543.895 102.467 545.095 102.9C546.295 103.333 547.311 103.933 548.145 104.7C548.978 105.433 549.611 106.317 550.045 107.35C550.478 108.383 550.695 109.5 550.695 110.7C550.695 111.567 550.561 112.4 550.295 113.2C550.028 113.967 549.661 114.717 549.195 115.45C548.728 116.15 548.195 116.833 547.595 117.5C546.995 118.167 546.378 118.817 545.745 119.45C544.345 120.717 543.278 121.783 542.545 122.65C541.845 123.483 541.495 124.45 541.495 125.55C541.495 125.983 541.511 126.367 541.545 126.7C541.611 127 541.728 127.383 541.895 127.85L537.595 128.55C537.428 128.083 537.278 127.583 537.145 127.05C537.045 126.483 536.995 125.917 536.995 125.35C536.995 123.917 537.345 122.65 538.045 121.55C538.745 120.417 539.778 119.167 541.145 117.8C541.745 117.2 542.311 116.633 542.845 116.1C543.378 115.533 543.828 114.983 544.195 114.45C544.595 113.883 544.895 113.317 545.095 112.75C545.328 112.183 545.445 111.55 545.445 110.85C545.445 109.75 545.061 108.767 544.295 107.9C543.561 107 542.311 106.55 540.545 106.55C539.745 106.55 538.945 106.667 538.145 106.9C537.345 107.133 536.545 107.533 535.745 108.1L533.645 104.4C534.611 103.7 535.761 103.167 537.095 102.8C538.428 102.433 539.728 102.25 540.995 102.25ZM536.895 135.1C536.895 134.133 537.228 133.333 537.895 132.7C538.561 132.067 539.328 131.75 540.195 131.75C541.095 131.75 541.861 132.067 542.495 132.7C543.128 133.333 543.445 134.133 543.445 135.1C543.445 136.133 543.128 136.967 542.495 137.6C541.861 138.2 541.095 138.5 540.195 138.5C539.328 138.5 538.561 138.2 537.895 137.6C537.228 136.967 536.895 136.133 536.895 135.1Z" fill="black"/>
<path d="M276.5 0L235 22.6667L250.091 30.9022V53.5689L276.5 68L302.909 53.5689V30.9022L310.455 26.7844V52.8889H318V22.6667L276.5 0ZM302.23 22.6667L276.5 36.72L250.77 22.6667L276.5 8.61333L302.23 22.6667ZM295.364 49.1111L276.5 59.3867L257.636 49.1111V35.02L276.5 45.3333L295.364 35.02V49.1111Z" fill="black"/>
</svg>
