<svg width="29" height="23" viewBox="0 0 29 23" fill="none" xmlns="http://www.w3.org/2000/svg">
<g clip-path="url(#clip0_7_275)">
<path d="M26.2812 22.2533H2.71875C1.21438 22.2533 0 21.0525 0 19.565V3.43514C0 1.94761 1.21438 0.746826 2.71875 0.746826H26.2812C27.7856 0.746826 29 1.94761 29 3.43514V19.565C29 21.0525 27.7856 22.2533 26.2812 22.2533ZM2.71875 2.53903C2.21125 2.53903 1.8125 2.93332 1.8125 3.43514V19.565C1.8125 20.0668 2.21125 20.4611 2.71875 20.4611H26.2812C26.7887 20.4611 27.1875 20.0668 27.1875 19.565V3.43514C27.1875 2.93332 26.7887 2.53903 26.2812 2.53903H2.71875Z" fill="black"/>
<path d="M14.5 15.0128C13.2312 15.0128 12.0712 14.511 11.2012 13.597L1.68558 3.59645C1.3412 3.23801 1.35933 2.6645 1.72183 2.32398C2.08433 1.98346 2.66433 2.00139 3.0087 2.35983L12.5243 12.3603C13.5575 13.4536 15.4425 13.4536 16.4756 12.3603L25.9912 2.37775C26.3356 2.01931 26.9156 2.00139 27.2781 2.3419C27.6406 2.68242 27.6587 3.25593 27.3143 3.61437L17.7987 13.6149C16.9287 14.5289 15.7687 15.0307 14.5 15.0307V15.0128Z" fill="black"/>
</g>
<defs>
<clipPath id="clip0_7_275">
<rect width="29" height="23" fill="white"/>
</clipPath>
</defs>
</svg>
