<svg width="24" height="28" viewBox="0 0 24 28" fill="none" xmlns="http://www.w3.org/2000/svg">
<path d="M4 10.6667V8.33333C4 3.79333 7.33733 0 12 0C16.6627 0 20 3.79333 20 8.33333V10.6667H20.6667C21.5507 10.6667 22.3986 11.0179 23.0237 11.643C23.6488 12.2681 24 13.1159 24 14V24.6667C24 25.5507 23.6488 26.3986 23.0237 27.0237C22.3986 27.6488 21.5507 28 20.6667 28H3.33333C2.44928 28 1.60143 27.6488 0.976311 27.0237C0.351189 26.3986 0 25.5507 0 24.6667V14C0 13.1159 0.351189 12.2681 0.976311 11.643C1.60143 11.0179 2.44928 10.6667 3.33333 10.6667H4ZM2 14V24.6667C2 25.0203 2.14048 25.3594 2.39052 25.6095C2.64057 25.8595 2.97971 26 3.33333 26H20.6667C21.0203 26 21.3594 25.8595 21.6095 25.6095C21.8595 25.3594 22 25.0203 22 24.6667V14C22 13.6464 21.8595 13.3072 21.6095 13.0572C21.3594 12.8071 21.0203 12.6667 20.6667 12.6667H3.33333C2.97971 12.6667 2.64057 12.8071 2.39052 13.0572C2.14048 13.3072 2 13.6464 2 14ZM6 8.33333V10.6667H18V8.33333C18 4.77333 15.4373 2 12 2C8.56267 2 6 4.77333 6 8.33333Z" fill="black"/>
</svg>
