<svg width="122" height="23" viewBox="0 0 122 23" fill="none" xmlns="http://www.w3.org/2000/svg">
<path d="M0.375703 3.1H3.2257L11.1457 14.41C11.5057 14.93 11.8457 15.45 12.1657 15.97C12.4857 16.49 12.7557 16.96 12.9757 17.38H13.0357C12.9357 15.9 12.8857 14.43 12.8857 12.97C12.8857 11.49 12.8857 10 12.8857 8.5V3.1H15.9757V22H13.1257L5.4157 11.05C5.0357 10.51 4.6657 9.93 4.3057 9.31C3.9457 8.67 3.6357 8.1 3.3757 7.6H3.3157C3.4157 9.16 3.4657 10.71 3.4657 12.25C3.4657 13.77 3.4657 15.3 3.4657 16.84V22H0.375703V3.1ZM32.472 15.46H22.542V15.58C22.542 17.02 22.962 18.11 23.802 18.85C24.642 19.59 25.752 19.96 27.132 19.96C27.892 19.96 28.572 19.9 29.172 19.78C29.792 19.64 30.412 19.43 31.032 19.15L31.632 21.4C31.052 21.66 30.362 21.87 29.562 22.03C28.762 22.21 27.882 22.3 26.922 22.3C25.902 22.3 24.932 22.16 24.012 21.88C23.092 21.6 22.282 21.16 21.582 20.56C20.902 19.96 20.362 19.2 19.962 18.28C19.562 17.36 19.362 16.26 19.362 14.98C19.362 13.88 19.522 12.88 19.842 11.98C20.182 11.06 20.652 10.28 21.252 9.64C21.872 8.98 22.612 8.48 23.472 8.14C24.352 7.78 25.322 7.6 26.382 7.6C27.302 7.6 28.132 7.75 28.872 8.05C29.632 8.35 30.272 8.78 30.792 9.34C31.332 9.88 31.742 10.55 32.022 11.35C32.322 12.13 32.472 13 32.472 13.96V15.46ZM29.292 13.3C29.292 12.82 29.232 12.37 29.112 11.95C28.992 11.53 28.812 11.17 28.572 10.87C28.332 10.55 28.012 10.3 27.612 10.12C27.232 9.92 26.772 9.82 26.232 9.82C25.232 9.82 24.412 10.14 23.772 10.78C23.152 11.42 22.772 12.28 22.632 13.36L29.292 13.3ZM33.6691 7.84H36.9391L39.1591 16.27L39.6991 19.63H39.8191L40.4791 16.27L42.6691 7.84H45.9691L48.2491 16.27L48.8791 19.63H48.9991L49.6291 16.27L51.7891 7.84H54.9391L50.7691 22H47.1991L44.9791 13.66L44.3191 10.18L43.6291 13.66L41.3491 22H37.8991L33.6691 7.84ZM72.8529 19.72C73.8329 19.72 74.6429 19.64 75.2829 19.48C75.9429 19.3 76.5629 19.07 77.1429 18.79L77.8329 21.28C77.1929 21.58 76.4529 21.82 75.6129 22C74.7729 22.2 73.7429 22.3 72.5229 22.3C71.2229 22.3 70.0029 22.09 68.8629 21.67C67.7429 21.23 66.7629 20.6 65.9229 19.78C65.1029 18.94 64.4529 17.92 63.9729 16.72C63.4929 15.5 63.2529 14.11 63.2529 12.55C63.2529 11.03 63.4829 9.67 63.9429 8.47C64.4029 7.25 65.0429 6.22 65.8629 5.38C66.7029 4.54 67.6929 3.9 68.8329 3.46C69.9929 3.02 71.2629 2.8 72.6429 2.8C73.9029 2.8 74.9329 2.91 75.7329 3.13C76.5529 3.33 77.2729 3.6 77.8929 3.94L77.1429 6.37C76.4629 6.07 75.8129 5.83 75.1929 5.65C74.5929 5.47 73.8729 5.38 73.0329 5.38C72.1729 5.38 71.3529 5.51 70.5729 5.77C69.8129 6.03 69.1429 6.45 68.5629 7.03C68.0029 7.61 67.5529 8.36 67.2129 9.28C66.8729 10.18 66.7029 11.27 66.7029 12.55C66.7029 13.83 66.8629 14.93 67.1829 15.85C67.5229 16.75 67.9629 17.49 68.5029 18.07C69.0629 18.63 69.7129 19.05 70.4529 19.33C71.2129 19.59 72.0129 19.72 72.8529 19.72ZM84.2602 22H81.1702V0.669999H84.2602V9.46C84.9002 8.94 85.6002 8.5 86.3602 8.14C87.1402 7.78 88.0002 7.6 88.9402 7.6C89.7402 7.6 90.4402 7.72 91.0402 7.96C91.6402 8.2 92.1302 8.53 92.5102 8.95C92.9102 9.37 93.2002 9.87 93.3802 10.45C93.5802 11.03 93.6802 11.66 93.6802 12.34V22H90.5902V13.03C90.5902 11.97 90.3702 11.21 89.9302 10.75C89.4902 10.29 88.8502 10.06 88.0102 10.06C87.3902 10.06 86.7502 10.22 86.0902 10.54C85.4502 10.84 84.8402 11.26 84.2602 11.8V22ZM97.7843 9.1C98.7043 8.6 99.5843 8.23 100.424 7.99C101.284 7.73 102.234 7.6 103.274 7.6C104.074 7.6 104.804 7.69 105.464 7.87C106.144 8.05 106.724 8.34 107.204 8.74C107.684 9.14 108.054 9.68 108.314 10.36C108.594 11.02 108.734 11.83 108.734 12.79V22H106.244L105.914 20.47H105.824C105.264 21.11 104.614 21.58 103.874 21.88C103.134 22.16 102.314 22.3 101.414 22.3C99.9943 22.3 98.8443 21.92 97.9643 21.16C97.1043 20.4 96.6743 19.39 96.6743 18.13C96.6743 17.35 96.8343 16.68 97.1543 16.12C97.4743 15.54 97.9243 15.06 98.5043 14.68C99.0843 14.3 99.7743 14.02 100.574 13.84C101.374 13.64 102.254 13.54 103.214 13.54H105.614V12.46C105.614 11.56 105.374 10.94 104.894 10.6C104.414 10.24 103.754 10.06 102.914 10.06C102.394 10.06 101.804 10.15 101.144 10.33C100.504 10.49 99.7643 10.8 98.9243 11.26L97.7843 9.1ZM105.644 15.58L103.754 15.61C102.334 15.65 101.334 15.9 100.754 16.36C100.174 16.82 99.8843 17.36 99.8843 17.98C99.8843 18.38 99.9443 18.71 100.064 18.97C100.204 19.23 100.384 19.44 100.604 19.6C100.824 19.76 101.074 19.88 101.354 19.96C101.654 20.02 101.954 20.05 102.254 20.05C102.874 20.05 103.484 19.9 104.084 19.6C104.704 19.28 105.224 18.83 105.644 18.25V15.58ZM120.551 10.12H116.531V17.77C116.531 18.47 116.691 18.94 117.011 19.18C117.351 19.42 117.801 19.54 118.361 19.54C118.761 19.54 119.181 19.5 119.621 19.42C120.081 19.32 120.481 19.21 120.821 19.09L121.301 21.37C120.901 21.53 120.381 21.68 119.741 21.82C119.121 21.94 118.461 22 117.761 22C116.241 22 115.141 21.69 114.461 21.07C113.801 20.43 113.471 19.49 113.471 18.25V10.12H111.311V7.84H113.471V3.37H116.531V7.84H120.551V10.12Z" fill="black"/>
</svg>
