<svg width="668" height="274" viewBox="0 0 668 274" fill="none" xmlns="http://www.w3.org/2000/svg">
<g filter="url(#filter0_f_7_157)">
<rect x="100" y="100" width="468" height="74" rx="24" fill="white"/>
</g>
<rect x="102" y="106.379" width="465" height="61.2414" rx="24" fill="white"/>
<rect x="103" y="107.379" width="463" height="59.2414" rx="23" stroke="black" stroke-opacity="0.5" stroke-width="2"/>
<path d="M297.094 126.617H301.204V142.277H308.824V145.517H297.094V126.617ZM324.778 138.257C324.778 139.437 324.588 140.497 324.208 141.437C323.828 142.377 323.298 143.177 322.618 143.837C321.958 144.477 321.178 144.977 320.278 145.337C319.378 145.677 318.408 145.847 317.368 145.847C316.328 145.847 315.358 145.687 314.458 145.367C313.578 145.047 312.808 144.577 312.148 143.957C311.508 143.337 310.998 142.577 310.618 141.677C310.258 140.757 310.078 139.717 310.078 138.557C310.078 137.337 310.268 136.257 310.648 135.317C311.028 134.357 311.548 133.557 312.208 132.917C312.888 132.257 313.678 131.757 314.578 131.417C315.478 131.077 316.448 130.907 317.488 130.907C318.528 130.907 319.488 131.067 320.368 131.387C321.268 131.707 322.038 132.177 322.678 132.797C323.338 133.397 323.848 134.157 324.208 135.077C324.588 135.997 324.778 137.057 324.778 138.257ZM320.668 138.407C320.668 137.587 320.578 136.887 320.398 136.307C320.218 135.727 319.978 135.257 319.678 134.897C319.378 134.537 319.028 134.277 318.628 134.117C318.228 133.937 317.818 133.847 317.398 133.847C316.978 133.847 316.578 133.927 316.198 134.087C315.818 134.227 315.478 134.477 315.178 134.837C314.878 135.177 314.638 135.637 314.458 136.217C314.278 136.797 314.188 137.527 314.188 138.407C314.188 139.187 314.278 139.867 314.458 140.447C314.638 141.007 314.878 141.467 315.178 141.827C315.498 142.187 315.848 142.457 316.228 142.637C316.628 142.817 317.038 142.907 317.458 142.907C317.878 142.907 318.278 142.837 318.658 142.697C319.038 142.537 319.378 142.277 319.678 141.917C319.978 141.557 320.218 141.097 320.398 140.537C320.578 139.957 320.668 139.247 320.668 138.407ZM327.465 136.067C327.465 135.287 327.615 134.577 327.915 133.937C328.235 133.297 328.665 132.757 329.205 132.317C329.765 131.857 330.415 131.507 331.155 131.267C331.915 131.027 332.745 130.907 333.645 130.907C333.985 130.907 334.355 130.937 334.755 130.997C335.155 131.037 335.525 131.107 335.865 131.207H341.985V133.727H340.695L338.835 133.457C339.095 133.777 339.305 134.177 339.465 134.657C339.645 135.137 339.735 135.617 339.735 136.097C339.735 137.617 339.185 138.847 338.085 139.787C337.005 140.707 335.515 141.167 333.615 141.167C333.115 141.167 332.675 141.127 332.295 141.047C331.795 141.247 331.545 141.577 331.545 142.037C331.545 142.357 331.655 142.597 331.875 142.757C332.095 142.917 332.485 142.997 333.045 142.997H336.255C337.835 142.997 339.095 143.347 340.035 144.047C340.995 144.727 341.475 145.827 341.475 147.347C341.475 148.127 341.285 148.837 340.905 149.477C340.545 150.137 340.025 150.697 339.345 151.157C338.665 151.637 337.845 152.007 336.885 152.267C335.925 152.527 334.855 152.657 333.675 152.657C331.495 152.657 329.765 152.267 328.485 151.487C327.225 150.727 326.595 149.627 326.595 148.187C326.595 147.527 326.815 146.947 327.255 146.447C327.695 145.967 328.305 145.587 329.085 145.307C328.805 145.107 328.525 144.827 328.245 144.467C327.965 144.087 327.825 143.617 327.825 143.057C327.825 142.397 328.025 141.827 328.425 141.347C328.825 140.867 329.335 140.487 329.955 140.207C329.655 140.047 329.355 139.847 329.055 139.607C328.775 139.347 328.515 139.047 328.275 138.707C328.035 138.367 327.835 137.977 327.675 137.537C327.535 137.097 327.465 136.607 327.465 136.067ZM331.305 145.997C331.005 146.157 330.755 146.367 330.555 146.627C330.355 146.887 330.255 147.217 330.255 147.617C330.255 148.197 330.515 148.677 331.035 149.057C331.575 149.457 332.495 149.657 333.795 149.657C335.095 149.657 336.045 149.437 336.645 148.997C337.245 148.557 337.545 148.057 337.545 147.497C337.545 146.937 337.355 146.547 336.975 146.327C336.595 146.107 336.005 145.997 335.205 145.997H331.305ZM335.835 136.037C335.835 135.257 335.625 134.667 335.205 134.267C334.785 133.867 334.255 133.667 333.615 133.667C332.955 133.667 332.415 133.867 331.995 134.267C331.595 134.667 331.395 135.247 331.395 136.007C331.395 136.807 331.605 137.407 332.025 137.807C332.445 138.207 332.975 138.407 333.615 138.407C334.275 138.407 334.805 138.207 335.205 137.807C335.625 137.407 335.835 136.817 335.835 136.037ZM351.881 145.517V131.207H355.871V145.517H351.881ZM353.891 128.147C353.211 128.147 352.681 127.957 352.301 127.577C351.921 127.177 351.731 126.687 351.731 126.107C351.731 125.527 351.921 125.047 352.301 124.667C352.681 124.267 353.211 124.067 353.891 124.067C354.551 124.067 355.071 124.267 355.451 124.667C355.851 125.047 356.051 125.527 356.051 126.107C356.051 126.687 355.861 127.177 355.481 127.577C355.101 127.957 354.571 128.147 353.891 128.147ZM363.832 145.517H359.842V131.207H362.962L363.442 133.037C364.102 132.357 364.822 131.837 365.602 131.477C366.402 131.097 367.282 130.907 368.242 130.907C369.822 130.907 371.032 131.337 371.872 132.197C372.712 133.057 373.132 134.307 373.132 135.947V145.517H369.142V136.367C369.142 135.627 368.962 135.047 368.602 134.627C368.242 134.187 367.712 133.967 367.012 133.967C366.492 133.967 365.942 134.117 365.362 134.417C364.802 134.697 364.292 135.087 363.832 135.587V145.517Z" fill="black"/>
<defs>
<filter id="filter0_f_7_157" x="0" y="0" width="668" height="274" filterUnits="userSpaceOnUse" color-interpolation-filters="sRGB">
<feFlood flood-opacity="0" result="BackgroundImageFix"/>
<feBlend mode="normal" in="SourceGraphic" in2="BackgroundImageFix" result="shape"/>
<feGaussianBlur stdDeviation="50" result="effect1_foregroundBlur_7_157"/>
</filter>
</defs>
</svg>
