<svg width="70" height="70" viewBox="0 0 70 70" fill="none" xmlns="http://www.w3.org/2000/svg">
<path fill-rule="evenodd" clip-rule="evenodd" d="M30.9315 26.9248C31.2167 26.6873 31.5846 26.5727 31.9542 26.6063C32.3239 26.6399 32.665 26.819 32.9027 27.104L38.7351 34.104C38.9623 34.3903 39.0685 34.7541 39.0311 35.1177C38.9936 35.4812 38.8155 35.8157 38.5347 36.0497C38.2539 36.2837 37.8928 36.3986 37.5284 36.3699C37.1641 36.3412 36.8254 36.1711 36.5847 35.896L30.7523 28.896C30.5148 28.6108 30.4003 28.243 30.4339 27.8733C30.4675 27.5037 30.6465 27.1625 30.9315 26.9248Z" fill="black"/>
<path fill-rule="evenodd" clip-rule="evenodd" d="M30.9315 43.0752C30.646 42.8379 30.4665 42.497 30.4323 42.1273C30.3982 41.7577 30.5123 41.3896 30.7495 41.104L36.5847 34.104C36.7007 33.9578 36.8448 33.8362 37.0085 33.7465C37.1722 33.6568 37.3522 33.6007 37.5379 33.5816C37.7236 33.5625 37.9113 33.5807 38.0898 33.6351C38.2684 33.6896 38.4342 33.7792 38.5777 33.8987C38.7211 34.0182 38.8391 34.1652 38.9249 34.331C39.0107 34.4968 39.0624 34.6781 39.0771 34.8642C39.0917 35.0503 39.069 35.2375 39.0103 35.4147C38.9516 35.5919 38.858 35.7555 38.7351 35.896L32.9027 42.896C32.665 43.1811 32.3238 43.3601 31.9542 43.3937C31.5845 43.4273 31.2167 43.3128 30.9315 43.0752Z" fill="black"/>
<path fill-rule="evenodd" clip-rule="evenodd" d="M37.8 35C37.8 35.3713 37.6525 35.7274 37.3899 35.99C37.1274 36.2525 36.7713 36.4 36.4 36.4H15.4C15.0287 36.4 14.6726 36.2525 14.4101 35.99C14.1475 35.7274 14 35.3713 14 35C14 34.6287 14.1475 34.2726 14.4101 34.01C14.6726 33.7475 15.0287 33.6 15.4 33.6H36.4C36.7713 33.6 37.1274 33.7475 37.3899 34.01C37.6525 34.2726 37.8 34.6287 37.8 35ZM51.8 54.6C51.8 54.9713 51.6525 55.3274 51.3899 55.59C51.1274 55.8525 50.7713 56 50.4 56H24.64C24.2687 56 23.9126 55.8525 23.6501 55.59C23.3875 55.3274 23.24 54.9713 23.24 54.6C23.24 54.2287 23.3875 53.8726 23.6501 53.6101C23.9126 53.3475 24.2687 53.2 24.64 53.2H50.4C50.7713 53.2 51.1274 53.3475 51.3899 53.6101C51.6525 53.8726 51.8 54.2287 51.8 54.6ZM51.8 15.4C51.8 15.7713 51.6525 16.1274 51.3899 16.3899C51.1274 16.6525 50.7713 16.8 50.4 16.8H24.7128C24.3415 16.8 23.9854 16.6525 23.7228 16.3899C23.4603 16.1274 23.3128 15.7713 23.3128 15.4C23.3128 15.0287 23.4603 14.6726 23.7228 14.4101C23.9854 14.1475 24.3415 14 24.7128 14H50.4C50.7713 14 51.1274 14.1475 51.3899 14.4101C51.6525 14.6726 51.8 15.0287 51.8 15.4Z" fill="black"/>
<path fill-rule="evenodd" clip-rule="evenodd" d="M24.5 56C24.1287 56 23.7726 55.8525 23.51 55.59C23.2475 55.3274 23.1 54.9713 23.1 54.6V43.4C23.1 43.0287 23.2475 42.6726 23.51 42.41C23.7726 42.1475 24.1287 42 24.5 42C24.8713 42 25.2274 42.1475 25.4899 42.41C25.7525 42.6726 25.9 43.0287 25.9 43.4V54.6C25.9 54.9713 25.7525 55.3274 25.4899 55.59C25.2274 55.8525 24.8713 56 24.5 56ZM24.5 28C24.1287 28 23.7726 27.8525 23.51 27.59C23.2475 27.3274 23.1 26.9713 23.1 26.6V15.4C23.1 15.0287 23.2475 14.6726 23.51 14.4101C23.7726 14.1475 24.1287 14 24.5 14C24.8713 14 25.2274 14.1475 25.4899 14.4101C25.7525 14.6726 25.9 15.0287 25.9 15.4V26.6C25.9 26.9713 25.7525 27.3274 25.4899 27.59C25.2274 27.8525 24.8713 28 24.5 28ZM50.68 56C50.3087 56 49.9526 55.8525 49.69 55.59C49.4275 55.3274 49.28 54.9713 49.28 54.6V15.4C49.28 15.0287 49.4275 14.6726 49.69 14.4101C49.9526 14.1475 50.3087 14 50.68 14C51.0513 14 51.4074 14.1475 51.6699 14.4101C51.9325 14.6726 52.08 15.0287 52.08 15.4V54.6C52.08 54.9713 51.9325 55.3274 51.6699 55.59C51.4074 55.8525 51.0513 56 50.68 56Z" fill="black"/>
<path fill-rule="evenodd" clip-rule="evenodd" d="M35 67.2C52.7828 67.2 67.2 52.7828 67.2 35C67.2 17.2172 52.7828 2.8 35 2.8C17.2172 2.8 2.8 17.2172 2.8 35C2.8 52.7828 17.2172 67.2 35 67.2ZM35 70C54.3312 70 70 54.3312 70 35C70 15.6688 54.3312 0 35 0C15.6688 0 0 15.6688 0 35C0 54.3312 15.6688 70 35 70Z" fill="black"/>
</svg>
