<svg width="838" height="61" viewBox="0 0 838 61" fill="none" xmlns="http://www.w3.org/2000/svg">
<path d="M5.35859 2.25V15.4C5.35859 16.4333 5.30026 17.2583 5.18359 17.875C5.06693 18.4917 4.85026 19.0417 4.53359 19.525C4.30026 19.875 4.02526 20.1667 3.70859 20.4C3.40859 20.6333 3.08359 20.8167 2.73359 20.95C2.38359 21.1 2.01693 21.2083 1.63359 21.275C1.26693 21.3417 0.908594 21.375 0.558594 21.375V20.45C1.54193 20.4333 2.34193 20.1667 2.95859 19.65C3.39193 19.2667 3.68359 18.7833 3.83359 18.2C3.98359 17.6333 4.05859 16.9917 4.05859 16.275V2.25H5.35859ZM18.6842 12C18.6842 12.9833 18.5508 13.8667 18.2842 14.65C18.0175 15.4167 17.6425 16.0667 17.1592 16.6C16.6925 17.1167 16.1425 17.5167 15.5092 17.8C14.8758 18.0667 14.1842 18.2 13.4342 18.2C12.7008 18.2 12.0092 18.075 11.3592 17.825C10.7258 17.5583 10.1758 17.175 9.70918 16.675C9.24251 16.175 8.87585 15.5583 8.60918 14.825C8.34251 14.075 8.20918 13.2167 8.20918 12.25C8.20918 11.2667 8.34251 10.3917 8.60918 9.625C8.89251 8.85833 9.27585 8.21667 9.75918 7.7C10.2425 7.16667 10.8092 6.76667 11.4592 6.5C12.1092 6.23333 12.8008 6.1 13.5342 6.1C14.2675 6.1 14.9508 6.225 15.5842 6.475C16.2175 6.725 16.7592 7.1 17.2092 7.6C17.6758 8.1 18.0342 8.71667 18.2842 9.45C18.5508 10.1833 18.6842 11.0333 18.6842 12ZM17.3342 12.125C17.3342 11.2583 17.2258 10.5167 17.0092 9.9C16.7925 9.26667 16.5008 8.75 16.1342 8.35C15.7842 7.93333 15.3758 7.63333 14.9092 7.45C14.4425 7.25 13.9592 7.15 13.4592 7.15C12.9592 7.15 12.4758 7.25 12.0092 7.45C11.5425 7.63333 11.1258 7.93333 10.7592 8.35C10.3925 8.75 10.1008 9.26667 9.88418 9.9C9.66751 10.5167 9.55918 11.2583 9.55918 12.125C9.55918 13.0417 9.66751 13.8167 9.88418 14.45C10.1175 15.0833 10.4175 15.6 10.7842 16C11.1508 16.4 11.5675 16.6917 12.0342 16.875C12.5175 17.0583 13.0092 17.15 13.5092 17.15C14.0092 17.15 14.4842 17.0667 14.9342 16.9C15.4008 16.7167 15.8092 16.425 16.1592 16.025C16.5258 15.625 16.8092 15.1083 17.0092 14.475C17.2258 13.825 17.3342 13.0417 17.3342 12.125ZM21.7324 18V6.25H23.0324V18H21.7324ZM22.4074 3.225C22.1408 3.225 21.9074 3.14167 21.7074 2.975C21.5241 2.79167 21.4324 2.54167 21.4324 2.225C21.4324 1.89167 21.5241 1.63333 21.7074 1.45C21.8908 1.26667 22.1158 1.175 22.3824 1.175C22.6324 1.175 22.8491 1.26667 23.0324 1.45C23.2324 1.61667 23.3324 1.875 23.3324 2.225C23.3324 2.55833 23.2408 2.80833 23.0574 2.975C22.8741 3.14167 22.6574 3.225 22.4074 3.225ZM28.2303 18H26.9303V6.25H27.8803L28.0803 7.875C28.6469 7.34167 29.2553 6.91667 29.9053 6.6C30.5719 6.26667 31.3219 6.1 32.1553 6.1C33.3553 6.1 34.2886 6.43333 34.9553 7.1C35.6386 7.76667 35.9803 8.7 35.9803 9.9V18H34.6803V10.225C34.6803 9.79167 34.6303 9.39167 34.5303 9.025C34.4469 8.64167 34.2886 8.31667 34.0553 8.05C33.8386 7.76667 33.5386 7.55 33.1553 7.4C32.7886 7.23333 32.3303 7.15 31.7803 7.15C31.1469 7.15 30.5136 7.31667 29.8803 7.65C29.2636 7.96667 28.7136 8.4 28.2303 8.95V18ZM46.3211 18H45.0211V6.25H45.9461L46.1461 7.875C46.6961 7.325 47.2878 6.89167 47.9211 6.575C48.5544 6.24167 49.3128 6.075 50.1961 6.075C51.0294 6.075 51.7128 6.25 52.2461 6.6C52.7794 6.93333 53.1794 7.4 53.4461 8C54.0294 7.38333 54.6711 6.90833 55.3711 6.575C56.0711 6.24167 56.8461 6.075 57.6961 6.075C58.8961 6.075 59.7961 6.41667 60.3961 7.1C61.0128 7.76667 61.3211 8.7 61.3211 9.9V18H60.0211V10.3C60.0211 9.3 59.8044 8.525 59.3711 7.975C58.9544 7.425 58.1961 7.15 57.0961 7.15C56.5294 7.15 55.9378 7.30833 55.3211 7.625C54.7211 7.94167 54.2128 8.36667 53.7961 8.9C53.8128 9.05 53.8211 9.21667 53.8211 9.4C53.8211 9.58333 53.8211 9.75 53.8211 9.9V18H52.5211V10.3C52.5211 9.3 52.3211 8.525 51.9211 7.975C51.5211 7.425 50.7794 7.15 49.6961 7.15C49.0794 7.15 48.4711 7.31667 47.8711 7.65C47.2878 7.96667 46.7711 8.40833 46.3211 8.975V18ZM65.2139 18V6.25H66.5139V18H65.2139ZM65.8889 3.225C65.6222 3.225 65.3889 3.14167 65.1889 2.975C65.0055 2.79167 64.9139 2.54167 64.9139 2.225C64.9139 1.89167 65.0055 1.63333 65.1889 1.45C65.3722 1.26667 65.5972 1.175 65.8639 1.175C66.1139 1.175 66.3305 1.26667 66.5139 1.45C66.7139 1.61667 66.8139 1.875 66.8139 2.225C66.8139 2.55833 66.7222 2.80833 66.5389 2.975C66.3555 3.14167 66.1389 3.225 65.8889 3.225ZM70.5117 18V0.249999H71.8117V18H70.5117ZM75.8096 18V0.249999H77.1096V18H75.8096ZM81.1074 18V6.25H82.4074V18H81.1074ZM81.7824 3.225C81.5158 3.225 81.2824 3.14167 81.0824 2.975C80.8991 2.79167 80.8074 2.54167 80.8074 2.225C80.8074 1.89167 80.8991 1.63333 81.0824 1.45C81.2658 1.26667 81.4908 1.175 81.7574 1.175C82.0074 1.175 82.2241 1.26667 82.4074 1.45C82.6074 1.61667 82.7074 1.875 82.7074 2.225C82.7074 2.55833 82.6158 2.80833 82.4324 2.975C82.2491 3.14167 82.0324 3.225 81.7824 3.225ZM95.9303 12C95.9303 12.9833 95.7969 13.8667 95.5303 14.65C95.2636 15.4167 94.8886 16.0667 94.4053 16.6C93.9386 17.1167 93.3886 17.5167 92.7553 17.8C92.1219 18.0667 91.4303 18.2 90.6803 18.2C89.9469 18.2 89.2553 18.075 88.6053 17.825C87.9719 17.5583 87.4219 17.175 86.9553 16.675C86.4886 16.175 86.1219 15.5583 85.8553 14.825C85.5886 14.075 85.4553 13.2167 85.4553 12.25C85.4553 11.2667 85.5886 10.3917 85.8553 9.625C86.1386 8.85833 86.5219 8.21667 87.0053 7.7C87.4886 7.16667 88.0553 6.76667 88.7053 6.5C89.3553 6.23333 90.0469 6.1 90.7803 6.1C91.5136 6.1 92.1969 6.225 92.8303 6.475C93.4636 6.725 94.0053 7.1 94.4553 7.6C94.9219 8.1 95.2803 8.71667 95.5303 9.45C95.7969 10.1833 95.9303 11.0333 95.9303 12ZM94.5803 12.125C94.5803 11.2583 94.4719 10.5167 94.2553 9.9C94.0386 9.26667 93.7469 8.75 93.3803 8.35C93.0303 7.93333 92.6219 7.63333 92.1553 7.45C91.6886 7.25 91.2053 7.15 90.7053 7.15C90.2053 7.15 89.7219 7.25 89.2553 7.45C88.7886 7.63333 88.3719 7.93333 88.0053 8.35C87.6386 8.75 87.3469 9.26667 87.1303 9.9C86.9136 10.5167 86.8053 11.2583 86.8053 12.125C86.8053 13.0417 86.9136 13.8167 87.1303 14.45C87.3636 15.0833 87.6636 15.6 88.0303 16C88.3969 16.4 88.8136 16.6917 89.2803 16.875C89.7636 17.0583 90.2553 17.15 90.7553 17.15C91.2553 17.15 91.7303 17.0667 92.1803 16.9C92.6469 16.7167 93.0553 16.425 93.4053 16.025C93.7719 15.625 94.0553 15.1083 94.2553 14.475C94.4719 13.825 94.5803 13.0417 94.5803 12.125ZM100.179 18H98.8785V6.25H99.8285L100.029 7.875C100.595 7.34167 101.204 6.91667 101.854 6.6C102.52 6.26667 103.27 6.1 104.104 6.1C105.304 6.1 106.237 6.43333 106.904 7.1C107.587 7.76667 107.929 8.7 107.929 9.9V18H106.629V10.225C106.629 9.79167 106.579 9.39167 106.479 9.025C106.395 8.64167 106.237 8.31667 106.004 8.05C105.787 7.76667 105.487 7.55 105.104 7.4C104.737 7.23333 104.279 7.15 103.729 7.15C103.095 7.15 102.462 7.31667 101.829 7.65C101.212 7.96667 100.662 8.4 100.179 8.95V18ZM117.745 7.725C116.912 7.34167 116.004 7.15 115.02 7.15C114.12 7.15 113.445 7.34167 112.995 7.725C112.545 8.09167 112.32 8.56667 112.32 9.15C112.32 9.73333 112.512 10.1833 112.895 10.5C113.279 10.8 113.954 11.0917 114.92 11.375L115.67 11.6C116.62 11.8833 117.345 12.3 117.845 12.85C118.345 13.4 118.595 14.075 118.595 14.875C118.595 15.3417 118.504 15.7833 118.32 16.2C118.137 16.6 117.87 16.95 117.52 17.25C117.17 17.55 116.729 17.7833 116.195 17.95C115.679 18.1167 115.079 18.2 114.395 18.2C113.645 18.2 112.987 18.1333 112.42 18C111.854 17.8833 111.354 17.725 110.92 17.525L111.27 16.5C111.704 16.7167 112.154 16.8833 112.62 17C113.087 17.1 113.637 17.15 114.27 17.15C115.22 17.15 115.954 16.9667 116.47 16.6C116.987 16.2333 117.245 15.7083 117.245 15.025C117.245 14.4917 117.054 14.0333 116.67 13.65C116.304 13.25 115.645 12.9 114.695 12.6L113.895 12.35C111.945 11.7333 110.97 10.7083 110.97 9.275C110.97 8.80833 111.062 8.38333 111.245 8C111.445 7.6 111.712 7.26667 112.045 7C112.395 6.71667 112.804 6.5 113.27 6.35C113.754 6.18333 114.287 6.1 114.87 6.1C115.404 6.1 115.954 6.14167 116.52 6.225C117.087 6.30833 117.604 6.46667 118.07 6.7L117.745 7.725ZM136.458 12C136.458 12.9833 136.324 13.8667 136.058 14.65C135.791 15.4167 135.416 16.0667 134.933 16.6C134.466 17.1167 133.916 17.5167 133.283 17.8C132.649 18.0667 131.958 18.2 131.208 18.2C130.474 18.2 129.783 18.075 129.133 17.825C128.499 17.5583 127.949 17.175 127.483 16.675C127.016 16.175 126.649 15.5583 126.383 14.825C126.116 14.075 125.983 13.2167 125.983 12.25C125.983 11.2667 126.116 10.3917 126.383 9.625C126.666 8.85833 127.049 8.21667 127.533 7.7C128.016 7.16667 128.583 6.76667 129.233 6.5C129.883 6.23333 130.574 6.1 131.308 6.1C132.041 6.1 132.724 6.225 133.358 6.475C133.991 6.725 134.533 7.1 134.983 7.6C135.449 8.1 135.808 8.71667 136.058 9.45C136.324 10.1833 136.458 11.0333 136.458 12ZM135.108 12.125C135.108 11.2583 134.999 10.5167 134.783 9.9C134.566 9.26667 134.274 8.75 133.908 8.35C133.558 7.93333 133.149 7.63333 132.683 7.45C132.216 7.25 131.733 7.15 131.233 7.15C130.733 7.15 130.249 7.25 129.783 7.45C129.316 7.63333 128.899 7.93333 128.533 8.35C128.166 8.75 127.874 9.26667 127.658 9.9C127.441 10.5167 127.333 11.2583 127.333 12.125C127.333 13.0417 127.441 13.8167 127.658 14.45C127.891 15.0833 128.191 15.6 128.558 16C128.924 16.4 129.341 16.6917 129.808 16.875C130.291 17.0583 130.783 17.15 131.283 17.15C131.783 17.15 132.258 17.0667 132.708 16.9C133.174 16.7167 133.583 16.425 133.933 16.025C134.299 15.625 134.583 15.1083 134.783 14.475C134.999 13.825 135.108 13.0417 135.108 12.125ZM143.531 0.124999C143.998 0.124999 144.489 0.191666 145.006 0.325C145.523 0.441666 145.973 0.608332 146.356 0.824999L146.081 1.775C145.714 1.59167 145.331 1.45 144.931 1.35C144.531 1.23333 144.173 1.175 143.856 1.175C143.023 1.175 142.389 1.40833 141.956 1.875C141.539 2.325 141.331 3.11667 141.331 4.25V6.25H145.356V7.25H141.331V18H140.031V7.25H137.881V6.25H140.031V4C140.031 2.7 140.339 1.73333 140.956 1.1C141.573 0.449999 142.431 0.124999 143.531 0.124999ZM158.541 7.725C157.708 7.34167 156.8 7.15 155.816 7.15C154.916 7.15 154.241 7.34167 153.791 7.725C153.341 8.09167 153.116 8.56667 153.116 9.15C153.116 9.73333 153.308 10.1833 153.691 10.5C154.075 10.8 154.75 11.0917 155.716 11.375L156.466 11.6C157.416 11.8833 158.141 12.3 158.641 12.85C159.141 13.4 159.391 14.075 159.391 14.875C159.391 15.3417 159.3 15.7833 159.116 16.2C158.933 16.6 158.666 16.95 158.316 17.25C157.966 17.55 157.525 17.7833 156.991 17.95C156.475 18.1167 155.875 18.2 155.191 18.2C154.441 18.2 153.783 18.1333 153.216 18C152.65 17.8833 152.15 17.725 151.716 17.525L152.066 16.5C152.5 16.7167 152.95 16.8833 153.416 17C153.883 17.1 154.433 17.15 155.066 17.15C156.016 17.15 156.75 16.9667 157.266 16.6C157.783 16.2333 158.041 15.7083 158.041 15.025C158.041 14.4917 157.85 14.0333 157.466 13.65C157.1 13.25 156.441 12.9 155.491 12.6L154.691 12.35C152.741 11.7333 151.766 10.7083 151.766 9.275C151.766 8.80833 151.858 8.38333 152.041 8C152.241 7.6 152.508 7.26667 152.841 7C153.191 6.71667 153.6 6.5 154.066 6.35C154.55 6.18333 155.083 6.1 155.666 6.1C156.2 6.1 156.75 6.14167 157.316 6.225C157.883 6.30833 158.4 6.46667 158.866 6.7L158.541 7.725ZM168.354 7.25H164.404V14.95C164.404 15.7333 164.579 16.2667 164.929 16.55C165.279 16.8167 165.763 16.95 166.379 16.95C166.863 16.95 167.313 16.9083 167.729 16.825C168.146 16.725 168.496 16.625 168.779 16.525L168.979 17.5C168.646 17.6333 168.238 17.75 167.754 17.85C167.271 17.95 166.738 18 166.154 18C165.154 18 164.396 17.7667 163.879 17.3C163.363 16.8167 163.104 16.0917 163.104 15.125V7.25H160.979V6.25H163.104V2.5H164.404V6.25H168.354V7.25ZM179.214 6.25H180.514V18H179.589L179.389 16.525H179.339C178.939 16.9583 178.406 17.35 177.739 17.7C177.073 18.0333 176.289 18.2 175.389 18.2C174.173 18.2 173.189 17.875 172.439 17.225C171.706 16.5583 171.339 15.525 171.339 14.125V6.25H172.639V13.85C172.639 14.5 172.714 15.0417 172.864 15.475C173.014 15.8917 173.223 16.225 173.489 16.475C173.756 16.725 174.073 16.9 174.439 17C174.823 17.1 175.231 17.15 175.664 17.15C176.414 17.15 177.106 16.975 177.739 16.625C178.389 16.275 178.881 15.8583 179.214 15.375V6.25ZM191.978 0.249999H193.278V18H192.228L192.053 16.9H192.003C191.653 17.2833 191.212 17.6 190.678 17.85C190.145 18.0833 189.453 18.2 188.603 18.2C187.97 18.2 187.345 18.0833 186.728 17.85C186.128 17.6 185.578 17.225 185.078 16.725C184.595 16.225 184.203 15.6 183.903 14.85C183.603 14.0833 183.453 13.1833 183.453 12.15C183.453 11.2333 183.57 10.4 183.803 9.65C184.053 8.9 184.412 8.26667 184.878 7.75C185.345 7.21667 185.903 6.80833 186.553 6.525C187.22 6.24167 187.97 6.1 188.803 6.1C190.07 6.1 191.128 6.475 191.978 7.225V0.249999ZM191.978 8.55C191.645 8.11667 191.203 7.775 190.653 7.525C190.103 7.275 189.562 7.15 189.028 7.15C188.478 7.15 187.945 7.24167 187.428 7.425C186.928 7.59167 186.478 7.86667 186.078 8.25C185.695 8.63333 185.387 9.14167 185.153 9.775C184.92 10.4083 184.803 11.175 184.803 12.075C184.803 13.0083 184.92 13.8 185.153 14.45C185.387 15.0833 185.695 15.6 186.078 16C186.478 16.4 186.928 16.6917 187.428 16.875C187.928 17.0583 188.445 17.15 188.978 17.15C189.695 17.15 190.303 17.0167 190.803 16.75C191.32 16.4833 191.712 16.15 191.978 15.75V8.55ZM205.752 12.125H197.377V12.475C197.377 13.9417 197.768 15.0917 198.552 15.925C199.352 16.7417 200.435 17.15 201.802 17.15C202.885 17.15 203.902 16.9667 204.852 16.6L205.152 17.6C204.718 17.7833 204.193 17.925 203.577 18.025C202.977 18.1417 202.36 18.2 201.727 18.2C200.943 18.2 200.202 18.0833 199.502 17.85C198.818 17.6167 198.218 17.2583 197.702 16.775C197.185 16.275 196.777 15.65 196.477 14.9C196.177 14.1333 196.027 13.2167 196.027 12.15C196.027 11.2333 196.152 10.4 196.402 9.65C196.652 8.9 197.01 8.26667 197.477 7.75C197.943 7.21667 198.493 6.80833 199.127 6.525C199.76 6.24167 200.468 6.1 201.252 6.1C201.918 6.1 202.527 6.225 203.077 6.475C203.643 6.70833 204.118 7.05 204.502 7.5C204.902 7.95 205.21 8.49167 205.427 9.125C205.643 9.75833 205.752 10.4583 205.752 11.225V12.125ZM204.402 11.075C204.402 10.5917 204.343 10.1167 204.227 9.65C204.11 9.16667 203.918 8.74167 203.652 8.375C203.402 8.00833 203.068 7.71667 202.652 7.5C202.252 7.26667 201.76 7.15 201.177 7.15C200.16 7.15 199.31 7.49167 198.627 8.175C197.96 8.85833 197.56 9.825 197.427 11.075H204.402ZM209.993 18H208.693V6.25H209.643L209.843 7.875C210.41 7.34167 211.018 6.91667 211.668 6.6C212.335 6.26667 213.085 6.1 213.918 6.1C215.118 6.1 216.051 6.43333 216.718 7.1C217.401 7.76667 217.743 8.7 217.743 9.9V18H216.443V10.225C216.443 9.79167 216.393 9.39167 216.293 9.025C216.21 8.64167 216.051 8.31667 215.818 8.05C215.601 7.76667 215.301 7.55 214.918 7.4C214.551 7.23333 214.093 7.15 213.543 7.15C212.91 7.15 212.276 7.31667 211.643 7.65C211.026 7.96667 210.476 8.4 209.993 8.95V18ZM227.51 7.25H223.56V14.95C223.56 15.7333 223.735 16.2667 224.085 16.55C224.435 16.8167 224.918 16.95 225.535 16.95C226.018 16.95 226.468 16.9083 226.885 16.825C227.301 16.725 227.651 16.625 227.935 16.525L228.135 17.5C227.801 17.6333 227.393 17.75 226.91 17.85C226.426 17.95 225.893 18 225.31 18C224.31 18 223.551 17.7667 223.035 17.3C222.518 16.8167 222.26 16.0917 222.26 15.125V7.25H220.135V6.25H222.26V2.5H223.56V6.25H227.51V7.25ZM236.52 7.725C235.686 7.34167 234.778 7.15 233.795 7.15C232.895 7.15 232.22 7.34167 231.77 7.725C231.32 8.09167 231.095 8.56667 231.095 9.15C231.095 9.73333 231.286 10.1833 231.67 10.5C232.053 10.8 232.728 11.0917 233.695 11.375L234.445 11.6C235.395 11.8833 236.12 12.3 236.62 12.85C237.12 13.4 237.37 14.075 237.37 14.875C237.37 15.3417 237.278 15.7833 237.095 16.2C236.911 16.6 236.645 16.95 236.295 17.25C235.945 17.55 235.503 17.7833 234.97 17.95C234.453 18.1167 233.853 18.2 233.17 18.2C232.42 18.2 231.761 18.1333 231.195 18C230.628 17.8833 230.128 17.725 229.695 17.525L230.045 16.5C230.478 16.7167 230.928 16.8833 231.395 17C231.861 17.1 232.411 17.15 233.045 17.15C233.995 17.15 234.728 16.9667 235.245 16.6C235.761 16.2333 236.02 15.7083 236.02 15.025C236.02 14.4917 235.828 14.0333 235.445 13.65C235.078 13.25 234.42 12.9 233.47 12.6L232.67 12.35C230.72 11.7333 229.745 10.7083 229.745 9.275C229.745 8.80833 229.836 8.38333 230.02 8C230.22 7.6 230.486 7.26667 230.82 7C231.17 6.71667 231.578 6.5 232.045 6.35C232.528 6.18333 233.061 6.1 233.645 6.1C234.178 6.1 234.728 6.14167 235.295 6.225C235.861 6.30833 236.378 6.46667 236.845 6.7L236.52 7.725ZM240.708 18.2C240.425 18.15 240.183 18.025 239.983 17.825C239.8 17.625 239.708 17.35 239.708 17C239.708 16.7 239.8 16.45 239.983 16.25C240.183 16.05 240.433 15.95 240.733 15.95C241 15.95 241.266 16.0667 241.533 16.3C241.8 16.5167 241.933 16.95 241.933 17.6C241.933 17.9833 241.866 18.35 241.733 18.7C241.6 19.05 241.416 19.375 241.183 19.675C240.966 19.9917 240.708 20.2667 240.408 20.5C240.125 20.75 239.825 20.9583 239.508 21.125L239.008 20.425C239.508 20.175 239.916 19.85 240.233 19.45C240.55 19.05 240.75 18.6417 240.833 18.225L240.708 18.2ZM249.61 18V6.25H250.46L250.76 8.6C251.043 7.85 251.526 7.25 252.21 6.8C252.893 6.33333 253.66 6.1 254.51 6.1C254.91 6.1 255.26 6.13333 255.56 6.2C255.86 6.26667 256.093 6.34167 256.26 6.425L256.01 7.575C255.81 7.49167 255.585 7.41667 255.335 7.35C255.085 7.28333 254.793 7.25 254.46 7.25C253.976 7.25 253.518 7.33333 253.085 7.5C252.668 7.66667 252.293 7.925 251.96 8.275C251.643 8.625 251.385 9.06667 251.185 9.6C251.001 10.1167 250.91 10.7333 250.91 11.45V18H249.61ZM266.884 12.125H258.509V12.475C258.509 13.9417 258.901 15.0917 259.684 15.925C260.484 16.7417 261.568 17.15 262.934 17.15C264.018 17.15 265.034 16.9667 265.984 16.6L266.284 17.6C265.851 17.7833 265.326 17.925 264.709 18.025C264.109 18.1417 263.493 18.2 262.859 18.2C262.076 18.2 261.334 18.0833 260.634 17.85C259.951 17.6167 259.351 17.2583 258.834 16.775C258.318 16.275 257.909 15.65 257.609 14.9C257.309 14.1333 257.159 13.2167 257.159 12.15C257.159 11.2333 257.284 10.4 257.534 9.65C257.784 8.9 258.143 8.26667 258.609 7.75C259.076 7.21667 259.626 6.80833 260.259 6.525C260.893 6.24167 261.601 6.1 262.384 6.1C263.051 6.1 263.659 6.225 264.209 6.475C264.776 6.70833 265.251 7.05 265.634 7.5C266.034 7.95 266.343 8.49167 266.559 9.125C266.776 9.75833 266.884 10.4583 266.884 11.225V12.125ZM265.534 11.075C265.534 10.5917 265.476 10.1167 265.359 9.65C265.243 9.16667 265.051 8.74167 264.784 8.375C264.534 8.00833 264.201 7.71667 263.784 7.5C263.384 7.26667 262.893 7.15 262.309 7.15C261.293 7.15 260.443 7.49167 259.759 8.175C259.093 8.85833 258.693 9.825 258.559 11.075H265.534ZM275.851 7.725C275.017 7.34167 274.109 7.15 273.126 7.15C272.226 7.15 271.551 7.34167 271.101 7.725C270.651 8.09167 270.426 8.56667 270.426 9.15C270.426 9.73333 270.617 10.1833 271.001 10.5C271.384 10.8 272.059 11.0917 273.026 11.375L273.776 11.6C274.726 11.8833 275.451 12.3 275.951 12.85C276.451 13.4 276.701 14.075 276.701 14.875C276.701 15.3417 276.609 15.7833 276.426 16.2C276.242 16.6 275.976 16.95 275.626 17.25C275.276 17.55 274.834 17.7833 274.301 17.95C273.784 18.1167 273.184 18.2 272.501 18.2C271.751 18.2 271.092 18.1333 270.526 18C269.959 17.8833 269.459 17.725 269.026 17.525L269.376 16.5C269.809 16.7167 270.259 16.8833 270.726 17C271.192 17.1 271.742 17.15 272.376 17.15C273.326 17.15 274.059 16.9667 274.576 16.6C275.092 16.2333 275.351 15.7083 275.351 15.025C275.351 14.4917 275.159 14.0333 274.776 13.65C274.409 13.25 273.751 12.9 272.801 12.6L272.001 12.35C270.051 11.7333 269.076 10.7083 269.076 9.275C269.076 8.80833 269.167 8.38333 269.351 8C269.551 7.6 269.817 7.26667 270.151 7C270.501 6.71667 270.909 6.5 271.376 6.35C271.859 6.18333 272.392 6.1 272.976 6.1C273.509 6.1 274.059 6.14167 274.626 6.225C275.192 6.30833 275.709 6.46667 276.176 6.7L275.851 7.725ZM288.442 12.125H280.067V12.475C280.067 13.9417 280.459 15.0917 281.242 15.925C282.042 16.7417 283.125 17.15 284.492 17.15C285.575 17.15 286.592 16.9667 287.542 16.6L287.842 17.6C287.409 17.7833 286.884 17.925 286.267 18.025C285.667 18.1417 285.05 18.2 284.417 18.2C283.634 18.2 282.892 18.0833 282.192 17.85C281.509 17.6167 280.909 17.2583 280.392 16.775C279.875 16.275 279.467 15.65 279.167 14.9C278.867 14.1333 278.717 13.2167 278.717 12.15C278.717 11.2333 278.842 10.4 279.092 9.65C279.342 8.9 279.7 8.26667 280.167 7.75C280.634 7.21667 281.184 6.80833 281.817 6.525C282.45 6.24167 283.159 6.1 283.942 6.1C284.609 6.1 285.217 6.225 285.767 6.475C286.334 6.70833 286.809 7.05 287.192 7.5C287.592 7.95 287.9 8.49167 288.117 9.125C288.334 9.75833 288.442 10.4583 288.442 11.225V12.125ZM287.092 11.075C287.092 10.5917 287.034 10.1167 286.917 9.65C286.8 9.16667 286.609 8.74167 286.342 8.375C286.092 8.00833 285.759 7.71667 285.342 7.5C284.942 7.26667 284.45 7.15 283.867 7.15C282.85 7.15 282 7.49167 281.317 8.175C280.65 8.85833 280.25 9.825 280.117 11.075H287.092ZM291.108 7.275C291.892 6.85833 292.608 6.55833 293.258 6.375C293.925 6.19167 294.633 6.1 295.383 6.1C295.917 6.1 296.417 6.175 296.883 6.325C297.367 6.475 297.783 6.71667 298.133 7.05C298.5 7.38333 298.783 7.825 298.983 8.375C299.2 8.90833 299.308 9.56667 299.308 10.35V18H298.408L298.133 16.45H298.083C297.6 17.0333 297.033 17.475 296.383 17.775C295.733 18.0583 295.008 18.2 294.208 18.2C293.658 18.2 293.15 18.125 292.683 17.975C292.217 17.8083 291.808 17.575 291.458 17.275C291.125 16.975 290.858 16.6167 290.658 16.2C290.475 15.7667 290.383 15.2917 290.383 14.775C290.383 14.1583 290.508 13.6167 290.758 13.15C291.008 12.6833 291.358 12.3 291.808 12C292.258 11.6833 292.792 11.45 293.408 11.3C294.042 11.15 294.742 11.075 295.508 11.075H298.008V10.3C298.008 9.16667 297.758 8.35833 297.258 7.875C296.758 7.39167 296.108 7.15 295.308 7.15C294.825 7.15 294.267 7.225 293.633 7.375C293 7.525 292.325 7.8 291.608 8.2L291.108 7.275ZM298.008 12.1L295.933 12.125C295.183 12.1417 294.542 12.225 294.008 12.375C293.475 12.5083 293.033 12.6917 292.683 12.925C292.35 13.1417 292.108 13.4083 291.958 13.725C291.808 14.025 291.733 14.35 291.733 14.7C291.733 15.1333 291.808 15.5083 291.958 15.825C292.108 16.125 292.308 16.375 292.558 16.575C292.808 16.775 293.1 16.925 293.433 17.025C293.783 17.1083 294.15 17.15 294.533 17.15C294.833 17.15 295.142 17.1167 295.458 17.05C295.775 16.9667 296.083 16.85 296.383 16.7C296.7 16.5333 297 16.3333 297.283 16.1C297.567 15.85 297.808 15.55 298.008 15.2V12.1ZM302.808 18V6.25H303.658L303.958 8.6C304.241 7.85 304.725 7.25 305.408 6.8C306.091 6.33333 306.858 6.1 307.708 6.1C308.108 6.1 308.458 6.13333 308.758 6.2C309.058 6.26667 309.291 6.34167 309.458 6.425L309.208 7.575C309.008 7.49167 308.783 7.41667 308.533 7.35C308.283 7.28333 307.991 7.25 307.658 7.25C307.175 7.25 306.716 7.33333 306.283 7.5C305.866 7.66667 305.491 7.925 305.158 8.275C304.841 8.625 304.583 9.06667 304.383 9.6C304.2 10.1167 304.108 10.7333 304.108 11.45V18H302.808ZM315.964 17.25C316.497 17.25 316.981 17.1917 317.414 17.075C317.847 16.9583 318.256 16.8083 318.639 16.625L318.914 17.525C318.464 17.7583 317.989 17.925 317.489 18.025C317.006 18.1417 316.447 18.2 315.814 18.2C315.031 18.2 314.289 18.075 313.589 17.825C312.906 17.575 312.297 17.2 311.764 16.7C311.247 16.2 310.831 15.575 310.514 14.825C310.214 14.0583 310.064 13.1667 310.064 12.15C310.064 11.2167 310.206 10.375 310.489 9.625C310.772 8.875 311.172 8.24167 311.689 7.725C312.206 7.19167 312.806 6.79167 313.489 6.525C314.189 6.24167 314.956 6.1 315.789 6.1C316.306 6.1 316.806 6.14167 317.289 6.225C317.772 6.29167 318.297 6.45833 318.864 6.725L318.564 7.75C318.114 7.51667 317.681 7.35833 317.264 7.275C316.864 7.19167 316.447 7.15 316.014 7.15C315.331 7.15 314.706 7.26667 314.139 7.5C313.572 7.73333 313.089 8.06667 312.689 8.5C312.289 8.91667 311.972 9.43333 311.739 10.05C311.522 10.65 311.414 11.325 311.414 12.075C311.414 13.075 311.547 13.9083 311.814 14.575C312.081 15.225 312.422 15.75 312.839 16.15C313.272 16.55 313.756 16.8333 314.289 17C314.839 17.1667 315.397 17.25 315.964 17.25ZM323.008 18H321.708V0.249999H323.008V7.825C323.558 7.325 324.166 6.91667 324.833 6.6C325.5 6.26667 326.233 6.1 327.033 6.1C327.683 6.1 328.25 6.2 328.733 6.4C329.216 6.58333 329.608 6.85 329.908 7.2C330.225 7.53333 330.458 7.93333 330.608 8.4C330.775 8.85 330.858 9.35 330.858 9.9V18H329.558V10.3C329.558 9.15 329.3 8.34167 328.783 7.875C328.266 7.39167 327.583 7.15 326.733 7.15C326.133 7.15 325.508 7.31667 324.858 7.65C324.208 7.96667 323.591 8.4 323.008 8.95V18ZM343.545 12.125H335.17V12.475C335.17 13.9417 335.561 15.0917 336.345 15.925C337.145 16.7417 338.228 17.15 339.595 17.15C340.678 17.15 341.695 16.9667 342.645 16.6L342.945 17.6C342.511 17.7833 341.986 17.925 341.37 18.025C340.77 18.1417 340.153 18.2 339.52 18.2C338.736 18.2 337.995 18.0833 337.295 17.85C336.611 17.6167 336.011 17.2583 335.495 16.775C334.978 16.275 334.57 15.65 334.27 14.9C333.97 14.1333 333.82 13.2167 333.82 12.15C333.82 11.2333 333.945 10.4 334.195 9.65C334.445 8.9 334.803 8.26667 335.27 7.75C335.736 7.21667 336.286 6.80833 336.92 6.525C337.553 6.24167 338.261 6.1 339.045 6.1C339.711 6.1 340.32 6.225 340.87 6.475C341.436 6.70833 341.911 7.05 342.295 7.5C342.695 7.95 343.003 8.49167 343.22 9.125C343.436 9.75833 343.545 10.4583 343.545 11.225V12.125ZM342.195 11.075C342.195 10.5917 342.136 10.1167 342.02 9.65C341.903 9.16667 341.711 8.74167 341.445 8.375C341.195 8.00833 340.861 7.71667 340.445 7.5C340.045 7.26667 339.553 7.15 338.97 7.15C337.953 7.15 337.103 7.49167 336.42 8.175C335.753 8.85833 335.353 9.825 335.22 11.075H342.195ZM346.436 18V6.25H347.286L347.586 8.6C347.869 7.85 348.353 7.25 349.036 6.8C349.719 6.33333 350.486 6.1 351.336 6.1C351.736 6.1 352.086 6.13333 352.386 6.2C352.686 6.26667 352.919 6.34167 353.086 6.425L352.836 7.575C352.636 7.49167 352.411 7.41667 352.161 7.35C351.911 7.28333 351.619 7.25 351.286 7.25C350.803 7.25 350.344 7.33333 349.911 7.5C349.494 7.66667 349.119 7.925 348.786 8.275C348.469 8.625 348.211 9.06667 348.011 9.6C347.828 10.1167 347.736 10.7333 347.736 11.45V18H346.436ZM361.349 7.725C360.515 7.34167 359.607 7.15 358.624 7.15C357.724 7.15 357.049 7.34167 356.599 7.725C356.149 8.09167 355.924 8.56667 355.924 9.15C355.924 9.73333 356.115 10.1833 356.499 10.5C356.882 10.8 357.557 11.0917 358.524 11.375L359.274 11.6C360.224 11.8833 360.949 12.3 361.449 12.85C361.949 13.4 362.199 14.075 362.199 14.875C362.199 15.3417 362.107 15.7833 361.924 16.2C361.74 16.6 361.474 16.95 361.124 17.25C360.774 17.55 360.332 17.7833 359.799 17.95C359.282 18.1167 358.682 18.2 357.999 18.2C357.249 18.2 356.59 18.1333 356.024 18C355.457 17.8833 354.957 17.725 354.524 17.525L354.874 16.5C355.307 16.7167 355.757 16.8833 356.224 17C356.69 17.1 357.24 17.15 357.874 17.15C358.824 17.15 359.557 16.9667 360.074 16.6C360.59 16.2333 360.849 15.7083 360.849 15.025C360.849 14.4917 360.657 14.0333 360.274 13.65C359.907 13.25 359.249 12.9 358.299 12.6L357.499 12.35C355.549 11.7333 354.574 10.7083 354.574 9.275C354.574 8.80833 354.665 8.38333 354.849 8C355.049 7.6 355.315 7.26667 355.649 7C355.999 6.71667 356.407 6.5 356.874 6.35C357.357 6.18333 357.89 6.1 358.474 6.1C359.007 6.1 359.557 6.14167 360.124 6.225C360.69 6.30833 361.207 6.46667 361.674 6.7L361.349 7.725ZM369.286 13.5C369.286 12.85 369.378 12.2833 369.561 11.8C369.744 11.3 370.011 10.8583 370.361 10.475C370.728 10.075 371.178 9.725 371.711 9.425C372.261 9.10833 372.886 8.81667 373.586 8.55C373.053 8.01667 372.586 7.44167 372.186 6.825C371.786 6.19167 371.586 5.475 371.586 4.675C371.586 4.125 371.694 3.64167 371.911 3.225C372.128 2.79167 372.419 2.43333 372.786 2.15C373.153 1.85 373.569 1.625 374.036 1.475C374.519 1.325 375.019 1.25 375.536 1.25C376.686 1.25 377.611 1.55833 378.311 2.175C379.028 2.79167 379.386 3.625 379.386 4.675C379.386 6.30833 378.469 7.56667 376.636 8.45L375.961 7.65C376.611 7.33333 377.119 6.95 377.486 6.5C377.853 6.05 378.036 5.475 378.036 4.775C378.036 4.075 377.811 3.49167 377.361 3.025C376.928 2.54167 376.294 2.3 375.461 2.3C374.561 2.3 373.911 2.54167 373.511 3.025C373.128 3.49167 372.936 4.03333 372.936 4.65C372.936 5.06667 372.994 5.45 373.111 5.8C373.228 6.13333 373.378 6.45 373.561 6.75C373.761 7.05 373.986 7.34167 374.236 7.625C374.486 7.89167 374.753 8.16667 375.036 8.45L380.461 14.025C380.578 13.8417 380.711 13.6167 380.861 13.35C381.011 13.0667 381.161 12.7583 381.311 12.425C381.461 12.075 381.603 11.7167 381.736 11.35C381.886 10.9667 382.019 10.5917 382.136 10.225L383.186 10.65C382.936 11.4333 382.628 12.1917 382.261 12.925C381.911 13.6583 381.569 14.2833 381.236 14.8L384.336 18H382.786L380.586 15.75C379.919 16.4833 379.136 17.075 378.236 17.525C377.353 17.975 376.244 18.2 374.911 18.2C374.094 18.2 373.336 18.0833 372.636 17.85C371.953 17.6 371.361 17.2667 370.861 16.85C370.361 16.4167 369.969 15.9167 369.686 15.35C369.419 14.7833 369.286 14.1667 369.286 13.5ZM370.636 13.45C370.636 14 370.744 14.5083 370.961 14.975C371.178 15.425 371.478 15.8167 371.861 16.15C372.261 16.4667 372.736 16.7167 373.286 16.9C373.836 17.0667 374.436 17.15 375.086 17.15C375.686 17.15 376.236 17.075 376.736 16.925C377.236 16.775 377.686 16.5917 378.086 16.375C378.486 16.1583 378.828 15.925 379.111 15.675C379.411 15.4083 379.644 15.1667 379.811 14.95L374.386 9.35C373.086 9.81667 372.136 10.375 371.536 11.025C370.936 11.675 370.636 12.4833 370.636 13.45ZM395.437 18.2C394.887 18.2 394.37 18.1333 393.887 18C393.404 17.85 392.987 17.65 392.637 17.4V23.75H391.337V6.1H392.412L392.612 7.6C392.995 7.21667 393.479 6.875 394.062 6.575C394.645 6.25833 395.354 6.1 396.187 6.1C396.904 6.1 397.562 6.225 398.162 6.475C398.779 6.725 399.312 7.09167 399.762 7.575C400.212 8.05833 400.562 8.65833 400.812 9.375C401.062 10.0917 401.187 10.9083 401.187 11.825C401.187 12.925 401.02 13.875 400.687 14.675C400.37 15.475 399.937 16.1417 399.387 16.675C398.854 17.1917 398.237 17.575 397.537 17.825C396.854 18.075 396.154 18.2 395.437 18.2ZM395.912 7.15C395.529 7.15 395.162 7.20833 394.812 7.325C394.479 7.425 394.17 7.55833 393.887 7.725C393.604 7.89167 393.354 8.075 393.137 8.275C392.92 8.475 392.754 8.66667 392.637 8.85V16.325C393.004 16.6083 393.412 16.8167 393.862 16.95C394.329 17.0833 394.795 17.15 395.262 17.15C395.845 17.15 396.412 17.0583 396.962 16.875C397.512 16.6917 397.995 16.3917 398.412 15.975C398.845 15.5417 399.187 14.9917 399.437 14.325C399.704 13.6417 399.837 12.8083 399.837 11.825C399.837 10.3417 399.512 9.19167 398.862 8.375C398.229 7.55833 397.245 7.15 395.912 7.15ZM404.078 18V6.25H404.928L405.228 8.6C405.511 7.85 405.994 7.25 406.678 6.8C407.361 6.33333 408.128 6.1 408.978 6.1C409.378 6.1 409.728 6.13333 410.028 6.2C410.328 6.26667 410.561 6.34167 410.728 6.425L410.478 7.575C410.278 7.49167 410.053 7.41667 409.803 7.35C409.553 7.28333 409.261 7.25 408.928 7.25C408.444 7.25 407.986 7.33333 407.553 7.5C407.136 7.66667 406.761 7.925 406.428 8.275C406.111 8.625 405.853 9.06667 405.653 9.6C405.469 10.1167 405.378 10.7333 405.378 11.45V18H404.078ZM421.956 12C421.956 12.9833 421.822 13.8667 421.556 14.65C421.289 15.4167 420.914 16.0667 420.431 16.6C419.964 17.1167 419.414 17.5167 418.781 17.8C418.147 18.0667 417.456 18.2 416.706 18.2C415.972 18.2 415.281 18.075 414.631 17.825C413.997 17.5583 413.447 17.175 412.981 16.675C412.514 16.175 412.147 15.5583 411.881 14.825C411.614 14.075 411.481 13.2167 411.481 12.25C411.481 11.2667 411.614 10.3917 411.881 9.625C412.164 8.85833 412.547 8.21667 413.031 7.7C413.514 7.16667 414.081 6.76667 414.731 6.5C415.381 6.23333 416.072 6.1 416.806 6.1C417.539 6.1 418.222 6.225 418.856 6.475C419.489 6.725 420.031 7.1 420.481 7.6C420.947 8.1 421.306 8.71667 421.556 9.45C421.822 10.1833 421.956 11.0333 421.956 12ZM420.606 12.125C420.606 11.2583 420.497 10.5167 420.281 9.9C420.064 9.26667 419.772 8.75 419.406 8.35C419.056 7.93333 418.647 7.63333 418.181 7.45C417.714 7.25 417.231 7.15 416.731 7.15C416.231 7.15 415.747 7.25 415.281 7.45C414.814 7.63333 414.397 7.93333 414.031 8.35C413.664 8.75 413.372 9.26667 413.156 9.9C412.939 10.5167 412.831 11.2583 412.831 12.125C412.831 13.0417 412.939 13.8167 413.156 14.45C413.389 15.0833 413.689 15.6 414.056 16C414.422 16.4 414.839 16.6917 415.306 16.875C415.789 17.0583 416.281 17.15 416.781 17.15C417.281 17.15 417.756 17.0667 418.206 16.9C418.672 16.7167 419.081 16.425 419.431 16.025C419.797 15.625 420.081 15.1083 420.281 14.475C420.497 13.825 420.606 13.0417 420.606 12.125ZM429.029 0.124999C429.496 0.124999 429.987 0.191666 430.504 0.325C431.021 0.441666 431.471 0.608332 431.854 0.824999L431.579 1.775C431.212 1.59167 430.829 1.45 430.429 1.35C430.029 1.23333 429.671 1.175 429.354 1.175C428.521 1.175 427.887 1.40833 427.454 1.875C427.037 2.325 426.829 3.11667 426.829 4.25V6.25H430.854V7.25H426.829V18H425.529V7.25H423.379V6.25H425.529V4C425.529 2.7 425.837 1.73333 426.454 1.1C427.071 0.449999 427.929 0.124999 429.029 0.124999ZM441.274 12.125H432.899V12.475C432.899 13.9417 433.291 15.0917 434.074 15.925C434.874 16.7417 435.957 17.15 437.324 17.15C438.407 17.15 439.424 16.9667 440.374 16.6L440.674 17.6C440.241 17.7833 439.716 17.925 439.099 18.025C438.499 18.1417 437.882 18.2 437.249 18.2C436.466 18.2 435.724 18.0833 435.024 17.85C434.341 17.6167 433.741 17.2583 433.224 16.775C432.707 16.275 432.299 15.65 431.999 14.9C431.699 14.1333 431.549 13.2167 431.549 12.15C431.549 11.2333 431.674 10.4 431.924 9.65C432.174 8.9 432.532 8.26667 432.999 7.75C433.466 7.21667 434.016 6.80833 434.649 6.525C435.282 6.24167 435.991 6.1 436.774 6.1C437.441 6.1 438.049 6.225 438.599 6.475C439.166 6.70833 439.641 7.05 440.024 7.5C440.424 7.95 440.732 8.49167 440.949 9.125C441.166 9.75833 441.274 10.4583 441.274 11.225V12.125ZM439.924 11.075C439.924 10.5917 439.866 10.1167 439.749 9.65C439.632 9.16667 439.441 8.74167 439.174 8.375C438.924 8.00833 438.591 7.71667 438.174 7.5C437.774 7.26667 437.282 7.15 436.699 7.15C435.682 7.15 434.832 7.49167 434.149 8.175C433.482 8.85833 433.082 9.825 432.949 11.075H439.924ZM450.24 7.725C449.407 7.34167 448.499 7.15 447.515 7.15C446.615 7.15 445.94 7.34167 445.49 7.725C445.04 8.09167 444.815 8.56667 444.815 9.15C444.815 9.73333 445.007 10.1833 445.39 10.5C445.774 10.8 446.449 11.0917 447.415 11.375L448.165 11.6C449.115 11.8833 449.84 12.3 450.34 12.85C450.84 13.4 451.09 14.075 451.09 14.875C451.09 15.3417 450.999 15.7833 450.815 16.2C450.632 16.6 450.365 16.95 450.015 17.25C449.665 17.55 449.224 17.7833 448.69 17.95C448.174 18.1167 447.574 18.2 446.89 18.2C446.14 18.2 445.482 18.1333 444.915 18C444.349 17.8833 443.849 17.725 443.415 17.525L443.765 16.5C444.199 16.7167 444.649 16.8833 445.115 17C445.582 17.1 446.132 17.15 446.765 17.15C447.715 17.15 448.449 16.9667 448.965 16.6C449.482 16.2333 449.74 15.7083 449.74 15.025C449.74 14.4917 449.549 14.0333 449.165 13.65C448.799 13.25 448.14 12.9 447.19 12.6L446.39 12.35C444.44 11.7333 443.465 10.7083 443.465 9.275C443.465 8.80833 443.557 8.38333 443.74 8C443.94 7.6 444.207 7.26667 444.54 7C444.89 6.71667 445.299 6.5 445.765 6.35C446.249 6.18333 446.782 6.1 447.365 6.1C447.899 6.1 448.449 6.14167 449.015 6.225C449.582 6.30833 450.099 6.46667 450.565 6.7L450.24 7.725ZM460.104 7.725C459.27 7.34167 458.362 7.15 457.379 7.15C456.479 7.15 455.804 7.34167 455.354 7.725C454.904 8.09167 454.679 8.56667 454.679 9.15C454.679 9.73333 454.87 10.1833 455.254 10.5C455.637 10.8 456.312 11.0917 457.279 11.375L458.029 11.6C458.979 11.8833 459.704 12.3 460.204 12.85C460.704 13.4 460.954 14.075 460.954 14.875C460.954 15.3417 460.862 15.7833 460.679 16.2C460.495 16.6 460.229 16.95 459.879 17.25C459.529 17.55 459.087 17.7833 458.554 17.95C458.037 18.1167 457.437 18.2 456.754 18.2C456.004 18.2 455.345 18.1333 454.779 18C454.212 17.8833 453.712 17.725 453.279 17.525L453.629 16.5C454.062 16.7167 454.512 16.8833 454.979 17C455.445 17.1 455.995 17.15 456.629 17.15C457.579 17.15 458.312 16.9667 458.829 16.6C459.345 16.2333 459.604 15.7083 459.604 15.025C459.604 14.4917 459.412 14.0333 459.029 13.65C458.662 13.25 458.004 12.9 457.054 12.6L456.254 12.35C454.304 11.7333 453.329 10.7083 453.329 9.275C453.329 8.80833 453.42 8.38333 453.604 8C453.804 7.6 454.07 7.26667 454.404 7C454.754 6.71667 455.162 6.5 455.629 6.35C456.112 6.18333 456.645 6.1 457.229 6.1C457.762 6.1 458.312 6.14167 458.879 6.225C459.445 6.30833 459.962 6.46667 460.429 6.7L460.104 7.725ZM464.042 18V6.25H465.342V18H464.042ZM464.717 3.225C464.45 3.225 464.217 3.14167 464.017 2.975C463.834 2.79167 463.742 2.54167 463.742 2.225C463.742 1.89167 463.834 1.63333 464.017 1.45C464.2 1.26667 464.425 1.175 464.692 1.175C464.942 1.175 465.159 1.26667 465.342 1.45C465.542 1.61667 465.642 1.875 465.642 2.225C465.642 2.55833 465.55 2.80833 465.367 2.975C465.184 3.14167 464.967 3.225 464.717 3.225ZM478.865 12C478.865 12.9833 478.732 13.8667 478.465 14.65C478.198 15.4167 477.823 16.0667 477.34 16.6C476.873 17.1167 476.323 17.5167 475.69 17.8C475.057 18.0667 474.365 18.2 473.615 18.2C472.882 18.2 472.19 18.075 471.54 17.825C470.907 17.5583 470.357 17.175 469.89 16.675C469.423 16.175 469.057 15.5583 468.79 14.825C468.523 14.075 468.39 13.2167 468.39 12.25C468.39 11.2667 468.523 10.3917 468.79 9.625C469.073 8.85833 469.457 8.21667 469.94 7.7C470.423 7.16667 470.99 6.76667 471.64 6.5C472.29 6.23333 472.982 6.1 473.715 6.1C474.448 6.1 475.132 6.225 475.765 6.475C476.398 6.725 476.94 7.1 477.39 7.6C477.857 8.1 478.215 8.71667 478.465 9.45C478.732 10.1833 478.865 11.0333 478.865 12ZM477.515 12.125C477.515 11.2583 477.407 10.5167 477.19 9.9C476.973 9.26667 476.682 8.75 476.315 8.35C475.965 7.93333 475.557 7.63333 475.09 7.45C474.623 7.25 474.14 7.15 473.64 7.15C473.14 7.15 472.657 7.25 472.19 7.45C471.723 7.63333 471.307 7.93333 470.94 8.35C470.573 8.75 470.282 9.26667 470.065 9.9C469.848 10.5167 469.74 11.2583 469.74 12.125C469.74 13.0417 469.848 13.8167 470.065 14.45C470.298 15.0833 470.598 15.6 470.965 16C471.332 16.4 471.748 16.6917 472.215 16.875C472.698 17.0583 473.19 17.15 473.69 17.15C474.19 17.15 474.665 17.0667 475.115 16.9C475.582 16.7167 475.99 16.425 476.34 16.025C476.707 15.625 476.99 15.1083 477.19 14.475C477.407 13.825 477.515 13.0417 477.515 12.125ZM483.113 18H481.813V6.25H482.763L482.963 7.875C483.53 7.34167 484.138 6.91667 484.788 6.6C485.455 6.26667 486.205 6.1 487.038 6.1C488.238 6.1 489.171 6.43333 489.838 7.1C490.521 7.76667 490.863 8.7 490.863 9.9V18H489.563V10.225C489.563 9.79167 489.513 9.39167 489.413 9.025C489.33 8.64167 489.171 8.31667 488.938 8.05C488.721 7.76667 488.421 7.55 488.038 7.4C487.671 7.23333 487.213 7.15 486.663 7.15C486.03 7.15 485.396 7.31667 484.763 7.65C484.146 7.96667 483.596 8.4 483.113 8.95V18ZM494.331 7.275C495.114 6.85833 495.831 6.55833 496.481 6.375C497.148 6.19167 497.856 6.1 498.606 6.1C499.139 6.1 499.639 6.175 500.106 6.325C500.589 6.475 501.006 6.71667 501.356 7.05C501.723 7.38333 502.006 7.825 502.206 8.375C502.423 8.90833 502.531 9.56667 502.531 10.35V18H501.631L501.356 16.45H501.306C500.823 17.0333 500.256 17.475 499.606 17.775C498.956 18.0583 498.231 18.2 497.431 18.2C496.881 18.2 496.373 18.125 495.906 17.975C495.439 17.8083 495.031 17.575 494.681 17.275C494.348 16.975 494.081 16.6167 493.881 16.2C493.698 15.7667 493.606 15.2917 493.606 14.775C493.606 14.1583 493.731 13.6167 493.981 13.15C494.231 12.6833 494.581 12.3 495.031 12C495.481 11.6833 496.014 11.45 496.631 11.3C497.264 11.15 497.964 11.075 498.731 11.075H501.231V10.3C501.231 9.16667 500.981 8.35833 500.481 7.875C499.981 7.39167 499.331 7.15 498.531 7.15C498.048 7.15 497.489 7.225 496.856 7.375C496.223 7.525 495.548 7.8 494.831 8.2L494.331 7.275ZM501.231 12.1L499.156 12.125C498.406 12.1417 497.764 12.225 497.231 12.375C496.698 12.5083 496.256 12.6917 495.906 12.925C495.573 13.1417 495.331 13.4083 495.181 13.725C495.031 14.025 494.956 14.35 494.956 14.7C494.956 15.1333 495.031 15.5083 495.181 15.825C495.331 16.125 495.531 16.375 495.781 16.575C496.031 16.775 496.323 16.925 496.656 17.025C497.006 17.1083 497.373 17.15 497.756 17.15C498.056 17.15 498.364 17.1167 498.681 17.05C498.998 16.9667 499.306 16.85 499.606 16.7C499.923 16.5333 500.223 16.3333 500.506 16.1C500.789 15.85 501.031 15.55 501.231 15.2V12.1ZM506.181 18V0.249999H507.481V18H506.181ZM517.404 7.725C516.57 7.34167 515.662 7.15 514.679 7.15C513.779 7.15 513.104 7.34167 512.654 7.725C512.204 8.09167 511.979 8.56667 511.979 9.15C511.979 9.73333 512.17 10.1833 512.554 10.5C512.937 10.8 513.612 11.0917 514.579 11.375L515.329 11.6C516.279 11.8833 517.004 12.3 517.504 12.85C518.004 13.4 518.254 14.075 518.254 14.875C518.254 15.3417 518.162 15.7833 517.979 16.2C517.795 16.6 517.529 16.95 517.179 17.25C516.829 17.55 516.387 17.7833 515.854 17.95C515.337 18.1167 514.737 18.2 514.054 18.2C513.304 18.2 512.645 18.1333 512.079 18C511.512 17.8833 511.012 17.725 510.579 17.525L510.929 16.5C511.362 16.7167 511.812 16.8833 512.279 17C512.745 17.1 513.295 17.15 513.929 17.15C514.879 17.15 515.612 16.9667 516.129 16.6C516.645 16.2333 516.904 15.7083 516.904 15.025C516.904 14.4917 516.712 14.0333 516.329 13.65C515.962 13.25 515.304 12.9 514.354 12.6L513.554 12.35C511.604 11.7333 510.629 10.7083 510.629 9.275C510.629 8.80833 510.72 8.38333 510.904 8C511.104 7.6 511.37 7.26667 511.704 7C512.054 6.71667 512.462 6.5 512.929 6.35C513.412 6.18333 513.945 6.1 514.529 6.1C515.062 6.1 515.612 6.14167 516.179 6.225C516.745 6.30833 517.262 6.46667 517.729 6.7L517.404 7.725ZM532.466 7.25H528.516V14.95C528.516 15.7333 528.691 16.2667 529.041 16.55C529.391 16.8167 529.874 16.95 530.491 16.95C530.974 16.95 531.424 16.9083 531.841 16.825C532.257 16.725 532.607 16.625 532.891 16.525L533.091 17.5C532.757 17.6333 532.349 17.75 531.866 17.85C531.382 17.95 530.849 18 530.266 18C529.266 18 528.507 17.7667 527.991 17.3C527.474 16.8167 527.216 16.0917 527.216 15.125V7.25H525.091V6.25H527.216V2.5H528.516V6.25H532.466V7.25ZM545.076 12C545.076 12.9833 544.942 13.8667 544.676 14.65C544.409 15.4167 544.034 16.0667 543.551 16.6C543.084 17.1167 542.534 17.5167 541.901 17.8C541.267 18.0667 540.576 18.2 539.826 18.2C539.092 18.2 538.401 18.075 537.751 17.825C537.117 17.5583 536.567 17.175 536.101 16.675C535.634 16.175 535.267 15.5583 535.001 14.825C534.734 14.075 534.601 13.2167 534.601 12.25C534.601 11.2667 534.734 10.3917 535.001 9.625C535.284 8.85833 535.667 8.21667 536.151 7.7C536.634 7.16667 537.201 6.76667 537.851 6.5C538.501 6.23333 539.192 6.1 539.926 6.1C540.659 6.1 541.342 6.225 541.976 6.475C542.609 6.725 543.151 7.1 543.601 7.6C544.067 8.1 544.426 8.71667 544.676 9.45C544.942 10.1833 545.076 11.0333 545.076 12ZM543.726 12.125C543.726 11.2583 543.617 10.5167 543.401 9.9C543.184 9.26667 542.892 8.75 542.526 8.35C542.176 7.93333 541.767 7.63333 541.301 7.45C540.834 7.25 540.351 7.15 539.851 7.15C539.351 7.15 538.867 7.25 538.401 7.45C537.934 7.63333 537.517 7.93333 537.151 8.35C536.784 8.75 536.492 9.26667 536.276 9.9C536.059 10.5167 535.951 11.2583 535.951 12.125C535.951 13.0417 536.059 13.8167 536.276 14.45C536.509 15.0833 536.809 15.6 537.176 16C537.542 16.4 537.959 16.6917 538.426 16.875C538.909 17.0583 539.401 17.15 539.901 17.15C540.401 17.15 540.876 17.0667 541.326 16.9C541.792 16.7167 542.201 16.425 542.551 16.025C542.917 15.625 543.201 15.1083 543.401 14.475C543.617 13.825 543.726 13.0417 543.726 12.125ZM553.373 18V6.25H554.673V18H553.373ZM554.048 3.225C553.781 3.225 553.548 3.14167 553.348 2.975C553.165 2.79167 553.073 2.54167 553.073 2.225C553.073 1.89167 553.165 1.63333 553.348 1.45C553.531 1.26667 553.756 1.175 554.023 1.175C554.273 1.175 554.49 1.26667 554.673 1.45C554.873 1.61667 554.973 1.875 554.973 2.225C554.973 2.55833 554.881 2.80833 554.698 2.975C554.515 3.14167 554.298 3.225 554.048 3.225ZM559.871 18H558.571V6.25H559.521L559.721 7.875C560.288 7.34167 560.896 6.91667 561.546 6.6C562.213 6.26667 562.963 6.1 563.796 6.1C564.996 6.1 565.929 6.43333 566.596 7.1C567.279 7.76667 567.621 8.7 567.621 9.9V18H566.321V10.225C566.321 9.79167 566.271 9.39167 566.171 9.025C566.088 8.64167 565.929 8.31667 565.696 8.05C565.479 7.76667 565.179 7.55 564.796 7.4C564.429 7.23333 563.971 7.15 563.421 7.15C562.788 7.15 562.154 7.31667 561.521 7.65C560.904 7.96667 560.354 8.4 559.871 8.95V18ZM577.438 7.725C576.604 7.34167 575.696 7.15 574.713 7.15C573.813 7.15 573.138 7.34167 572.688 7.725C572.238 8.09167 572.013 8.56667 572.013 9.15C572.013 9.73333 572.204 10.1833 572.588 10.5C572.971 10.8 573.646 11.0917 574.613 11.375L575.363 11.6C576.313 11.8833 577.038 12.3 577.538 12.85C578.038 13.4 578.288 14.075 578.288 14.875C578.288 15.3417 578.196 15.7833 578.013 16.2C577.829 16.6 577.563 16.95 577.213 17.25C576.863 17.55 576.421 17.7833 575.888 17.95C575.371 18.1167 574.771 18.2 574.088 18.2C573.338 18.2 572.679 18.1333 572.113 18C571.546 17.8833 571.046 17.725 570.613 17.525L570.963 16.5C571.396 16.7167 571.846 16.8833 572.313 17C572.779 17.1 573.329 17.15 573.963 17.15C574.913 17.15 575.646 16.9667 576.163 16.6C576.679 16.2333 576.938 15.7083 576.938 15.025C576.938 14.4917 576.746 14.0333 576.363 13.65C575.996 13.25 575.338 12.9 574.388 12.6L573.588 12.35C571.638 11.7333 570.663 10.7083 570.663 9.275C570.663 8.80833 570.754 8.38333 570.938 8C571.138 7.6 571.404 7.26667 571.738 7C572.088 6.71667 572.496 6.5 572.963 6.35C573.446 6.18333 573.979 6.1 574.563 6.1C575.096 6.1 575.646 6.14167 576.213 6.225C576.779 6.30833 577.296 6.46667 577.763 6.7L577.438 7.725ZM587.251 7.25H583.301V14.95C583.301 15.7333 583.476 16.2667 583.826 16.55C584.176 16.8167 584.659 16.95 585.276 16.95C585.759 16.95 586.209 16.9083 586.626 16.825C587.043 16.725 587.393 16.625 587.676 16.525L587.876 17.5C587.543 17.6333 587.134 17.75 586.651 17.85C586.168 17.95 585.634 18 585.051 18C584.051 18 583.293 17.7667 582.776 17.3C582.259 16.8167 582.001 16.0917 582.001 15.125V7.25H579.876V6.25H582.001V2.5H583.301V6.25H587.251V7.25ZM589.961 7.275C590.744 6.85833 591.461 6.55833 592.111 6.375C592.778 6.19167 593.486 6.1 594.236 6.1C594.769 6.1 595.269 6.175 595.736 6.325C596.219 6.475 596.636 6.71667 596.986 7.05C597.353 7.38333 597.636 7.825 597.836 8.375C598.053 8.90833 598.161 9.56667 598.161 10.35V18H597.261L596.986 16.45H596.936C596.453 17.0333 595.886 17.475 595.236 17.775C594.586 18.0583 593.861 18.2 593.061 18.2C592.511 18.2 592.003 18.125 591.536 17.975C591.069 17.8083 590.661 17.575 590.311 17.275C589.978 16.975 589.711 16.6167 589.511 16.2C589.328 15.7667 589.236 15.2917 589.236 14.775C589.236 14.1583 589.361 13.6167 589.611 13.15C589.861 12.6833 590.211 12.3 590.661 12C591.111 11.6833 591.644 11.45 592.261 11.3C592.894 11.15 593.594 11.075 594.361 11.075H596.861V10.3C596.861 9.16667 596.611 8.35833 596.111 7.875C595.611 7.39167 594.961 7.15 594.161 7.15C593.678 7.15 593.119 7.225 592.486 7.375C591.853 7.525 591.178 7.8 590.461 8.2L589.961 7.275ZM596.861 12.1L594.786 12.125C594.036 12.1417 593.394 12.225 592.861 12.375C592.328 12.5083 591.886 12.6917 591.536 12.925C591.203 13.1417 590.961 13.4083 590.811 13.725C590.661 14.025 590.586 14.35 590.586 14.7C590.586 15.1333 590.661 15.5083 590.811 15.825C590.961 16.125 591.161 16.375 591.411 16.575C591.661 16.775 591.953 16.925 592.286 17.025C592.636 17.1083 593.003 17.15 593.386 17.15C593.686 17.15 593.994 17.1167 594.311 17.05C594.628 16.9667 594.936 16.85 595.236 16.7C595.553 16.5333 595.853 16.3333 596.136 16.1C596.419 15.85 596.661 15.55 596.861 15.2V12.1ZM603.011 18H601.711V6.25H602.661L602.861 7.875C603.427 7.34167 604.036 6.91667 604.686 6.6C605.352 6.26667 606.102 6.1 606.936 6.1C608.136 6.1 609.069 6.43333 609.736 7.1C610.419 7.76667 610.761 8.7 610.761 9.9V18H609.461V10.225C609.461 9.79167 609.411 9.39167 609.311 9.025C609.227 8.64167 609.069 8.31667 608.836 8.05C608.619 7.76667 608.319 7.55 607.936 7.4C607.569 7.23333 607.111 7.15 606.561 7.15C605.927 7.15 605.294 7.31667 604.661 7.65C604.044 7.96667 603.494 8.4 603.011 8.95V18ZM620.527 7.25H616.577V14.95C616.577 15.7333 616.752 16.2667 617.102 16.55C617.452 16.8167 617.936 16.95 618.552 16.95C619.036 16.95 619.486 16.9083 619.902 16.825C620.319 16.725 620.669 16.625 620.952 16.525L621.152 17.5C620.819 17.6333 620.411 17.75 619.927 17.85C619.444 17.95 618.911 18 618.327 18C617.327 18 616.569 17.7667 616.052 17.3C615.536 16.8167 615.277 16.0917 615.277 15.125V7.25H613.152V6.25H615.277V2.5H616.577V6.25H620.527V7.25ZM623.612 18V0.249999H624.912V18H623.612ZM627.21 6.25H628.56L631.61 14.05L632.51 16.7H632.56L633.335 14.05L636.085 6.25H637.335L632.81 19C632.36 20.2667 631.785 21.2833 631.085 22.05C630.385 22.8167 629.543 23.3917 628.56 23.775L628.035 22.825C628.885 22.475 629.61 21.9917 630.21 21.375C630.81 20.7583 631.31 19.8583 631.71 18.675L631.935 18L627.21 6.25ZM644.453 7.275C645.236 6.85833 645.953 6.55833 646.603 6.375C647.27 6.19167 647.978 6.1 648.728 6.1C649.261 6.1 649.761 6.175 650.228 6.325C650.711 6.475 651.128 6.71667 651.478 7.05C651.845 7.38333 652.128 7.825 652.328 8.375C652.545 8.90833 652.653 9.56667 652.653 10.35V18H651.753L651.478 16.45H651.428C650.945 17.0333 650.378 17.475 649.728 17.775C649.078 18.0583 648.353 18.2 647.553 18.2C647.003 18.2 646.495 18.125 646.028 17.975C645.561 17.8083 645.153 17.575 644.803 17.275C644.47 16.975 644.203 16.6167 644.003 16.2C643.82 15.7667 643.728 15.2917 643.728 14.775C643.728 14.1583 643.853 13.6167 644.103 13.15C644.353 12.6833 644.703 12.3 645.153 12C645.603 11.6833 646.136 11.45 646.753 11.3C647.386 11.15 648.086 11.075 648.853 11.075H651.353V10.3C651.353 9.16667 651.103 8.35833 650.603 7.875C650.103 7.39167 649.453 7.15 648.653 7.15C648.17 7.15 647.611 7.225 646.978 7.375C646.345 7.525 645.67 7.8 644.953 8.2L644.453 7.275ZM651.353 12.1L649.278 12.125C648.528 12.1417 647.886 12.225 647.353 12.375C646.82 12.5083 646.378 12.6917 646.028 12.925C645.695 13.1417 645.453 13.4083 645.303 13.725C645.153 14.025 645.078 14.35 645.078 14.7C645.078 15.1333 645.153 15.5083 645.303 15.825C645.453 16.125 645.653 16.375 645.903 16.575C646.153 16.775 646.445 16.925 646.778 17.025C647.128 17.1083 647.495 17.15 647.878 17.15C648.178 17.15 648.486 17.1167 648.803 17.05C649.12 16.9667 649.428 16.85 649.728 16.7C650.045 16.5333 650.345 16.3333 650.628 16.1C650.911 15.85 651.153 15.55 651.353 15.2V12.1ZM657.503 18H656.203V6.25H657.153L657.353 7.875C657.919 7.34167 658.528 6.91667 659.178 6.6C659.844 6.26667 660.594 6.1 661.428 6.1C662.628 6.1 663.561 6.43333 664.228 7.1C664.911 7.76667 665.253 8.7 665.253 9.9V18H663.953V10.225C663.953 9.79167 663.903 9.39167 663.803 9.025C663.719 8.64167 663.561 8.31667 663.328 8.05C663.111 7.76667 662.811 7.55 662.428 7.4C662.061 7.23333 661.603 7.15 661.053 7.15C660.419 7.15 659.786 7.31667 659.153 7.65C658.536 7.96667 657.986 8.4 657.503 8.95V18ZM675.07 7.725C674.236 7.34167 673.328 7.15 672.345 7.15C671.445 7.15 670.77 7.34167 670.32 7.725C669.87 8.09167 669.645 8.56667 669.645 9.15C669.645 9.73333 669.836 10.1833 670.22 10.5C670.603 10.8 671.278 11.0917 672.245 11.375L672.995 11.6C673.945 11.8833 674.67 12.3 675.17 12.85C675.67 13.4 675.92 14.075 675.92 14.875C675.92 15.3417 675.828 15.7833 675.645 16.2C675.461 16.6 675.195 16.95 674.845 17.25C674.495 17.55 674.053 17.7833 673.52 17.95C673.003 18.1167 672.403 18.2 671.72 18.2C670.97 18.2 670.311 18.1333 669.745 18C669.178 17.8833 668.678 17.725 668.245 17.525L668.595 16.5C669.028 16.7167 669.478 16.8833 669.945 17C670.411 17.1 670.961 17.15 671.595 17.15C672.545 17.15 673.278 16.9667 673.795 16.6C674.311 16.2333 674.57 15.7083 674.57 15.025C674.57 14.4917 674.378 14.0333 673.995 13.65C673.628 13.25 672.97 12.9 672.02 12.6L671.22 12.35C669.27 11.7333 668.295 10.7083 668.295 9.275C668.295 8.80833 668.386 8.38333 668.57 8C668.77 7.6 669.036 7.26667 669.37 7C669.72 6.71667 670.128 6.5 670.595 6.35C671.078 6.18333 671.611 6.1 672.195 6.1C672.728 6.1 673.278 6.14167 673.845 6.225C674.411 6.30833 674.928 6.46667 675.395 6.7L675.07 7.725ZM677.283 6.25H678.583L680.633 13.65L681.358 16.9H681.408L682.233 13.65L684.508 6.25H685.883L688.083 13.65L688.933 16.9H688.983L689.808 13.65L691.833 6.25H693.083L689.758 18H688.258L686.008 10.3L685.183 7.15L684.333 10.3L682.033 18H680.658L677.283 6.25ZM704.091 12.125H695.716V12.475C695.716 13.9417 696.108 15.0917 696.891 15.925C697.691 16.7417 698.775 17.15 700.141 17.15C701.225 17.15 702.241 16.9667 703.191 16.6L703.491 17.6C703.058 17.7833 702.533 17.925 701.916 18.025C701.316 18.1417 700.7 18.2 700.066 18.2C699.283 18.2 698.541 18.0833 697.841 17.85C697.158 17.6167 696.558 17.2583 696.041 16.775C695.525 16.275 695.116 15.65 694.816 14.9C694.516 14.1333 694.366 13.2167 694.366 12.15C694.366 11.2333 694.491 10.4 694.741 9.65C694.991 8.9 695.35 8.26667 695.816 7.75C696.283 7.21667 696.833 6.80833 697.466 6.525C698.1 6.24167 698.808 6.1 699.591 6.1C700.258 6.1 700.866 6.225 701.416 6.475C701.983 6.70833 702.458 7.05 702.841 7.5C703.241 7.95 703.55 8.49167 703.766 9.125C703.983 9.75833 704.091 10.4583 704.091 11.225V12.125ZM702.741 11.075C702.741 10.5917 702.683 10.1167 702.566 9.65C702.45 9.16667 702.258 8.74167 701.991 8.375C701.741 8.00833 701.408 7.71667 700.991 7.5C700.591 7.26667 700.1 7.15 699.516 7.15C698.5 7.15 697.65 7.49167 696.966 8.175C696.3 8.85833 695.9 9.825 695.766 11.075H702.741ZM706.983 18V6.25H707.833L708.133 8.6C708.416 7.85 708.899 7.25 709.583 6.8C710.266 6.33333 711.033 6.1 711.883 6.1C712.283 6.1 712.633 6.13333 712.933 6.2C713.233 6.26667 713.466 6.34167 713.633 6.425L713.383 7.575C713.183 7.49167 712.958 7.41667 712.708 7.35C712.458 7.28333 712.166 7.25 711.833 7.25C711.349 7.25 710.891 7.33333 710.458 7.5C710.041 7.66667 709.666 7.925 709.333 8.275C709.016 8.625 708.758 9.06667 708.558 9.6C708.374 10.1167 708.283 10.7333 708.283 11.45V18H706.983ZM728.795 17.125C728.378 17.5083 727.903 17.7833 727.37 17.95C726.836 18.1167 726.236 18.2 725.57 18.2C724.736 18.2 723.986 18.0583 723.32 17.775C722.67 17.4917 722.12 17.0833 721.67 16.55C721.22 16.0167 720.87 15.3833 720.62 14.65C720.386 13.9 720.27 13.0583 720.27 12.125C720.27 11.2583 720.386 10.4583 720.62 9.725C720.853 8.99167 721.195 8.35833 721.645 7.825C722.095 7.275 722.645 6.85 723.295 6.55C723.945 6.25 724.695 6.1 725.545 6.1C726.245 6.1 726.886 6.225 727.47 6.475C728.053 6.70833 728.536 7.04167 728.92 7.475L729.095 6.25H730.095V23.75H728.795V17.125ZM728.795 8.575C728.495 8.20833 728.095 7.88333 727.595 7.6C727.111 7.3 726.495 7.15 725.745 7.15C725.178 7.15 724.645 7.25 724.145 7.45C723.645 7.63333 723.203 7.925 722.82 8.325C722.453 8.725 722.161 9.23333 721.945 9.85C721.728 10.4667 721.62 11.2 721.62 12.05C721.62 13.7833 722.003 15.0667 722.77 15.9C723.553 16.7333 724.586 17.15 725.87 17.15C726.536 17.15 727.12 17.025 727.62 16.775C728.12 16.5083 728.511 16.2 728.795 15.85V8.575ZM741.861 6.25H743.161V18H742.236L742.036 16.525H741.986C741.586 16.9583 741.053 17.35 740.386 17.7C739.719 18.0333 738.936 18.2 738.036 18.2C736.819 18.2 735.836 17.875 735.086 17.225C734.353 16.5583 733.986 15.525 733.986 14.125V6.25H735.286V13.85C735.286 14.5 735.361 15.0417 735.511 15.475C735.661 15.8917 735.869 16.225 736.136 16.475C736.403 16.725 736.719 16.9 737.086 17C737.469 17.1 737.878 17.15 738.311 17.15C739.061 17.15 739.753 16.975 740.386 16.625C741.036 16.275 741.528 15.8583 741.861 15.375V6.25ZM755.825 12.125H747.45V12.475C747.45 13.9417 747.841 15.0917 748.625 15.925C749.425 16.7417 750.508 17.15 751.875 17.15C752.958 17.15 753.975 16.9667 754.925 16.6L755.225 17.6C754.791 17.7833 754.266 17.925 753.65 18.025C753.05 18.1417 752.433 18.2 751.8 18.2C751.016 18.2 750.275 18.0833 749.575 17.85C748.891 17.6167 748.291 17.2583 747.775 16.775C747.258 16.275 746.85 15.65 746.55 14.9C746.25 14.1333 746.1 13.2167 746.1 12.15C746.1 11.2333 746.225 10.4 746.475 9.65C746.725 8.9 747.083 8.26667 747.55 7.75C748.016 7.21667 748.566 6.80833 749.2 6.525C749.833 6.24167 750.541 6.1 751.325 6.1C751.991 6.1 752.6 6.225 753.15 6.475C753.716 6.70833 754.191 7.05 754.575 7.5C754.975 7.95 755.283 8.49167 755.5 9.125C755.716 9.75833 755.825 10.4583 755.825 11.225V12.125ZM754.475 11.075C754.475 10.5917 754.416 10.1167 754.3 9.65C754.183 9.16667 753.991 8.74167 753.725 8.375C753.475 8.00833 753.141 7.71667 752.725 7.5C752.325 7.26667 751.833 7.15 751.25 7.15C750.233 7.15 749.383 7.49167 748.7 8.175C748.033 8.85833 747.633 9.825 747.5 11.075H754.475ZM764.791 7.725C763.958 7.34167 763.05 7.15 762.066 7.15C761.166 7.15 760.491 7.34167 760.041 7.725C759.591 8.09167 759.366 8.56667 759.366 9.15C759.366 9.73333 759.558 10.1833 759.941 10.5C760.325 10.8 761 11.0917 761.966 11.375L762.716 11.6C763.666 11.8833 764.391 12.3 764.891 12.85C765.391 13.4 765.641 14.075 765.641 14.875C765.641 15.3417 765.55 15.7833 765.366 16.2C765.183 16.6 764.916 16.95 764.566 17.25C764.216 17.55 763.775 17.7833 763.241 17.95C762.725 18.1167 762.125 18.2 761.441 18.2C760.691 18.2 760.033 18.1333 759.466 18C758.9 17.8833 758.4 17.725 757.966 17.525L758.316 16.5C758.75 16.7167 759.2 16.8833 759.666 17C760.133 17.1 760.683 17.15 761.316 17.15C762.266 17.15 763 16.9667 763.516 16.6C764.033 16.2333 764.291 15.7083 764.291 15.025C764.291 14.4917 764.1 14.0333 763.716 13.65C763.35 13.25 762.691 12.9 761.741 12.6L760.941 12.35C758.991 11.7333 758.016 10.7083 758.016 9.275C758.016 8.80833 758.108 8.38333 758.291 8C758.491 7.6 758.758 7.26667 759.091 7C759.441 6.71667 759.85 6.5 760.316 6.35C760.8 6.18333 761.333 6.1 761.916 6.1C762.45 6.1 763 6.14167 763.566 6.225C764.133 6.30833 764.65 6.46667 765.116 6.7L764.791 7.725ZM774.604 7.25H770.654V14.95C770.654 15.7333 770.829 16.2667 771.179 16.55C771.529 16.8167 772.013 16.95 772.629 16.95C773.113 16.95 773.563 16.9083 773.979 16.825C774.396 16.725 774.746 16.625 775.029 16.525L775.229 17.5C774.896 17.6333 774.488 17.75 774.004 17.85C773.521 17.95 772.988 18 772.404 18C771.404 18 770.646 17.7667 770.129 17.3C769.613 16.8167 769.354 16.0917 769.354 15.125V7.25H767.229V6.25H769.354V2.5H770.654V6.25H774.604V7.25ZM777.689 18V6.25H778.989V18H777.689ZM778.364 3.225C778.098 3.225 777.864 3.14167 777.664 2.975C777.481 2.79167 777.389 2.54167 777.389 2.225C777.389 1.89167 777.481 1.63333 777.664 1.45C777.848 1.26667 778.073 1.175 778.339 1.175C778.589 1.175 778.806 1.26667 778.989 1.45C779.189 1.61667 779.289 1.875 779.289 2.225C779.289 2.55833 779.198 2.80833 779.014 2.975C778.831 3.14167 778.614 3.225 778.364 3.225ZM792.512 12C792.512 12.9833 792.379 13.8667 792.112 14.65C791.846 15.4167 791.471 16.0667 790.987 16.6C790.521 17.1167 789.971 17.5167 789.337 17.8C788.704 18.0667 788.012 18.2 787.262 18.2C786.529 18.2 785.837 18.075 785.187 17.825C784.554 17.5583 784.004 17.175 783.537 16.675C783.071 16.175 782.704 15.5583 782.437 14.825C782.171 14.075 782.037 13.2167 782.037 12.25C782.037 11.2667 782.171 10.3917 782.437 9.625C782.721 8.85833 783.104 8.21667 783.587 7.7C784.071 7.16667 784.637 6.76667 785.287 6.5C785.937 6.23333 786.629 6.1 787.362 6.1C788.096 6.1 788.779 6.225 789.412 6.475C790.046 6.725 790.587 7.1 791.037 7.6C791.504 8.1 791.862 8.71667 792.112 9.45C792.379 10.1833 792.512 11.0333 792.512 12ZM791.162 12.125C791.162 11.2583 791.054 10.5167 790.837 9.9C790.621 9.26667 790.329 8.75 789.962 8.35C789.612 7.93333 789.204 7.63333 788.737 7.45C788.271 7.25 787.787 7.15 787.287 7.15C786.787 7.15 786.304 7.25 785.837 7.45C785.371 7.63333 784.954 7.93333 784.587 8.35C784.221 8.75 783.929 9.26667 783.712 9.9C783.496 10.5167 783.387 11.2583 783.387 12.125C783.387 13.0417 783.496 13.8167 783.712 14.45C783.946 15.0833 784.246 15.6 784.612 16C784.979 16.4 785.396 16.6917 785.862 16.875C786.346 17.0583 786.837 17.15 787.337 17.15C787.837 17.15 788.312 17.0667 788.762 16.9C789.229 16.7167 789.637 16.425 789.987 16.025C790.354 15.625 790.637 15.1083 790.837 14.475C791.054 13.825 791.162 13.0417 791.162 12.125ZM796.761 18H795.461V6.25H796.411L796.611 7.875C797.177 7.34167 797.786 6.91667 798.436 6.6C799.102 6.26667 799.852 6.1 800.686 6.1C801.886 6.1 802.819 6.43333 803.486 7.1C804.169 7.76667 804.511 8.7 804.511 9.9V18H803.211V10.225C803.211 9.79167 803.161 9.39167 803.061 9.025C802.977 8.64167 802.819 8.31667 802.586 8.05C802.369 7.76667 802.069 7.55 801.686 7.4C801.319 7.23333 800.861 7.15 800.311 7.15C799.677 7.15 799.044 7.31667 798.411 7.65C797.794 7.96667 797.244 8.4 796.761 8.95V18ZM814.327 7.725C813.494 7.34167 812.586 7.15 811.602 7.15C810.702 7.15 810.027 7.34167 809.577 7.725C809.127 8.09167 808.902 8.56667 808.902 9.15C808.902 9.73333 809.094 10.1833 809.477 10.5C809.861 10.8 810.536 11.0917 811.502 11.375L812.252 11.6C813.202 11.8833 813.927 12.3 814.427 12.85C814.927 13.4 815.177 14.075 815.177 14.875C815.177 15.3417 815.086 15.7833 814.902 16.2C814.719 16.6 814.452 16.95 814.102 17.25C813.752 17.55 813.311 17.7833 812.777 17.95C812.261 18.1167 811.661 18.2 810.977 18.2C810.227 18.2 809.569 18.1333 809.002 18C808.436 17.8833 807.936 17.725 807.502 17.525L807.852 16.5C808.286 16.7167 808.736 16.8833 809.202 17C809.669 17.1 810.219 17.15 810.852 17.15C811.802 17.15 812.536 16.9667 813.052 16.6C813.569 16.2333 813.827 15.7083 813.827 15.025C813.827 14.4917 813.636 14.0333 813.252 13.65C812.886 13.25 812.227 12.9 811.277 12.6L810.477 12.35C808.527 11.7333 807.552 10.7083 807.552 9.275C807.552 8.80833 807.644 8.38333 807.827 8C808.027 7.6 808.294 7.26667 808.627 7C808.977 6.71667 809.386 6.5 809.852 6.35C810.336 6.18333 810.869 6.1 811.452 6.1C811.986 6.1 812.536 6.14167 813.102 6.225C813.669 6.30833 814.186 6.46667 814.652 6.7L814.327 7.725ZM822.265 13.5C822.265 12.85 822.356 12.2833 822.54 11.8C822.723 11.3 822.99 10.8583 823.34 10.475C823.706 10.075 824.156 9.725 824.69 9.425C825.24 9.10833 825.865 8.81667 826.565 8.55C826.031 8.01667 825.565 7.44167 825.165 6.825C824.765 6.19167 824.565 5.475 824.565 4.675C824.565 4.125 824.673 3.64167 824.89 3.225C825.106 2.79167 825.398 2.43333 825.765 2.15C826.131 1.85 826.548 1.625 827.015 1.475C827.498 1.325 827.998 1.25 828.515 1.25C829.665 1.25 830.59 1.55833 831.29 2.175C832.006 2.79167 832.365 3.625 832.365 4.675C832.365 6.30833 831.448 7.56667 829.615 8.45L828.94 7.65C829.59 7.33333 830.098 6.95 830.465 6.5C830.831 6.05 831.015 5.475 831.015 4.775C831.015 4.075 830.79 3.49167 830.34 3.025C829.906 2.54167 829.273 2.3 828.44 2.3C827.54 2.3 826.89 2.54167 826.49 3.025C826.106 3.49167 825.915 4.03333 825.915 4.65C825.915 5.06667 825.973 5.45 826.09 5.8C826.206 6.13333 826.356 6.45 826.54 6.75C826.74 7.05 826.965 7.34167 827.215 7.625C827.465 7.89167 827.731 8.16667 828.015 8.45L833.44 14.025C833.556 13.8417 833.69 13.6167 833.84 13.35C833.99 13.0667 834.14 12.7583 834.29 12.425C834.44 12.075 834.581 11.7167 834.715 11.35C834.865 10.9667 834.998 10.5917 835.115 10.225L836.165 10.65C835.915 11.4333 835.606 12.1917 835.24 12.925C834.89 13.6583 834.548 14.2833 834.215 14.8L837.315 18H835.765L833.565 15.75C832.898 16.4833 832.115 17.075 831.215 17.525C830.331 17.975 829.223 18.2 827.89 18.2C827.073 18.2 826.315 18.0833 825.615 17.85C824.931 17.6 824.34 17.2667 823.84 16.85C823.34 16.4167 822.948 15.9167 822.665 15.35C822.398 14.7833 822.265 14.1667 822.265 13.5ZM823.615 13.45C823.615 14 823.723 14.5083 823.94 14.975C824.156 15.425 824.456 15.8167 824.84 16.15C825.24 16.4667 825.715 16.7167 826.265 16.9C826.815 17.0667 827.415 17.15 828.065 17.15C828.665 17.15 829.215 17.075 829.715 16.925C830.215 16.775 830.665 16.5917 831.065 16.375C831.465 16.1583 831.806 15.925 832.09 15.675C832.39 15.4083 832.623 15.1667 832.79 14.95L827.365 9.35C826.065 9.81667 825.115 10.375 824.515 11.025C823.915 11.675 823.615 12.4833 823.615 13.45ZM289.212 48.25H290.512V60H289.587L289.387 58.525H289.337C288.937 58.9583 288.404 59.35 287.737 59.7C287.07 60.0333 286.287 60.2 285.387 60.2C284.17 60.2 283.187 59.875 282.437 59.225C281.704 58.5583 281.337 57.525 281.337 56.125V48.25H282.637V55.85C282.637 56.5 282.712 57.0417 282.862 57.475C283.012 57.8917 283.22 58.225 283.487 58.475C283.754 58.725 284.07 58.9 284.437 59C284.82 59.1 285.229 59.15 285.662 59.15C286.412 59.15 287.104 58.975 287.737 58.625C288.387 58.275 288.879 57.8583 289.212 57.375V48.25ZM295.601 60H294.301V48.25H295.251L295.451 49.875C296.018 49.3417 296.626 48.9167 297.276 48.6C297.943 48.2667 298.693 48.1 299.526 48.1C300.726 48.1 301.659 48.4333 302.326 49.1C303.009 49.7667 303.351 50.7 303.351 51.9V60H302.051V52.225C302.051 51.7917 302.001 51.3917 301.901 51.025C301.818 50.6417 301.659 50.3167 301.426 50.05C301.209 49.7667 300.909 49.55 300.526 49.4C300.159 49.2333 299.701 49.15 299.151 49.15C298.518 49.15 297.884 49.3167 297.251 49.65C296.634 49.9667 296.084 50.4 295.601 50.95V60ZM314.818 42.25H316.118V60H315.068L314.893 58.9H314.843C314.493 59.2833 314.051 59.6 313.518 59.85C312.984 60.0833 312.293 60.2 311.443 60.2C310.809 60.2 310.184 60.0833 309.568 59.85C308.968 59.6 308.418 59.225 307.918 58.725C307.434 58.225 307.043 57.6 306.743 56.85C306.443 56.0833 306.293 55.1833 306.293 54.15C306.293 53.2333 306.409 52.4 306.643 51.65C306.893 50.9 307.251 50.2667 307.718 49.75C308.184 49.2167 308.743 48.8083 309.393 48.525C310.059 48.2417 310.809 48.1 311.643 48.1C312.909 48.1 313.968 48.475 314.818 49.225V42.25ZM314.818 50.55C314.484 50.1167 314.043 49.775 313.493 49.525C312.943 49.275 312.401 49.15 311.868 49.15C311.318 49.15 310.784 49.2417 310.268 49.425C309.768 49.5917 309.318 49.8667 308.918 50.25C308.534 50.6333 308.226 51.1417 307.993 51.775C307.759 52.4083 307.643 53.175 307.643 54.075C307.643 55.0083 307.759 55.8 307.993 56.45C308.226 57.0833 308.534 57.6 308.918 58C309.318 58.4 309.768 58.6917 310.268 58.875C310.768 59.0583 311.284 59.15 311.818 59.15C312.534 59.15 313.143 59.0167 313.643 58.75C314.159 58.4833 314.551 58.15 314.818 57.75V50.55ZM328.591 54.125H320.216V54.475C320.216 55.9417 320.608 57.0917 321.391 57.925C322.191 58.7417 323.274 59.15 324.641 59.15C325.724 59.15 326.741 58.9667 327.691 58.6L327.991 59.6C327.558 59.7833 327.033 59.925 326.416 60.025C325.816 60.1417 325.199 60.2 324.566 60.2C323.783 60.2 323.041 60.0833 322.341 59.85C321.658 59.6167 321.058 59.2583 320.541 58.775C320.024 58.275 319.616 57.65 319.316 56.9C319.016 56.1333 318.866 55.2167 318.866 54.15C318.866 53.2333 318.991 52.4 319.241 51.65C319.491 50.9 319.849 50.2667 320.316 49.75C320.783 49.2167 321.333 48.8083 321.966 48.525C322.599 48.2417 323.308 48.1 324.091 48.1C324.758 48.1 325.366 48.225 325.916 48.475C326.483 48.7083 326.958 49.05 327.341 49.5C327.741 49.95 328.049 50.4917 328.266 51.125C328.483 51.7583 328.591 52.4583 328.591 53.225V54.125ZM327.241 53.075C327.241 52.5917 327.183 52.1167 327.066 51.65C326.949 51.1667 326.758 50.7417 326.491 50.375C326.241 50.0083 325.908 49.7167 325.491 49.5C325.091 49.2667 324.599 49.15 324.016 49.15C322.999 49.15 322.149 49.4917 321.466 50.175C320.799 50.8583 320.399 51.825 320.266 53.075H327.241ZM331.482 60V48.25H332.332L332.632 50.6C332.916 49.85 333.399 49.25 334.082 48.8C334.766 48.3333 335.532 48.1 336.382 48.1C336.782 48.1 337.132 48.1333 337.432 48.2C337.732 48.2667 337.966 48.3417 338.132 48.425L337.882 49.575C337.682 49.4917 337.457 49.4167 337.207 49.35C336.957 49.2833 336.666 49.25 336.332 49.25C335.849 49.25 335.391 49.3333 334.957 49.5C334.541 49.6667 334.166 49.925 333.832 50.275C333.516 50.625 333.257 51.0667 333.057 51.6C332.874 52.1167 332.782 52.7333 332.782 53.45V60H331.482ZM346.395 49.725C345.562 49.3417 344.654 49.15 343.67 49.15C342.77 49.15 342.095 49.3417 341.645 49.725C341.195 50.0917 340.97 50.5667 340.97 51.15C340.97 51.7333 341.162 52.1833 341.545 52.5C341.929 52.8 342.604 53.0917 343.57 53.375L344.32 53.6C345.27 53.8833 345.995 54.3 346.495 54.85C346.995 55.4 347.245 56.075 347.245 56.875C347.245 57.3417 347.154 57.7833 346.97 58.2C346.787 58.6 346.52 58.95 346.17 59.25C345.82 59.55 345.379 59.7833 344.845 59.95C344.329 60.1167 343.729 60.2 343.045 60.2C342.295 60.2 341.637 60.1333 341.07 60C340.504 59.8833 340.004 59.725 339.57 59.525L339.92 58.5C340.354 58.7167 340.804 58.8833 341.27 59C341.737 59.1 342.287 59.15 342.92 59.15C343.87 59.15 344.604 58.9667 345.12 58.6C345.637 58.2333 345.895 57.7083 345.895 57.025C345.895 56.4917 345.704 56.0333 345.32 55.65C344.954 55.25 344.295 54.9 343.345 54.6L342.545 54.35C340.595 53.7333 339.62 52.7083 339.62 51.275C339.62 50.8083 339.712 50.3833 339.895 50C340.095 49.6 340.362 49.2667 340.695 49C341.045 48.7167 341.454 48.5 341.92 48.35C342.404 48.1833 342.937 48.1 343.52 48.1C344.054 48.1 344.604 48.1417 345.17 48.225C345.737 48.3083 346.254 48.4667 346.72 48.7L346.395 49.725ZM356.208 49.25H352.258V56.95C352.258 57.7333 352.433 58.2667 352.783 58.55C353.133 58.8167 353.617 58.95 354.233 58.95C354.717 58.95 355.167 58.9083 355.583 58.825C356 58.725 356.35 58.625 356.633 58.525L356.833 59.5C356.5 59.6333 356.092 59.75 355.608 59.85C355.125 59.95 354.592 60 354.008 60C353.008 60 352.25 59.7667 351.733 59.3C351.217 58.8167 350.958 58.0917 350.958 57.125V49.25H348.833V48.25H350.958V44.5H352.258V48.25H356.208V49.25ZM358.918 49.275C359.702 48.8583 360.418 48.5583 361.068 48.375C361.735 48.1917 362.443 48.1 363.193 48.1C363.727 48.1 364.227 48.175 364.693 48.325C365.177 48.475 365.593 48.7167 365.943 49.05C366.31 49.3833 366.593 49.825 366.793 50.375C367.01 50.9083 367.118 51.5667 367.118 52.35V60H366.218L365.943 58.45H365.893C365.41 59.0333 364.843 59.475 364.193 59.775C363.543 60.0583 362.818 60.2 362.018 60.2C361.468 60.2 360.96 60.125 360.493 59.975C360.027 59.8083 359.618 59.575 359.268 59.275C358.935 58.975 358.668 58.6167 358.468 58.2C358.285 57.7667 358.193 57.2917 358.193 56.775C358.193 56.1583 358.318 55.6167 358.568 55.15C358.818 54.6833 359.168 54.3 359.618 54C360.068 53.6833 360.602 53.45 361.218 53.3C361.852 53.15 362.552 53.075 363.318 53.075H365.818V52.3C365.818 51.1667 365.568 50.3583 365.068 49.875C364.568 49.3917 363.918 49.15 363.118 49.15C362.635 49.15 362.077 49.225 361.443 49.375C360.81 49.525 360.135 49.8 359.418 50.2L358.918 49.275ZM365.818 54.1L363.743 54.125C362.993 54.1417 362.352 54.225 361.818 54.375C361.285 54.5083 360.843 54.6917 360.493 54.925C360.16 55.1417 359.918 55.4083 359.768 55.725C359.618 56.025 359.543 56.35 359.543 56.7C359.543 57.1333 359.618 57.5083 359.768 57.825C359.918 58.125 360.118 58.375 360.368 58.575C360.618 58.775 360.91 58.925 361.243 59.025C361.593 59.1083 361.96 59.15 362.343 59.15C362.643 59.15 362.952 59.1167 363.268 59.05C363.585 58.9667 363.893 58.85 364.193 58.7C364.51 58.5333 364.81 58.3333 365.093 58.1C365.377 57.85 365.618 57.55 365.818 57.2V54.1ZM371.968 60H370.668V48.25H371.618L371.818 49.875C372.385 49.3417 372.993 48.9167 373.643 48.6C374.31 48.2667 375.06 48.1 375.893 48.1C377.093 48.1 378.026 48.4333 378.693 49.1C379.376 49.7667 379.718 50.7 379.718 51.9V60H378.418V52.225C378.418 51.7917 378.368 51.3917 378.268 51.025C378.185 50.6417 378.026 50.3167 377.793 50.05C377.576 49.7667 377.276 49.55 376.893 49.4C376.526 49.2333 376.068 49.15 375.518 49.15C374.885 49.15 374.251 49.3167 373.618 49.65C373.001 49.9667 372.451 50.4 371.968 50.95V60ZM391.185 42.25H392.485V60H391.435L391.26 58.9H391.21C390.86 59.2833 390.418 59.6 389.885 59.85C389.352 60.0833 388.66 60.2 387.81 60.2C387.177 60.2 386.552 60.0833 385.935 59.85C385.335 59.6 384.785 59.225 384.285 58.725C383.802 58.225 383.41 57.6 383.11 56.85C382.81 56.0833 382.66 55.1833 382.66 54.15C382.66 53.2333 382.777 52.4 383.01 51.65C383.26 50.9 383.618 50.2667 384.085 49.75C384.552 49.2167 385.11 48.8083 385.76 48.525C386.427 48.2417 387.177 48.1 388.01 48.1C389.277 48.1 390.335 48.475 391.185 49.225V42.25ZM391.185 50.55C390.852 50.1167 390.41 49.775 389.86 49.525C389.31 49.275 388.768 49.15 388.235 49.15C387.685 49.15 387.152 49.2417 386.635 49.425C386.135 49.5917 385.685 49.8667 385.285 50.25C384.902 50.6333 384.593 51.1417 384.36 51.775C384.127 52.4083 384.01 53.175 384.01 54.075C384.01 55.0083 384.127 55.8 384.36 56.45C384.593 57.0833 384.902 57.6 385.285 58C385.685 58.4 386.135 58.6917 386.635 58.875C387.135 59.0583 387.652 59.15 388.185 59.15C388.902 59.15 389.51 59.0167 390.01 58.75C390.527 58.4833 390.918 58.15 391.185 57.75V50.55ZM401.282 60V48.25H402.132L402.432 50.6C402.715 49.85 403.199 49.25 403.882 48.8C404.565 48.3333 405.332 48.1 406.182 48.1C406.582 48.1 406.932 48.1333 407.232 48.2C407.532 48.2667 407.765 48.3417 407.932 48.425L407.682 49.575C407.482 49.4917 407.257 49.4167 407.007 49.35C406.757 49.2833 406.465 49.25 406.132 49.25C405.649 49.25 405.19 49.3333 404.757 49.5C404.34 49.6667 403.965 49.925 403.632 50.275C403.315 50.625 403.057 51.0667 402.857 51.6C402.674 52.1167 402.582 52.7333 402.582 53.45V60H401.282ZM418.557 54.125H410.182V54.475C410.182 55.9417 410.573 57.0917 411.357 57.925C412.157 58.7417 413.24 59.15 414.607 59.15C415.69 59.15 416.707 58.9667 417.657 58.6L417.957 59.6C417.523 59.7833 416.998 59.925 416.382 60.025C415.782 60.1417 415.165 60.2 414.532 60.2C413.748 60.2 413.007 60.0833 412.307 59.85C411.623 59.6167 411.023 59.2583 410.507 58.775C409.99 58.275 409.582 57.65 409.282 56.9C408.982 56.1333 408.832 55.2167 408.832 54.15C408.832 53.2333 408.957 52.4 409.207 51.65C409.457 50.9 409.815 50.2667 410.282 49.75C410.748 49.2167 411.298 48.8083 411.932 48.525C412.565 48.2417 413.273 48.1 414.057 48.1C414.723 48.1 415.332 48.225 415.882 48.475C416.448 48.7083 416.923 49.05 417.307 49.5C417.707 49.95 418.015 50.4917 418.232 51.125C418.448 51.7583 418.557 52.4583 418.557 53.225V54.125ZM417.207 53.075C417.207 52.5917 417.148 52.1167 417.032 51.65C416.915 51.1667 416.723 50.7417 416.457 50.375C416.207 50.0083 415.873 49.7167 415.457 49.5C415.057 49.2667 414.565 49.15 413.982 49.15C412.965 49.15 412.115 49.4917 411.432 50.175C410.765 50.8583 410.365 51.825 410.232 53.075H417.207ZM427.523 49.725C426.69 49.3417 425.781 49.15 424.798 49.15C423.898 49.15 423.223 49.3417 422.773 49.725C422.323 50.0917 422.098 50.5667 422.098 51.15C422.098 51.7333 422.29 52.1833 422.673 52.5C423.056 52.8 423.731 53.0917 424.698 53.375L425.448 53.6C426.398 53.8833 427.123 54.3 427.623 54.85C428.123 55.4 428.373 56.075 428.373 56.875C428.373 57.3417 428.281 57.7833 428.098 58.2C427.915 58.6 427.648 58.95 427.298 59.25C426.948 59.55 426.506 59.7833 425.973 59.95C425.456 60.1167 424.856 60.2 424.173 60.2C423.423 60.2 422.765 60.1333 422.198 60C421.631 59.8833 421.131 59.725 420.698 59.525L421.048 58.5C421.481 58.7167 421.931 58.8833 422.398 59C422.865 59.1 423.415 59.15 424.048 59.15C424.998 59.15 425.731 58.9667 426.248 58.6C426.765 58.2333 427.023 57.7083 427.023 57.025C427.023 56.4917 426.831 56.0333 426.448 55.65C426.081 55.25 425.423 54.9 424.473 54.6L423.673 54.35C421.723 53.7333 420.748 52.7083 420.748 51.275C420.748 50.8083 420.84 50.3833 421.023 50C421.223 49.6 421.49 49.2667 421.823 49C422.173 48.7167 422.581 48.5 423.048 48.35C423.531 48.1833 424.065 48.1 424.648 48.1C425.181 48.1 425.731 48.1417 426.298 48.225C426.865 48.3083 427.381 48.4667 427.848 48.7L427.523 49.725ZM440.114 54.125H431.739V54.475C431.739 55.9417 432.131 57.0917 432.914 57.925C433.714 58.7417 434.798 59.15 436.164 59.15C437.248 59.15 438.264 58.9667 439.214 58.6L439.514 59.6C439.081 59.7833 438.556 59.925 437.939 60.025C437.339 60.1417 436.723 60.2 436.089 60.2C435.306 60.2 434.564 60.0833 433.864 59.85C433.181 59.6167 432.581 59.2583 432.064 58.775C431.548 58.275 431.139 57.65 430.839 56.9C430.539 56.1333 430.389 55.2167 430.389 54.15C430.389 53.2333 430.514 52.4 430.764 51.65C431.014 50.9 431.373 50.2667 431.839 49.75C432.306 49.2167 432.856 48.8083 433.489 48.525C434.123 48.2417 434.831 48.1 435.614 48.1C436.281 48.1 436.889 48.225 437.439 48.475C438.006 48.7083 438.481 49.05 438.864 49.5C439.264 49.95 439.573 50.4917 439.789 51.125C440.006 51.7583 440.114 52.4583 440.114 53.225V54.125ZM438.764 53.075C438.764 52.5917 438.706 52.1167 438.589 51.65C438.473 51.1667 438.281 50.7417 438.014 50.375C437.764 50.0083 437.431 49.7167 437.014 49.5C436.614 49.2667 436.123 49.15 435.539 49.15C434.523 49.15 433.673 49.4917 432.989 50.175C432.323 50.8583 431.923 51.825 431.789 53.075H438.764ZM442.781 49.275C443.564 48.8583 444.281 48.5583 444.931 48.375C445.597 48.1917 446.306 48.1 447.056 48.1C447.589 48.1 448.089 48.175 448.556 48.325C449.039 48.475 449.456 48.7167 449.806 49.05C450.172 49.3833 450.456 49.825 450.656 50.375C450.872 50.9083 450.981 51.5667 450.981 52.35V60H450.081L449.806 58.45H449.756C449.272 59.0333 448.706 59.475 448.056 59.775C447.406 60.0583 446.681 60.2 445.881 60.2C445.331 60.2 444.822 60.125 444.356 59.975C443.889 59.8083 443.481 59.575 443.131 59.275C442.797 58.975 442.531 58.6167 442.331 58.2C442.147 57.7667 442.056 57.2917 442.056 56.775C442.056 56.1583 442.181 55.6167 442.431 55.15C442.681 54.6833 443.031 54.3 443.481 54C443.931 53.6833 444.464 53.45 445.081 53.3C445.714 53.15 446.414 53.075 447.181 53.075H449.681V52.3C449.681 51.1667 449.431 50.3583 448.931 49.875C448.431 49.3917 447.781 49.15 446.981 49.15C446.497 49.15 445.939 49.225 445.306 49.375C444.672 49.525 443.997 49.8 443.281 50.2L442.781 49.275ZM449.681 54.1L447.606 54.125C446.856 54.1417 446.214 54.225 445.681 54.375C445.147 54.5083 444.706 54.6917 444.356 54.925C444.022 55.1417 443.781 55.4083 443.631 55.725C443.481 56.025 443.406 56.35 443.406 56.7C443.406 57.1333 443.481 57.5083 443.631 57.825C443.781 58.125 443.981 58.375 444.231 58.575C444.481 58.775 444.772 58.925 445.106 59.025C445.456 59.1083 445.822 59.15 446.206 59.15C446.506 59.15 446.814 59.1167 447.131 59.05C447.447 58.9667 447.756 58.85 448.056 58.7C448.372 58.5333 448.672 58.3333 448.956 58.1C449.239 57.85 449.481 57.55 449.681 57.2V54.1ZM454.48 60V48.25H455.33L455.63 50.6C455.914 49.85 456.397 49.25 457.08 48.8C457.764 48.3333 458.53 48.1 459.38 48.1C459.78 48.1 460.13 48.1333 460.43 48.2C460.73 48.2667 460.964 48.3417 461.13 48.425L460.88 49.575C460.68 49.4917 460.455 49.4167 460.205 49.35C459.955 49.2833 459.664 49.25 459.33 49.25C458.847 49.25 458.389 49.3333 457.955 49.5C457.539 49.6667 457.164 49.925 456.83 50.275C456.514 50.625 456.255 51.0667 456.055 51.6C455.872 52.1167 455.78 52.7333 455.78 53.45V60H454.48ZM467.636 59.25C468.17 59.25 468.653 59.1917 469.086 59.075C469.52 58.9583 469.928 58.8083 470.311 58.625L470.586 59.525C470.136 59.7583 469.661 59.925 469.161 60.025C468.678 60.1417 468.12 60.2 467.486 60.2C466.703 60.2 465.961 60.075 465.261 59.825C464.578 59.575 463.97 59.2 463.436 58.7C462.92 58.2 462.503 57.575 462.186 56.825C461.886 56.0583 461.736 55.1667 461.736 54.15C461.736 53.2167 461.878 52.375 462.161 51.625C462.445 50.875 462.845 50.2417 463.361 49.725C463.878 49.1917 464.478 48.7917 465.161 48.525C465.861 48.2417 466.628 48.1 467.461 48.1C467.978 48.1 468.478 48.1417 468.961 48.225C469.445 48.2917 469.97 48.4583 470.536 48.725L470.236 49.75C469.786 49.5167 469.353 49.3583 468.936 49.275C468.536 49.1917 468.12 49.15 467.686 49.15C467.003 49.15 466.378 49.2667 465.811 49.5C465.245 49.7333 464.761 50.0667 464.361 50.5C463.961 50.9167 463.645 51.4333 463.411 52.05C463.195 52.65 463.086 53.325 463.086 54.075C463.086 55.075 463.22 55.9083 463.486 56.575C463.753 57.225 464.095 57.75 464.511 58.15C464.945 58.55 465.428 58.8333 465.961 59C466.511 59.1667 467.07 59.25 467.636 59.25ZM474.68 60H473.38V42.25H474.68V49.825C475.23 49.325 475.839 48.9167 476.505 48.6C477.172 48.2667 477.905 48.1 478.705 48.1C479.355 48.1 479.922 48.2 480.405 48.4C480.889 48.5833 481.28 48.85 481.58 49.2C481.897 49.5333 482.13 49.9333 482.28 50.4C482.447 50.85 482.53 51.35 482.53 51.9V60H481.23V52.3C481.23 51.15 480.972 50.3417 480.455 49.875C479.939 49.3917 479.255 49.15 478.405 49.15C477.805 49.15 477.18 49.3167 476.53 49.65C475.88 49.9667 475.264 50.4 474.68 50.95V60ZM489.966 48.25H491.266L493.316 55.65L494.041 58.9H494.091L494.916 55.65L497.191 48.25H498.566L500.766 55.65L501.616 58.9H501.666L502.491 55.65L504.516 48.25H505.766L502.441 60H500.941L498.691 52.3L497.866 49.15L497.016 52.3L494.716 60H493.341L489.966 48.25ZM508.122 60V48.25H509.422V60H508.122ZM508.797 45.225C508.53 45.225 508.297 45.1417 508.097 44.975C507.913 44.7917 507.822 44.5417 507.822 44.225C507.822 43.8917 507.913 43.6333 508.097 43.45C508.28 43.2667 508.505 43.175 508.772 43.175C509.022 43.175 509.238 43.2667 509.422 43.45C509.622 43.6167 509.722 43.875 509.722 44.225C509.722 44.5583 509.63 44.8083 509.447 44.975C509.263 45.1417 509.047 45.225 508.797 45.225ZM519.294 49.25H515.344V56.95C515.344 57.7333 515.519 58.2667 515.869 58.55C516.219 58.8167 516.703 58.95 517.319 58.95C517.803 58.95 518.253 58.9083 518.669 58.825C519.086 58.725 519.436 58.625 519.719 58.525L519.919 59.5C519.586 59.6333 519.178 59.75 518.694 59.85C518.211 59.95 517.678 60 517.094 60C516.094 60 515.336 59.7667 514.819 59.3C514.303 58.8167 514.044 58.0917 514.044 57.125V49.25H511.919V48.25H514.044V44.5H515.344V48.25H519.294V49.25ZM523.679 60H522.379V42.25H523.679V49.825C524.229 49.325 524.838 48.9167 525.504 48.6C526.171 48.2667 526.904 48.1 527.704 48.1C528.354 48.1 528.921 48.2 529.404 48.4C529.888 48.5833 530.279 48.85 530.579 49.2C530.896 49.5333 531.129 49.9333 531.279 50.4C531.446 50.85 531.529 51.35 531.529 51.9V60H530.229V52.3C530.229 51.15 529.971 50.3417 529.454 49.875C528.938 49.3917 528.254 49.15 527.404 49.15C526.804 49.15 526.179 49.3167 525.529 49.65C524.879 49.9667 524.263 50.4 523.679 50.95V60ZM545.365 44.25H546.665L552.615 60H551.215L549.49 55.35H542.44L540.715 60H539.34L545.365 44.25ZM542.84 54.3H549.065L547.09 48.9C547.057 48.8 546.998 48.625 546.915 48.375C546.832 48.125 546.74 47.8417 546.64 47.525C546.54 47.2083 546.432 46.875 546.315 46.525C546.215 46.175 546.123 45.85 546.04 45.55H545.99C545.907 45.85 545.807 46.1667 545.69 46.5C545.59 46.8333 545.482 47.1583 545.365 47.475C545.265 47.775 545.165 48.05 545.065 48.3C544.982 48.55 544.915 48.75 544.865 48.9L542.84 54.3ZM556.565 44.25V60H555.265V44.25H556.565Z" fill="black"/>
</svg>
