<svg width="406" height="73" viewBox="0 0 406 73" fill="none" xmlns="http://www.w3.org/2000/svg">
<rect x="2" y="2" width="402" height="69" rx="19" fill="white" stroke="black" stroke-opacity="0.5" stroke-width="3"/>
<path d="M48.1452 27.1H51.3552V43.36H59.2752V46H48.1452V27.1ZM74.8741 38.77C74.8741 39.95 74.6841 41.01 74.3041 41.95C73.9441 42.89 73.4441 43.68 72.8041 44.32C72.1641 44.96 71.4141 45.45 70.5541 45.79C69.6941 46.13 68.7641 46.3 67.7641 46.3C66.7641 46.3 65.8341 46.14 64.9741 45.82C64.1341 45.5 63.3941 45.04 62.7541 44.44C62.1341 43.82 61.6441 43.06 61.2841 42.16C60.9441 41.26 60.7741 40.23 60.7741 39.07C60.7741 37.87 60.9541 36.81 61.3141 35.89C61.6941 34.97 62.2041 34.19 62.8441 33.55C63.4841 32.91 64.2341 32.43 65.0941 32.11C65.9541 31.77 66.8841 31.6 67.8841 31.6C68.8841 31.6 69.8041 31.76 70.6441 32.08C71.5041 32.38 72.2441 32.83 72.8641 33.43C73.5041 34.03 73.9941 34.78 74.3341 35.68C74.6941 36.58 74.8741 37.61 74.8741 38.77ZM71.6641 38.92C71.6641 38.02 71.5541 37.26 71.3341 36.64C71.1141 36 70.8241 35.48 70.4641 35.08C70.1041 34.68 69.6941 34.39 69.2341 34.21C68.7741 34.03 68.2941 33.94 67.7941 33.94C67.3141 33.94 66.8441 34.02 66.3841 34.18C65.9241 34.34 65.5141 34.61 65.1541 34.99C64.7941 35.37 64.5041 35.88 64.2841 36.52C64.0841 37.16 63.9841 37.96 63.9841 38.92C63.9841 39.8 64.0941 40.56 64.3141 41.2C64.5341 41.84 64.8241 42.37 65.1841 42.79C65.5441 43.19 65.9541 43.49 66.4141 43.69C66.8941 43.87 67.3741 43.96 67.8541 43.96C68.3341 43.96 68.8041 43.88 69.2641 43.72C69.7241 43.56 70.1341 43.29 70.4941 42.91C70.8541 42.51 71.1341 41.99 71.3341 41.35C71.5541 40.69 71.6641 39.88 71.6641 38.92ZM77.7817 36.58C77.7817 35.8 77.9217 35.1 78.2017 34.48C78.5017 33.86 78.9117 33.34 79.4317 32.92C79.9517 32.48 80.5717 32.15 81.2917 31.93C82.0117 31.71 82.7917 31.6 83.6317 31.6C84.2517 31.6 84.8817 31.68 85.5217 31.84H91.6117V33.97H90.5617L88.3417 33.67C88.6817 34.05 88.9517 34.49 89.1517 34.99C89.3517 35.49 89.4517 36.01 89.4517 36.55C89.4517 37.33 89.3117 38.03 89.0317 38.65C88.7517 39.25 88.3517 39.77 87.8317 40.21C87.3317 40.63 86.7217 40.95 86.0017 41.17C85.2817 41.39 84.4917 41.5 83.6317 41.5C83.3517 41.5 83.0817 41.49 82.8217 41.47C82.5817 41.45 82.3417 41.42 82.1017 41.38C81.7217 41.54 81.4517 41.73 81.2917 41.95C81.1317 42.17 81.0517 42.41 81.0517 42.67C81.0517 43.07 81.1917 43.35 81.4717 43.51C81.7517 43.67 82.1517 43.75 82.6717 43.75H86.2417C87.8017 43.75 89.0117 44.11 89.8717 44.83C90.7517 45.53 91.1917 46.54 91.1917 47.86C91.1917 48.64 91.0117 49.34 90.6517 49.96C90.3117 50.6 89.8117 51.14 89.1517 51.58C88.5117 52.04 87.7317 52.39 86.8117 52.63C85.8917 52.87 84.8617 52.99 83.7217 52.99C81.6217 52.99 79.9617 52.62 78.7417 51.88C77.5217 51.14 76.9117 50.05 76.9117 48.61C76.9117 47.91 77.1417 47.31 77.6017 46.81C78.0617 46.31 78.6717 45.92 79.4317 45.64C79.0717 45.4 78.7817 45.12 78.5617 44.8C78.3417 44.46 78.2317 44.02 78.2317 43.48C78.2317 42.84 78.4217 42.3 78.8017 41.86C79.1817 41.4 79.6817 41.04 80.3017 40.78C79.5817 40.44 78.9817 39.93 78.5017 39.25C78.0217 38.55 77.7817 37.66 77.7817 36.58ZM81.2017 46.15C80.2817 46.59 79.8217 47.25 79.8217 48.13C79.8217 48.93 80.1417 49.54 80.7817 49.96C81.4417 50.38 82.4617 50.59 83.8417 50.59C84.6217 50.59 85.2817 50.51 85.8217 50.35C86.3617 50.21 86.8017 50.02 87.1417 49.78C87.5017 49.54 87.7617 49.27 87.9217 48.97C88.0817 48.67 88.1617 48.36 88.1617 48.04C88.1617 47.28 87.9017 46.77 87.3817 46.51C86.8817 46.27 86.2117 46.15 85.3717 46.15H81.2017ZM86.3617 36.61C86.3617 35.65 86.1117 34.94 85.6117 34.48C85.1117 34 84.4517 33.76 83.6317 33.76C82.7917 33.76 82.1217 33.99 81.6217 34.45C81.1417 34.91 80.9017 35.6 80.9017 36.52C80.9017 37.48 81.1517 38.19 81.6517 38.65C82.1517 39.11 82.8117 39.34 83.6317 39.34C84.4717 39.34 85.1317 39.11 85.6117 38.65C86.1117 38.19 86.3617 37.51 86.3617 36.61ZM101.553 46V31.84H104.643V46H101.553ZM103.113 28.33C102.573 28.33 102.143 28.17 101.823 27.85C101.503 27.51 101.343 27.09 101.343 26.59C101.343 26.09 101.503 25.68 101.823 25.36C102.143 25.02 102.573 24.85 103.113 24.85C103.633 24.85 104.053 25.02 104.373 25.36C104.713 25.68 104.883 26.09 104.883 26.59C104.883 27.11 104.713 27.53 104.373 27.85C104.053 28.17 103.633 28.33 103.113 28.33ZM111.989 46H108.899V31.84H111.329L111.749 33.73C112.449 33.05 113.179 32.53 113.939 32.17C114.719 31.79 115.599 31.6 116.579 31.6C118.079 31.6 119.239 32.01 120.059 32.83C120.879 33.65 121.289 34.82 121.289 36.34V46H118.199V36.73C118.199 35.91 117.989 35.26 117.569 34.78C117.149 34.3 116.519 34.06 115.679 34.06C115.039 34.06 114.399 34.22 113.759 34.54C113.139 34.84 112.549 35.28 111.989 35.86V46ZM139.785 34.12H135.765V41.77C135.765 42.47 135.925 42.94 136.245 43.18C136.585 43.42 137.035 43.54 137.595 43.54C137.995 43.54 138.415 43.5 138.855 43.42C139.315 43.32 139.715 43.21 140.055 43.09L140.535 45.37C140.135 45.53 139.615 45.68 138.975 45.82C138.355 45.94 137.695 46 136.995 46C135.475 46 134.375 45.69 133.695 45.07C133.035 44.43 132.705 43.49 132.705 42.25V34.12H130.545V31.84H132.705V27.37H135.765V31.84H139.785V34.12ZM156.349 38.77C156.349 39.95 156.159 41.01 155.779 41.95C155.419 42.89 154.919 43.68 154.279 44.32C153.639 44.96 152.889 45.45 152.029 45.79C151.169 46.13 150.239 46.3 149.239 46.3C148.239 46.3 147.309 46.14 146.449 45.82C145.609 45.5 144.869 45.04 144.229 44.44C143.609 43.82 143.119 43.06 142.759 42.16C142.419 41.26 142.249 40.23 142.249 39.07C142.249 37.87 142.429 36.81 142.789 35.89C143.169 34.97 143.679 34.19 144.319 33.55C144.959 32.91 145.709 32.43 146.569 32.11C147.429 31.77 148.359 31.6 149.359 31.6C150.359 31.6 151.279 31.76 152.119 32.08C152.979 32.38 153.719 32.83 154.339 33.43C154.979 34.03 155.469 34.78 155.809 35.68C156.169 36.58 156.349 37.61 156.349 38.77ZM153.139 38.92C153.139 38.02 153.029 37.26 152.809 36.64C152.589 36 152.299 35.48 151.939 35.08C151.579 34.68 151.169 34.39 150.709 34.21C150.249 34.03 149.769 33.94 149.269 33.94C148.789 33.94 148.319 34.02 147.859 34.18C147.399 34.34 146.989 34.61 146.629 34.99C146.269 35.37 145.979 35.88 145.759 36.52C145.559 37.16 145.459 37.96 145.459 38.92C145.459 39.8 145.569 40.56 145.789 41.2C146.009 41.84 146.299 42.37 146.659 42.79C147.019 43.19 147.429 43.49 147.889 43.69C148.369 43.87 148.849 43.96 149.329 43.96C149.809 43.96 150.279 43.88 150.739 43.72C151.199 43.56 151.609 43.29 151.969 42.91C152.329 42.51 152.609 41.99 152.809 41.35C153.029 40.69 153.139 39.88 153.139 38.92ZM166.024 36.58C166.024 35.8 166.164 35.1 166.444 34.48C166.744 33.86 167.154 33.34 167.674 32.92C168.194 32.48 168.814 32.15 169.534 31.93C170.254 31.71 171.034 31.6 171.874 31.6C172.494 31.6 173.124 31.68 173.764 31.84H179.854V33.97H178.804L176.584 33.67C176.924 34.05 177.194 34.49 177.394 34.99C177.594 35.49 177.694 36.01 177.694 36.55C177.694 37.33 177.554 38.03 177.274 38.65C176.994 39.25 176.594 39.77 176.074 40.21C175.574 40.63 174.964 40.95 174.244 41.17C173.524 41.39 172.734 41.5 171.874 41.5C171.594 41.5 171.324 41.49 171.064 41.47C170.824 41.45 170.584 41.42 170.344 41.38C169.964 41.54 169.694 41.73 169.534 41.95C169.374 42.17 169.294 42.41 169.294 42.67C169.294 43.07 169.434 43.35 169.714 43.51C169.994 43.67 170.394 43.75 170.914 43.75H174.484C176.044 43.75 177.254 44.11 178.114 44.83C178.994 45.53 179.434 46.54 179.434 47.86C179.434 48.64 179.254 49.34 178.894 49.96C178.554 50.6 178.054 51.14 177.394 51.58C176.754 52.04 175.974 52.39 175.054 52.63C174.134 52.87 173.104 52.99 171.964 52.99C169.864 52.99 168.204 52.62 166.984 51.88C165.764 51.14 165.154 50.05 165.154 48.61C165.154 47.91 165.384 47.31 165.844 46.81C166.304 46.31 166.914 45.92 167.674 45.64C167.314 45.4 167.024 45.12 166.804 44.8C166.584 44.46 166.474 44.02 166.474 43.48C166.474 42.84 166.664 42.3 167.044 41.86C167.424 41.4 167.924 41.04 168.544 40.78C167.824 40.44 167.224 39.93 166.744 39.25C166.264 38.55 166.024 37.66 166.024 36.58ZM169.444 46.15C168.524 46.59 168.064 47.25 168.064 48.13C168.064 48.93 168.384 49.54 169.024 49.96C169.684 50.38 170.704 50.59 172.084 50.59C172.864 50.59 173.524 50.51 174.064 50.35C174.604 50.21 175.044 50.02 175.384 49.78C175.744 49.54 176.004 49.27 176.164 48.97C176.324 48.67 176.404 48.36 176.404 48.04C176.404 47.28 176.144 46.77 175.624 46.51C175.124 46.27 174.454 46.15 173.614 46.15H169.444ZM174.604 36.61C174.604 35.65 174.354 34.94 173.854 34.48C173.354 34 172.694 33.76 171.874 33.76C171.034 33.76 170.364 33.99 169.864 34.45C169.384 34.91 169.144 35.6 169.144 36.52C169.144 37.48 169.394 38.19 169.894 38.65C170.394 39.11 171.054 39.34 171.874 39.34C172.714 39.34 173.374 39.11 173.854 38.65C174.354 38.19 174.604 37.51 174.604 36.61ZM194.675 39.46H184.745V39.58C184.745 41.02 185.165 42.11 186.005 42.85C186.845 43.59 187.955 43.96 189.335 43.96C190.095 43.96 190.775 43.9 191.375 43.78C191.995 43.64 192.615 43.43 193.235 43.15L193.835 45.4C193.255 45.66 192.565 45.87 191.765 46.03C190.965 46.21 190.085 46.3 189.125 46.3C188.105 46.3 187.135 46.16 186.215 45.88C185.295 45.6 184.485 45.16 183.785 44.56C183.105 43.96 182.565 43.2 182.165 42.28C181.765 41.36 181.565 40.26 181.565 38.98C181.565 37.88 181.725 36.88 182.045 35.98C182.385 35.06 182.855 34.28 183.455 33.64C184.075 32.98 184.815 32.48 185.675 32.14C186.555 31.78 187.525 31.6 188.585 31.6C189.505 31.6 190.335 31.75 191.075 32.05C191.835 32.35 192.475 32.78 192.995 33.34C193.535 33.88 193.945 34.55 194.225 35.35C194.525 36.13 194.675 37 194.675 37.96V39.46ZM191.495 37.3C191.495 36.82 191.435 36.37 191.315 35.95C191.195 35.53 191.015 35.17 190.775 34.87C190.535 34.55 190.215 34.3 189.815 34.12C189.435 33.92 188.975 33.82 188.435 33.82C187.435 33.82 186.615 34.14 185.975 34.78C185.355 35.42 184.975 36.28 184.835 37.36L191.495 37.3ZM205.469 34.12H201.449V41.77C201.449 42.47 201.609 42.94 201.929 43.18C202.269 43.42 202.719 43.54 203.279 43.54C203.679 43.54 204.099 43.5 204.539 43.42C204.999 43.32 205.399 43.21 205.739 43.09L206.219 45.37C205.819 45.53 205.299 45.68 204.659 45.82C204.039 45.94 203.379 46 202.679 46C201.159 46 200.059 45.69 199.379 45.07C198.719 44.43 198.389 43.49 198.389 42.25V34.12H196.229V31.84H198.389V27.37H201.449V31.84H205.469V34.12ZM223.7 34.72C223.06 34.42 222.46 34.21 221.9 34.09C221.36 33.95 220.82 33.88 220.28 33.88C219.44 33.88 218.8 34.04 218.36 34.36C217.94 34.66 217.73 35.07 217.73 35.59C217.73 35.99 217.89 36.34 218.21 36.64C218.53 36.92 219.19 37.2 220.19 37.48L221.09 37.75C222.39 38.15 223.37 38.67 224.03 39.31C224.71 39.95 225.05 40.81 225.05 41.89C225.05 43.21 224.55 44.28 223.55 45.1C222.55 45.9 221.18 46.3 219.44 46.3C218.5 46.3 217.62 46.21 216.8 46.03C216 45.87 215.28 45.64 214.64 45.34L215.36 43C215.94 43.28 216.56 43.51 217.22 43.69C217.88 43.87 218.56 43.96 219.26 43.96C220.12 43.96 220.79 43.81 221.27 43.51C221.75 43.21 221.99 42.75 221.99 42.13C221.99 41.55 221.77 41.14 221.33 40.9C220.91 40.64 220.25 40.37 219.35 40.09L218.42 39.82C217.16 39.4 216.22 38.87 215.6 38.23C215 37.59 214.7 36.75 214.7 35.71C214.7 35.09 214.83 34.53 215.09 34.03C215.35 33.53 215.71 33.1 216.17 32.74C216.63 32.38 217.18 32.1 217.82 31.9C218.48 31.7 219.2 31.6 219.98 31.6C220.72 31.6 221.47 31.67 222.23 31.81C223.01 31.95 223.73 32.17 224.39 32.47L223.7 34.72ZM235.82 34.12H231.8V41.77C231.8 42.47 231.96 42.94 232.28 43.18C232.62 43.42 233.07 43.54 233.63 43.54C234.03 43.54 234.45 43.5 234.89 43.42C235.35 43.32 235.75 43.21 236.09 43.09L236.57 45.37C236.17 45.53 235.65 45.68 235.01 45.82C234.39 45.94 233.73 46 233.03 46C231.51 46 230.41 45.69 229.73 45.07C229.07 44.43 228.74 43.49 228.74 42.25V34.12H226.58V31.84H228.74V27.37H231.8V31.84H235.82V34.12ZM239.304 33.1C240.224 32.6 241.104 32.23 241.944 31.99C242.804 31.73 243.754 31.6 244.794 31.6C245.594 31.6 246.324 31.69 246.984 31.87C247.664 32.05 248.244 32.34 248.724 32.74C249.204 33.14 249.574 33.68 249.834 34.36C250.114 35.02 250.254 35.83 250.254 36.79V46H247.764L247.434 44.47H247.344C246.784 45.11 246.134 45.58 245.394 45.88C244.654 46.16 243.834 46.3 242.934 46.3C241.514 46.3 240.364 45.92 239.484 45.16C238.624 44.4 238.194 43.39 238.194 42.13C238.194 41.35 238.354 40.68 238.674 40.12C238.994 39.54 239.444 39.06 240.024 38.68C240.604 38.3 241.294 38.02 242.094 37.84C242.894 37.64 243.774 37.54 244.734 37.54H247.134V36.46C247.134 35.56 246.894 34.94 246.414 34.6C245.934 34.24 245.274 34.06 244.434 34.06C243.914 34.06 243.324 34.15 242.664 34.33C242.024 34.49 241.284 34.8 240.444 35.26L239.304 33.1ZM247.164 39.58L245.274 39.61C243.854 39.65 242.854 39.9 242.274 40.36C241.694 40.82 241.404 41.36 241.404 41.98C241.404 42.38 241.464 42.71 241.584 42.97C241.724 43.23 241.904 43.44 242.124 43.6C242.344 43.76 242.594 43.88 242.874 43.96C243.174 44.02 243.474 44.05 243.774 44.05C244.394 44.05 245.004 43.9 245.604 43.6C246.224 43.28 246.744 42.83 247.164 42.25V39.58ZM253.947 46V31.84H256.287L256.737 34.57C257.077 33.73 257.627 33.03 258.387 32.47C259.147 31.89 260.067 31.6 261.147 31.6C261.627 31.6 262.037 31.64 262.377 31.72C262.737 31.8 263.057 31.91 263.337 32.05L262.767 34.63C262.527 34.51 262.247 34.41 261.927 34.33C261.627 34.25 261.277 34.21 260.877 34.21C259.777 34.21 258.857 34.59 258.117 35.35C257.377 36.09 257.007 37.22 257.007 38.74V46H253.947ZM274.023 34.12H270.003V41.77C270.003 42.47 270.163 42.94 270.483 43.18C270.823 43.42 271.273 43.54 271.833 43.54C272.233 43.54 272.653 43.5 273.093 43.42C273.553 43.32 273.953 43.21 274.293 43.09L274.773 45.37C274.373 45.53 273.853 45.68 273.213 45.82C272.593 45.94 271.933 46 271.233 46C269.713 46 268.613 45.69 267.933 45.07C267.273 44.43 266.943 43.49 266.943 42.25V34.12H264.783V31.84H266.943V27.37H270.003V31.84H274.023V34.12ZM289.597 39.46H279.667V39.58C279.667 41.02 280.087 42.11 280.927 42.85C281.767 43.59 282.877 43.96 284.257 43.96C285.017 43.96 285.697 43.9 286.297 43.78C286.917 43.64 287.537 43.43 288.157 43.15L288.757 45.4C288.177 45.66 287.487 45.87 286.687 46.03C285.887 46.21 285.007 46.3 284.047 46.3C283.027 46.3 282.057 46.16 281.137 45.88C280.217 45.6 279.407 45.16 278.707 44.56C278.027 43.96 277.487 43.2 277.087 42.28C276.687 41.36 276.487 40.26 276.487 38.98C276.487 37.88 276.647 36.88 276.967 35.98C277.307 35.06 277.777 34.28 278.377 33.64C278.997 32.98 279.737 32.48 280.597 32.14C281.477 31.78 282.447 31.6 283.507 31.6C284.427 31.6 285.257 31.75 285.997 32.05C286.757 32.35 287.397 32.78 287.917 33.34C288.457 33.88 288.867 34.55 289.147 35.35C289.447 36.13 289.597 37 289.597 37.96V39.46ZM286.417 37.3C286.417 36.82 286.357 36.37 286.237 35.95C286.117 35.53 285.937 35.17 285.697 34.87C285.457 34.55 285.137 34.3 284.737 34.12C284.357 33.92 283.897 33.82 283.357 33.82C282.357 33.82 281.537 34.14 280.897 34.78C280.277 35.42 279.897 36.28 279.757 37.36L286.417 37.3ZM302.067 24.67H305.157V46H302.727L302.367 44.44H302.247C301.727 45.04 301.147 45.5 300.507 45.82C299.867 46.14 299.037 46.3 298.017 46.3C297.217 46.3 296.447 46.15 295.707 45.85C294.987 45.53 294.337 45.06 293.757 44.44C293.197 43.82 292.747 43.05 292.407 42.13C292.067 41.21 291.897 40.15 291.897 38.95C291.897 37.83 292.037 36.82 292.317 35.92C292.617 35.02 293.037 34.25 293.577 33.61C294.137 32.97 294.817 32.48 295.617 32.14C296.417 31.78 297.327 31.6 298.347 31.6C299.047 31.6 299.727 31.71 300.387 31.93C301.047 32.15 301.607 32.46 302.067 32.86V24.67ZM302.067 35.35C301.227 34.39 300.217 33.91 299.037 33.91C298.517 33.91 298.017 34 297.537 34.18C297.057 34.36 296.627 34.65 296.247 35.05C295.867 35.45 295.567 35.96 295.347 36.58C295.127 37.2 295.017 37.96 295.017 38.86C295.017 39.76 295.117 40.53 295.317 41.17C295.537 41.81 295.817 42.34 296.157 42.76C296.497 43.18 296.887 43.49 297.327 43.69C297.787 43.87 298.257 43.96 298.737 43.96C299.457 43.96 300.087 43.8 300.627 43.48C301.187 43.16 301.667 42.71 302.067 42.13V35.35Z" fill="black"/>
<g clip-path="url(#clip0_3_42)">
<path fill-rule="evenodd" clip-rule="evenodd" d="M347.653 32.3412C347.817 32.2042 348.03 32.1381 348.243 32.1575C348.456 32.1769 348.653 32.2802 348.79 32.4446L352.155 36.4831C352.286 36.6483 352.347 36.8581 352.326 37.0679C352.304 37.2776 352.201 37.4706 352.039 37.6056C351.877 37.7406 351.669 37.8069 351.459 37.7903C351.249 37.7737 351.053 37.6756 350.914 37.5169L347.549 33.4785C347.412 33.3139 347.346 33.1017 347.366 32.8884C347.385 32.6752 347.488 32.4784 347.653 32.3412Z" fill="black"/>
<path fill-rule="evenodd" clip-rule="evenodd" d="M347.653 41.6588C347.488 41.5219 347.385 41.3252 347.365 41.112C347.345 40.8987 347.411 40.6864 347.548 40.5216L350.914 36.4832C350.981 36.3988 351.064 36.3287 351.159 36.2769C351.253 36.2251 351.357 36.1928 351.464 36.1817C351.571 36.1707 351.68 36.1812 351.783 36.2126C351.886 36.244 351.981 36.2957 352.064 36.3647C352.147 36.4336 352.215 36.5184 352.264 36.6141C352.314 36.7098 352.344 36.8143 352.352 36.9217C352.361 37.0291 352.348 37.1371 352.314 37.2393C352.28 37.3415 352.226 37.4359 352.155 37.517L348.79 41.5555C348.653 41.7199 348.456 41.8232 348.243 41.8426C348.03 41.862 347.817 41.7959 347.653 41.6588Z" fill="black"/>
<path fill-rule="evenodd" clip-rule="evenodd" d="M351.615 37C351.615 37.2142 351.53 37.4197 351.379 37.5712C351.227 37.7226 351.022 37.8077 350.808 37.8077H338.692C338.478 37.8077 338.273 37.7226 338.121 37.5712C337.97 37.4197 337.885 37.2142 337.885 37C337.885 36.7858 337.97 36.5804 338.121 36.4289C338.273 36.2774 338.478 36.1923 338.692 36.1923H350.808C351.022 36.1923 351.227 36.2774 351.379 36.4289C351.53 36.5804 351.615 36.7858 351.615 37ZM359.692 48.3077C359.692 48.5219 359.607 48.7274 359.456 48.8788C359.304 49.0303 359.099 49.1154 358.885 49.1154H344.023C343.809 49.1154 343.603 49.0303 343.452 48.8788C343.3 48.7274 343.215 48.5219 343.215 48.3077C343.215 48.0935 343.3 47.8881 343.452 47.7366C343.603 47.5851 343.809 47.5 344.023 47.5H358.885C359.099 47.5 359.304 47.5851 359.456 47.7366C359.607 47.8881 359.692 48.0935 359.692 48.3077ZM359.692 25.6923C359.692 25.9065 359.607 26.112 359.456 26.2635C359.304 26.4149 359.099 26.5 358.885 26.5H344.065C343.851 26.5 343.645 26.4149 343.494 26.2635C343.342 26.112 343.257 25.9065 343.257 25.6923C343.257 25.4781 343.342 25.2727 343.494 25.1212C343.645 24.9697 343.851 24.8846 344.065 24.8846H358.885C359.099 24.8846 359.304 24.9697 359.456 25.1212C359.607 25.2727 359.692 25.4781 359.692 25.6923Z" fill="black"/>
<path fill-rule="evenodd" clip-rule="evenodd" d="M343.942 49.1154C343.728 49.1154 343.523 49.0303 343.371 48.8788C343.22 48.7274 343.135 48.5219 343.135 48.3077V41.8462C343.135 41.632 343.22 41.4265 343.371 41.2751C343.523 41.1236 343.728 41.0385 343.942 41.0385C344.157 41.0385 344.362 41.1236 344.513 41.2751C344.665 41.4265 344.75 41.632 344.75 41.8462V48.3077C344.75 48.5219 344.665 48.7274 344.513 48.8788C344.362 49.0303 344.157 49.1154 343.942 49.1154ZM343.942 32.9616C343.728 32.9616 343.523 32.8765 343.371 32.725C343.22 32.5735 343.135 32.3681 343.135 32.1539V25.6923C343.135 25.4781 343.22 25.2727 343.371 25.1212C343.523 24.9697 343.728 24.8846 343.942 24.8846C344.157 24.8846 344.362 24.9697 344.513 25.1212C344.665 25.2727 344.75 25.4781 344.75 25.6923V32.1539C344.75 32.3681 344.665 32.5735 344.513 32.725C344.362 32.8765 344.157 32.9616 343.942 32.9616ZM359.046 49.1154C358.832 49.1154 358.626 49.0303 358.475 48.8788C358.324 48.7274 358.238 48.5219 358.238 48.3077V25.6923C358.238 25.4781 358.324 25.2727 358.475 25.1212C358.626 24.9697 358.832 24.8846 359.046 24.8846C359.26 24.8846 359.466 24.9697 359.617 25.1212C359.769 25.2727 359.854 25.4781 359.854 25.6923V48.3077C359.854 48.5219 359.769 48.7274 359.617 48.8788C359.466 49.0303 359.26 49.1154 359.046 49.1154Z" fill="black"/>
<path fill-rule="evenodd" clip-rule="evenodd" d="M350 55.577C360.259 55.577 368.577 47.2594 368.577 37C368.577 26.7407 360.259 18.4231 350 18.4231C339.741 18.4231 331.423 26.7407 331.423 37C331.423 47.2594 339.741 55.577 350 55.577ZM350 57.1924C361.153 57.1924 370.192 48.1527 370.192 37C370.192 25.8474 361.153 16.8077 350 16.8077C338.847 16.8077 329.808 25.8474 329.808 37C329.808 48.1527 338.847 57.1924 350 57.1924Z" fill="black"/>
</g>
<defs>
<clipPath id="clip0_3_42">
<rect width="42" height="42" fill="white" transform="translate(329 16)"/>
</clipPath>
</defs>
</svg>
