<svg width="674" height="80" viewBox="0 0 674 80" fill="none" xmlns="http://www.w3.org/2000/svg">
<path d="M128.05 72.35C130.197 72.35 132.017 72.1633 133.51 71.79C135.004 71.4167 136.287 70.9033 137.36 70.25L139.32 77.25C138.2 77.9033 136.614 78.4867 134.56 79C132.507 79.5133 130.01 79.77 127.07 79.77C123.757 79.77 120.7 79.2567 117.9 78.23C115.1 77.1567 112.674 75.64 110.62 73.68C108.614 71.6733 107.05 69.27 105.93 66.47C104.81 63.6233 104.25 60.4267 104.25 56.88C104.25 53.4267 104.787 50.3 105.86 47.5C106.98 44.7 108.52 42.32 110.48 40.36C112.487 38.3533 114.914 36.8133 117.76 35.74C120.607 34.6667 123.78 34.13 127.28 34.13C130.267 34.13 132.717 34.41 134.63 34.97C136.59 35.53 138.177 36.1367 139.39 36.79L137.22 43.86C136.007 43.2067 134.654 42.67 133.16 42.25C131.714 41.7833 130.08 41.55 128.26 41.55C126.347 41.55 124.55 41.83 122.87 42.39C121.19 42.95 119.72 43.86 118.46 45.12C117.2 46.3333 116.197 47.92 115.45 49.88C114.75 51.7933 114.4 54.1267 114.4 56.88C114.4 59.54 114.75 61.85 115.45 63.81C116.15 65.7233 117.107 67.31 118.32 68.57C119.58 69.83 121.027 70.7867 122.66 71.44C124.34 72.0467 126.137 72.35 128.05 72.35ZM155.706 79H146.396V29.02H155.706V48.62C157.059 47.5467 158.599 46.66 160.326 45.96C162.099 45.26 164.012 44.91 166.066 44.91C168.026 44.91 169.729 45.2133 171.176 45.82C172.669 46.38 173.882 47.1967 174.816 48.27C175.796 49.2967 176.519 50.5567 176.986 52.05C177.452 53.4967 177.686 55.0833 177.686 56.81V79H168.376V58.42C168.376 56.1333 167.909 54.5 166.976 53.52C166.042 52.54 164.689 52.05 162.916 52.05C161.702 52.05 160.442 52.3533 159.136 52.96C157.876 53.52 156.732 54.29 155.706 55.27V79ZM186.806 48.55C188.813 47.3833 190.936 46.4967 193.176 45.89C195.416 45.2367 197.796 44.91 200.316 44.91C202.323 44.91 204.143 45.1433 205.776 45.61C207.456 46.0767 208.879 46.8233 210.046 47.85C211.259 48.83 212.169 50.1133 212.776 51.7C213.429 53.24 213.756 55.1067 213.756 57.3V79H206.546L205.706 75.57H205.426C204.353 76.8767 202.976 77.9033 201.296 78.65C199.663 79.3967 197.749 79.77 195.556 79.77C193.736 79.77 192.126 79.5133 190.726 79C189.326 78.44 188.136 77.7167 187.156 76.83C186.176 75.8967 185.429 74.8 184.916 73.54C184.449 72.28 184.216 70.9267 184.216 69.48C184.216 67.5667 184.613 65.9333 185.406 64.58C186.246 63.18 187.389 62.0367 188.836 61.15C190.283 60.2633 191.963 59.61 193.876 59.19C195.836 58.77 197.936 58.56 200.176 58.56H204.376V56.53C204.376 54.99 203.886 53.87 202.906 53.17C201.973 52.4233 200.643 52.05 198.916 52.05C197.563 52.05 196.163 52.26 194.716 52.68C193.316 53.1 191.753 53.7767 190.026 54.71L186.806 48.55ZM204.446 64.37L201.436 64.44C198.589 64.5333 196.606 65.0233 195.486 65.91C194.366 66.75 193.806 67.7767 193.806 68.99C193.806 70.5767 194.273 71.6733 195.206 72.28C196.186 72.84 197.283 73.12 198.496 73.12C199.709 73.12 200.853 72.77 201.926 72.07C203.046 71.37 203.886 70.5533 204.446 69.62V64.37ZM242.29 52.33H233.4V67.73C233.4 69.3167 233.75 70.4133 234.45 71.02C235.196 71.58 236.176 71.86 237.39 71.86C238.323 71.86 239.28 71.7667 240.26 71.58C241.24 71.3933 242.033 71.1367 242.64 70.81L244.04 77.32C243.246 77.6933 242.056 78.0667 240.47 78.44C238.883 78.8133 237.203 79 235.43 79C231.37 79 228.476 78.2067 226.75 76.62C225.023 74.9867 224.16 72.56 224.16 69.34V52.33H218.98V45.61H224.16V35.32H233.4V45.61H242.29V52.33ZM261.631 45.61H271.361L275.631 63.32L276.891 72.07H277.171L278.641 63.32L282.771 45.61H292.571L296.771 63.32L298.241 72.07H298.521L299.991 63.32L304.121 45.61H313.571L304.331 79H293.481L289.141 60.94L287.671 52.89L286.131 60.94L281.791 79H270.941L261.631 45.61ZM319.086 79V45.61H328.396V79H319.086ZM323.776 38.47C322.19 38.47 320.953 38.0267 320.066 37.14C319.18 36.2067 318.736 35.0633 318.736 33.71C318.736 32.3567 319.18 31.2367 320.066 30.35C320.953 29.4167 322.19 28.95 323.776 28.95C325.316 28.95 326.53 29.4167 327.416 30.35C328.35 31.2367 328.816 32.3567 328.816 33.71C328.816 35.0633 328.373 36.2067 327.486 37.14C326.6 38.0267 325.363 38.47 323.776 38.47ZM357.612 52.33H348.722V67.73C348.722 69.3167 349.072 70.4133 349.772 71.02C350.519 71.58 351.499 71.86 352.712 71.86C353.645 71.86 354.602 71.7667 355.582 71.58C356.562 71.3933 357.355 71.1367 357.962 70.81L359.362 77.32C358.569 77.6933 357.379 78.0667 355.792 78.44C354.205 78.8133 352.525 79 350.752 79C346.692 79 343.799 78.2067 342.072 76.62C340.345 74.9867 339.482 72.56 339.482 69.34V52.33H334.302V45.61H339.482V35.32H348.722V45.61H357.612V52.33ZM373.84 79H364.53V29.02H373.84V48.62C375.194 47.5467 376.734 46.66 378.46 45.96C380.234 45.26 382.147 44.91 384.2 44.91C386.16 44.91 387.864 45.2133 389.31 45.82C390.804 46.38 392.017 47.1967 392.95 48.27C393.93 49.2967 394.654 50.5567 395.12 52.05C395.587 53.4967 395.82 55.0833 395.82 56.81V79H386.51V58.42C386.51 56.1333 386.044 54.5 385.11 53.52C384.177 52.54 382.824 52.05 381.05 52.05C379.837 52.05 378.577 52.3533 377.27 52.96C376.01 53.52 374.867 54.29 373.84 55.27V79ZM421.143 34.9H449.843V42.32H430.733V52.4H448.023V59.75H430.733V71.58H450.053V79H421.143V34.9ZM477.21 29.02H486.52V79H479.87L478.89 75.36H478.54C477.7 76.5267 476.487 77.5533 474.9 78.44C473.36 79.3267 471.33 79.77 468.81 79.77C466.71 79.77 464.75 79.3733 462.93 78.58C461.11 77.7867 459.524 76.6433 458.17 75.15C456.817 73.6567 455.744 71.8367 454.95 69.69C454.204 67.5433 453.83 65.0933 453.83 62.34C453.83 59.68 454.18 57.2767 454.88 55.13C455.58 52.9833 456.584 51.1633 457.89 49.67C459.197 48.13 460.807 46.9633 462.72 46.17C464.634 45.33 466.827 44.91 469.3 44.91C470.887 44.91 472.38 45.1433 473.78 45.61C475.227 46.0767 476.37 46.6833 477.21 47.43V29.02ZM477.21 54.36C476.604 53.6133 475.81 52.9833 474.83 52.47C473.85 51.9567 472.777 51.7 471.61 51.7C470.49 51.7 469.417 51.8867 468.39 52.26C467.41 52.6333 466.524 53.24 465.73 54.08C464.984 54.8733 464.377 55.9467 463.91 57.3C463.444 58.6067 463.21 60.2167 463.21 62.13C463.21 63.9967 463.42 65.6067 463.84 66.96C464.26 68.3133 464.82 69.4333 465.52 70.32C466.22 71.2067 467.037 71.86 467.97 72.28C468.95 72.7 469.977 72.91 471.05 72.91C472.544 72.91 473.804 72.56 474.83 71.86C475.904 71.1133 476.697 70.25 477.21 69.27V54.36ZM516.654 45.61H525.964V79H519.034L518.054 75.22H517.774C517.26 75.7333 516.654 76.27 515.954 76.83C515.3 77.3433 514.507 77.8333 513.574 78.3C512.687 78.72 511.66 79.07 510.494 79.35C509.374 79.63 508.114 79.77 506.714 79.77C503.12 79.77 500.274 78.7667 498.174 76.76C496.12 74.7533 495.094 71.79 495.094 67.87V45.61H504.404V67.1C504.404 69.1067 504.87 70.5533 505.804 71.44C506.784 72.3267 508.02 72.77 509.514 72.77C511.194 72.77 512.617 72.42 513.784 71.72C514.997 71.02 515.954 70.2033 516.654 69.27V45.61ZM556.732 72.35C558.879 72.35 560.699 72.1633 562.192 71.79C563.685 71.4167 564.969 70.9033 566.042 70.25L568.002 77.25C566.882 77.9033 565.295 78.4867 563.242 79C561.189 79.5133 558.692 79.77 555.752 79.77C552.439 79.77 549.382 79.2567 546.582 78.23C543.782 77.1567 541.355 75.64 539.302 73.68C537.295 71.6733 535.732 69.27 534.612 66.47C533.492 63.6233 532.932 60.4267 532.932 56.88C532.932 53.4267 533.469 50.3 534.542 47.5C535.662 44.7 537.202 42.32 539.162 40.36C541.169 38.3533 543.595 36.8133 546.442 35.74C549.289 34.6667 552.462 34.13 555.962 34.13C558.949 34.13 561.399 34.41 563.312 34.97C565.272 35.53 566.859 36.1367 568.072 36.79L565.902 43.86C564.689 43.2067 563.335 42.67 561.842 42.25C560.395 41.7833 558.762 41.55 556.942 41.55C555.029 41.55 553.232 41.83 551.552 42.39C549.872 42.95 548.402 43.86 547.142 45.12C545.882 46.3333 544.879 47.92 544.132 49.88C543.432 51.7933 543.082 54.1267 543.082 56.88C543.082 59.54 543.432 61.85 544.132 63.81C544.832 65.7233 545.789 67.31 547.002 68.57C548.262 69.83 549.709 70.7867 551.342 71.44C553.022 72.0467 554.819 72.35 556.732 72.35ZM584.387 79H575.077V29.02H584.387V48.62C585.741 47.5467 587.281 46.66 589.007 45.96C590.781 45.26 592.694 44.91 594.747 44.91C596.707 44.91 598.411 45.2133 599.857 45.82C601.351 46.38 602.564 47.1967 603.497 48.27C604.477 49.2967 605.201 50.5567 605.667 52.05C606.134 53.4967 606.367 55.0833 606.367 56.81V79H597.057V58.42C597.057 56.1333 596.591 54.5 595.657 53.52C594.724 52.54 593.371 52.05 591.597 52.05C590.384 52.05 589.124 52.3533 587.817 52.96C586.557 53.52 585.414 54.29 584.387 55.27V79ZM615.488 48.55C617.494 47.3833 619.618 46.4967 621.858 45.89C624.098 45.2367 626.478 44.91 628.998 44.91C631.004 44.91 632.824 45.1433 634.458 45.61C636.138 46.0767 637.561 46.8233 638.728 47.85C639.941 48.83 640.851 50.1133 641.458 51.7C642.111 53.24 642.438 55.1067 642.438 57.3V79H635.228L634.388 75.57H634.108C633.034 76.8767 631.658 77.9033 629.978 78.65C628.344 79.3967 626.431 79.77 624.238 79.77C622.418 79.77 620.808 79.5133 619.408 79C618.008 78.44 616.818 77.7167 615.838 76.83C614.858 75.8967 614.111 74.8 613.598 73.54C613.131 72.28 612.898 70.9267 612.898 69.48C612.898 67.5667 613.294 65.9333 614.088 64.58C614.928 63.18 616.071 62.0367 617.518 61.15C618.964 60.2633 620.644 59.61 622.558 59.19C624.518 58.77 626.618 58.56 628.858 58.56H633.058V56.53C633.058 54.99 632.568 53.87 631.588 53.17C630.654 52.4233 629.324 52.05 627.598 52.05C626.244 52.05 624.844 52.26 623.398 52.68C621.998 53.1 620.434 53.7767 618.708 54.71L615.488 48.55ZM633.128 64.37L630.118 64.44C627.271 64.5333 625.288 65.0233 624.168 65.91C623.048 66.75 622.488 67.7767 622.488 68.99C622.488 70.5767 622.954 71.6733 623.888 72.28C624.868 72.84 625.964 73.12 627.178 73.12C628.391 73.12 629.534 72.77 630.608 72.07C631.728 71.37 632.568 70.5533 633.128 69.62V64.37ZM670.971 52.33H662.081V67.73C662.081 69.3167 662.431 70.4133 663.131 71.02C663.878 71.58 664.858 71.86 666.071 71.86C667.005 71.86 667.961 71.7667 668.941 71.58C669.921 71.3933 670.715 71.1367 671.321 70.81L672.721 77.32C671.928 77.6933 670.738 78.0667 669.151 78.44C667.565 78.8133 665.885 79 664.111 79C660.051 79 657.158 78.2067 655.431 76.62C653.705 74.9867 652.841 72.56 652.841 69.34V52.33H647.661V45.61H652.841V35.32H662.081V45.61H670.971V52.33Z" fill="black"/>
<path d="M41.5 11L0 33.6667L15.0909 41.9022V64.5689L41.5 79L67.9091 64.5689V41.9022L75.4545 37.7844V63.8889H83V33.6667L41.5 11ZM67.23 33.6667L41.5 47.72L15.77 33.6667L41.5 19.6133L67.23 33.6667ZM60.3636 60.1111L41.5 70.3867L22.6364 60.1111V46.02L41.5 56.3333L60.3636 46.02V60.1111Z" fill="black"/>
</svg>
