<svg width="800" height="905" viewBox="0 0 800 905" fill="none" xmlns="http://www.w3.org/2000/svg">
<g filter="url(#filter0_d_7_201)">
<rect x="50" y="851" width="805" height="700" rx="51" transform="rotate(-90 50 851)" stroke="black" stroke-opacity="0.5" stroke-width="3" shape-rendering="crispEdges"/>
</g>
<path d="M237.174 148.9H246.764V185.44H264.544V193H237.174V148.9ZM301.768 176.06C301.768 178.813 301.325 181.287 300.438 183.48C299.551 185.673 298.315 187.54 296.728 189.08C295.188 190.573 293.368 191.74 291.268 192.58C289.168 193.373 286.905 193.77 284.478 193.77C282.051 193.77 279.788 193.397 277.688 192.65C275.635 191.903 273.838 190.807 272.298 189.36C270.805 187.913 269.615 186.14 268.728 184.04C267.888 181.893 267.468 179.467 267.468 176.76C267.468 173.913 267.911 171.393 268.798 169.2C269.685 166.96 270.898 165.093 272.438 163.6C274.025 162.06 275.868 160.893 277.968 160.1C280.068 159.307 282.331 158.91 284.758 158.91C287.185 158.91 289.425 159.283 291.478 160.03C293.578 160.777 295.375 161.873 296.868 163.32C298.408 164.72 299.598 166.493 300.438 168.64C301.325 170.787 301.768 173.26 301.768 176.06ZM292.178 176.41C292.178 174.497 291.968 172.863 291.548 171.51C291.128 170.157 290.568 169.06 289.868 168.22C289.168 167.38 288.351 166.773 287.418 166.4C286.485 165.98 285.528 165.77 284.548 165.77C283.568 165.77 282.635 165.957 281.748 166.33C280.861 166.657 280.068 167.24 279.368 168.08C278.668 168.873 278.108 169.947 277.688 171.3C277.268 172.653 277.058 174.357 277.058 176.41C277.058 178.23 277.268 179.817 277.688 181.17C278.108 182.477 278.668 183.55 279.368 184.39C280.115 185.23 280.931 185.86 281.818 186.28C282.751 186.7 283.708 186.91 284.688 186.91C285.668 186.91 286.601 186.747 287.488 186.42C288.375 186.047 289.168 185.44 289.868 184.6C290.568 183.76 291.128 182.687 291.548 181.38C291.968 180.027 292.178 178.37 292.178 176.41ZM308.039 170.95C308.039 169.13 308.389 167.473 309.089 165.98C309.836 164.487 310.839 163.227 312.099 162.2C313.406 161.127 314.923 160.31 316.649 159.75C318.423 159.19 320.359 158.91 322.459 158.91C323.253 158.91 324.116 158.98 325.049 159.12C325.983 159.213 326.846 159.377 327.639 159.61H341.919V165.49H338.909L334.569 164.86C335.176 165.607 335.666 166.54 336.039 167.66C336.459 168.78 336.669 169.9 336.669 171.02C336.669 174.567 335.386 177.437 332.819 179.63C330.299 181.777 326.823 182.85 322.389 182.85C321.223 182.85 320.196 182.757 319.309 182.57C318.143 183.037 317.559 183.807 317.559 184.88C317.559 185.627 317.816 186.187 318.329 186.56C318.843 186.933 319.753 187.12 321.059 187.12H328.549C332.236 187.12 335.176 187.937 337.369 189.57C339.609 191.157 340.729 193.723 340.729 197.27C340.729 199.09 340.286 200.747 339.399 202.24C338.559 203.78 337.346 205.087 335.759 206.16C334.173 207.28 332.259 208.143 330.019 208.75C327.779 209.357 325.283 209.66 322.529 209.66C317.443 209.66 313.406 208.75 310.419 206.93C307.479 205.157 306.009 202.59 306.009 199.23C306.009 197.69 306.523 196.337 307.549 195.17C308.576 194.05 309.999 193.163 311.819 192.51C311.166 192.043 310.513 191.39 309.859 190.55C309.206 189.663 308.879 188.567 308.879 187.26C308.879 185.72 309.346 184.39 310.279 183.27C311.213 182.15 312.403 181.263 313.849 180.61C313.149 180.237 312.449 179.77 311.749 179.21C311.096 178.603 310.489 177.903 309.929 177.11C309.369 176.317 308.903 175.407 308.529 174.38C308.203 173.353 308.039 172.21 308.039 170.95ZM316.999 194.12C316.299 194.493 315.716 194.983 315.249 195.59C314.783 196.197 314.549 196.967 314.549 197.9C314.549 199.253 315.156 200.373 316.369 201.26C317.629 202.193 319.776 202.66 322.809 202.66C325.843 202.66 328.059 202.147 329.459 201.12C330.859 200.093 331.559 198.927 331.559 197.62C331.559 196.313 331.116 195.403 330.229 194.89C329.343 194.377 327.966 194.12 326.099 194.12H316.999ZM327.569 170.88C327.569 169.06 327.079 167.683 326.099 166.75C325.119 165.817 323.883 165.35 322.389 165.35C320.849 165.35 319.589 165.817 318.609 166.75C317.676 167.683 317.209 169.037 317.209 170.81C317.209 172.677 317.699 174.077 318.679 175.01C319.659 175.943 320.896 176.41 322.389 176.41C323.929 176.41 325.166 175.943 326.099 175.01C327.079 174.077 327.569 172.7 327.569 170.88ZM348.876 193V159.61H358.186V193H348.876ZM353.566 152.47C351.98 152.47 350.743 152.027 349.856 151.14C348.97 150.207 348.526 149.063 348.526 147.71C348.526 146.357 348.97 145.237 349.856 144.35C350.743 143.417 351.98 142.95 353.566 142.95C355.106 142.95 356.32 143.417 357.206 144.35C358.14 145.237 358.606 146.357 358.606 147.71C358.606 149.063 358.163 150.207 357.276 151.14C356.39 152.027 355.153 152.47 353.566 152.47ZM376.762 193H367.452V159.61H374.732L375.852 163.88C377.392 162.293 379.072 161.08 380.892 160.24C382.759 159.353 384.812 158.91 387.052 158.91C390.739 158.91 393.562 159.913 395.522 161.92C397.482 163.927 398.462 166.843 398.462 170.67V193H389.152V171.65C389.152 169.923 388.732 168.57 387.892 167.59C387.052 166.563 385.815 166.05 384.182 166.05C382.969 166.05 381.685 166.4 380.332 167.1C379.025 167.753 377.835 168.663 376.762 169.83V193ZM423.726 193V148.9H433.316V166.4H450.046V148.9H459.636V193H450.046V173.96H433.316V193H423.726ZM498.511 178.72H476.321V179C476.321 181.66 477.254 183.643 479.121 184.95C480.987 186.257 483.391 186.91 486.331 186.91C488.197 186.91 489.831 186.723 491.231 186.35C492.677 185.977 493.984 185.533 495.151 185.02L496.831 191.53C495.571 192.137 493.984 192.65 492.071 193.07C490.157 193.537 487.894 193.77 485.281 193.77C482.761 193.77 480.381 193.443 478.141 192.79C475.947 192.09 474.011 191.04 472.331 189.64C470.697 188.24 469.391 186.467 468.411 184.32C467.431 182.173 466.941 179.607 466.941 176.62C466.941 173.96 467.337 171.557 468.131 169.41C468.924 167.217 470.044 165.35 471.491 163.81C472.984 162.27 474.757 161.08 476.811 160.24C478.864 159.353 481.151 158.91 483.671 158.91C488.197 158.91 491.791 160.287 494.451 163.04C497.157 165.793 498.511 169.643 498.511 174.59V178.72ZM488.991 172.35C488.991 171.463 488.874 170.6 488.641 169.76C488.454 168.92 488.127 168.197 487.661 167.59C487.194 166.937 486.611 166.423 485.911 166.05C485.211 165.677 484.347 165.49 483.321 165.49C481.454 165.49 479.914 166.12 478.701 167.38C477.487 168.64 476.764 170.343 476.531 172.49L488.991 172.35ZM505.059 193V159.61H512.269L513.319 165.63C514.113 163.857 515.373 162.293 517.099 160.94C518.826 159.587 520.996 158.91 523.609 158.91C524.683 158.91 525.639 159.027 526.479 159.26C527.319 159.493 528.019 159.773 528.579 160.1L527.039 167.45C526.526 167.17 525.873 166.937 525.079 166.75C524.286 166.517 523.353 166.4 522.279 166.4C519.993 166.4 518.079 167.17 516.539 168.71C515.046 170.203 514.299 172.677 514.299 176.13V193H505.059ZM560.307 178.72H538.117V179C538.117 181.66 539.051 183.643 540.917 184.95C542.784 186.257 545.187 186.91 548.127 186.91C549.994 186.91 551.627 186.723 553.027 186.35C554.474 185.977 555.781 185.533 556.947 185.02L558.627 191.53C557.367 192.137 555.781 192.65 553.867 193.07C551.954 193.537 549.691 193.77 547.077 193.77C544.557 193.77 542.177 193.443 539.937 192.79C537.744 192.09 535.807 191.04 534.127 189.64C532.494 188.24 531.187 186.467 530.207 184.32C529.227 182.173 528.737 179.607 528.737 176.62C528.737 173.96 529.134 171.557 529.927 169.41C530.721 167.217 531.841 165.35 533.287 163.81C534.781 162.27 536.554 161.08 538.607 160.24C540.661 159.353 542.947 158.91 545.467 158.91C549.994 158.91 553.587 160.287 556.247 163.04C558.954 165.793 560.307 169.643 560.307 174.59V178.72ZM550.787 172.35C550.787 171.463 550.671 170.6 550.437 169.76C550.251 168.92 549.924 168.197 549.457 167.59C548.991 166.937 548.407 166.423 547.707 166.05C547.007 165.677 546.144 165.49 545.117 165.49C543.251 165.49 541.711 166.12 540.497 167.38C539.284 168.64 538.561 170.343 538.327 172.49L550.787 172.35Z" fill="black"/>
<path d="M169.357 350.1H181.057V352.68H172.567V357.9H180.277V360.45H172.567V366.42H181.147V369H169.357V350.1ZM187.293 369H184.203V354.84H186.603L187.023 356.73C187.683 356.07 188.393 355.55 189.153 355.17C189.913 354.79 190.803 354.6 191.823 354.6C192.843 354.6 193.673 354.8 194.313 355.2C194.973 355.6 195.473 356.16 195.813 356.88C196.493 356.16 197.243 355.6 198.063 355.2C198.903 354.8 199.823 354.6 200.823 354.6C202.303 354.6 203.413 355.01 204.153 355.83C204.913 356.63 205.293 357.77 205.293 359.25V369H202.203V359.73C202.203 358.87 202.013 358.21 201.633 357.75C201.273 357.29 200.673 357.06 199.833 357.06C198.553 357.06 197.373 357.63 196.293 358.77V369H193.203V359.73C193.203 358.87 193.013 358.21 192.633 357.75C192.273 357.29 191.673 357.06 190.833 357.06C189.553 357.06 188.373 357.66 187.293 358.86V369ZM209.402 356.1C210.322 355.6 211.202 355.23 212.042 354.99C212.902 354.73 213.852 354.6 214.892 354.6C215.692 354.6 216.422 354.69 217.082 354.87C217.762 355.05 218.342 355.34 218.822 355.74C219.302 356.14 219.672 356.68 219.932 357.36C220.212 358.02 220.352 358.83 220.352 359.79V369H217.862L217.532 367.47H217.442C216.882 368.11 216.232 368.58 215.492 368.88C214.752 369.16 213.932 369.3 213.032 369.3C211.612 369.3 210.462 368.92 209.582 368.16C208.722 367.4 208.292 366.39 208.292 365.13C208.292 364.35 208.452 363.68 208.772 363.12C209.092 362.54 209.542 362.06 210.122 361.68C210.702 361.3 211.392 361.02 212.192 360.84C212.992 360.64 213.872 360.54 214.832 360.54H217.232V359.46C217.232 358.56 216.992 357.94 216.512 357.6C216.032 357.24 215.372 357.06 214.532 357.06C214.012 357.06 213.422 357.15 212.762 357.33C212.122 357.49 211.382 357.8 210.542 358.26L209.402 356.1ZM217.262 362.58L215.372 362.61C213.952 362.65 212.952 362.9 212.372 363.36C211.792 363.82 211.502 364.36 211.502 364.98C211.502 365.38 211.562 365.71 211.682 365.97C211.822 366.23 212.002 366.44 212.222 366.6C212.442 366.76 212.692 366.88 212.972 366.96C213.272 367.02 213.572 367.05 213.872 367.05C214.492 367.05 215.102 366.9 215.702 366.6C216.322 366.28 216.842 365.83 217.262 365.25V362.58ZM224.406 369V354.84H227.496V369H224.406ZM225.966 351.33C225.426 351.33 224.996 351.17 224.676 350.85C224.356 350.51 224.196 350.09 224.196 349.59C224.196 349.09 224.356 348.68 224.676 348.36C224.996 348.02 225.426 347.85 225.966 347.85C226.486 347.85 226.906 348.02 227.226 348.36C227.566 348.68 227.736 349.09 227.736 349.59C227.736 350.11 227.566 350.53 227.226 350.85C226.906 351.17 226.486 351.33 225.966 351.33ZM231.872 369V347.67H234.902V369H231.872ZM238.449 367.23C238.449 366.65 238.649 366.16 239.049 365.76C239.449 365.36 239.929 365.16 240.489 365.16C241.029 365.16 241.489 365.36 241.869 365.76C242.269 366.16 242.469 366.65 242.469 367.23C242.469 367.87 242.269 368.38 241.869 368.76C241.489 369.12 241.029 369.3 240.489 369.3C239.929 369.3 239.449 369.12 239.049 368.76C238.649 368.38 238.449 367.87 238.449 367.23ZM238.449 358.14C238.449 357.56 238.649 357.08 239.049 356.7C239.449 356.3 239.929 356.1 240.489 356.1C241.029 356.1 241.489 356.3 241.869 356.7C242.269 357.08 242.469 357.56 242.469 358.14C242.469 358.78 242.269 359.29 241.869 359.67C241.489 360.03 241.029 360.21 240.489 360.21C239.929 360.21 239.449 360.03 239.049 359.67C238.649 359.29 238.449 358.78 238.449 358.14Z" fill="black"/>
<path d="M169.34 488.1H175.52C176.54 488.1 177.46 488.23 178.28 488.49C179.12 488.75 179.83 489.13 180.41 489.63C181.01 490.11 181.47 490.71 181.79 491.43C182.13 492.13 182.3 492.94 182.3 493.86C182.3 494.88 182.12 495.77 181.76 496.53C181.4 497.27 180.9 497.89 180.26 498.39C179.62 498.87 178.86 499.23 177.98 499.47C177.12 499.71 176.18 499.83 175.16 499.83H172.55V507H169.34V488.1ZM172.55 497.28H174.26C174.94 497.28 175.56 497.23 176.12 497.13C176.7 497.03 177.2 496.86 177.62 496.62C178.04 496.36 178.37 496.02 178.61 495.6C178.85 495.16 178.97 494.6 178.97 493.92C178.97 493.32 178.86 492.81 178.64 492.39C178.42 491.97 178.12 491.63 177.74 491.37C177.36 491.11 176.93 490.92 176.45 490.8C175.97 490.68 175.46 490.62 174.92 490.62H172.55V497.28ZM185.244 494.1C186.164 493.6 187.044 493.23 187.884 492.99C188.744 492.73 189.694 492.6 190.734 492.6C191.534 492.6 192.264 492.69 192.924 492.87C193.604 493.05 194.184 493.34 194.664 493.74C195.144 494.14 195.514 494.68 195.774 495.36C196.054 496.02 196.194 496.83 196.194 497.79V507H193.704L193.374 505.47H193.284C192.724 506.11 192.074 506.58 191.334 506.88C190.594 507.16 189.774 507.3 188.874 507.3C187.454 507.3 186.304 506.92 185.424 506.16C184.564 505.4 184.134 504.39 184.134 503.13C184.134 502.35 184.294 501.68 184.614 501.12C184.934 500.54 185.384 500.06 185.964 499.68C186.544 499.3 187.234 499.02 188.034 498.84C188.834 498.64 189.714 498.54 190.674 498.54H193.074V497.46C193.074 496.56 192.834 495.94 192.354 495.6C191.874 495.24 191.214 495.06 190.374 495.06C189.854 495.06 189.264 495.15 188.604 495.33C187.964 495.49 187.224 495.8 186.384 496.26L185.244 494.1ZM193.104 500.58L191.214 500.61C189.794 500.65 188.794 500.9 188.214 501.36C187.634 501.82 187.344 502.36 187.344 502.98C187.344 503.38 187.404 503.71 187.524 503.97C187.664 504.23 187.844 504.44 188.064 504.6C188.284 504.76 188.534 504.88 188.814 504.96C189.114 505.02 189.414 505.05 189.714 505.05C190.334 505.05 190.944 504.9 191.544 504.6C192.164 504.28 192.684 503.83 193.104 503.25V500.58ZM208.371 495.72C207.731 495.42 207.131 495.21 206.571 495.09C206.031 494.95 205.491 494.88 204.951 494.88C204.111 494.88 203.471 495.04 203.031 495.36C202.611 495.66 202.401 496.07 202.401 496.59C202.401 496.99 202.561 497.34 202.881 497.64C203.201 497.92 203.861 498.2 204.861 498.48L205.761 498.75C207.061 499.15 208.041 499.67 208.701 500.31C209.381 500.95 209.721 501.81 209.721 502.89C209.721 504.21 209.221 505.28 208.221 506.1C207.221 506.9 205.851 507.3 204.111 507.3C203.171 507.3 202.291 507.21 201.471 507.03C200.671 506.87 199.951 506.64 199.311 506.34L200.031 504C200.611 504.28 201.231 504.51 201.891 504.69C202.551 504.87 203.231 504.96 203.931 504.96C204.791 504.96 205.461 504.81 205.941 504.51C206.421 504.21 206.661 503.75 206.661 503.13C206.661 502.55 206.441 502.14 206.001 501.9C205.581 501.64 204.921 501.37 204.021 501.09L203.091 500.82C201.831 500.4 200.891 499.87 200.271 499.23C199.671 498.59 199.371 497.75 199.371 496.71C199.371 496.09 199.501 495.53 199.761 495.03C200.021 494.53 200.381 494.1 200.841 493.74C201.301 493.38 201.851 493.1 202.491 492.9C203.151 492.7 203.871 492.6 204.651 492.6C205.391 492.6 206.141 492.67 206.901 492.81C207.681 492.95 208.401 493.17 209.061 493.47L208.371 495.72ZM220.851 495.72C220.211 495.42 219.611 495.21 219.051 495.09C218.511 494.95 217.971 494.88 217.431 494.88C216.591 494.88 215.951 495.04 215.511 495.36C215.091 495.66 214.881 496.07 214.881 496.59C214.881 496.99 215.041 497.34 215.361 497.64C215.681 497.92 216.341 498.2 217.341 498.48L218.241 498.75C219.541 499.15 220.521 499.67 221.181 500.31C221.861 500.95 222.201 501.81 222.201 502.89C222.201 504.21 221.701 505.28 220.701 506.1C219.701 506.9 218.331 507.3 216.591 507.3C215.651 507.3 214.771 507.21 213.951 507.03C213.151 506.87 212.431 506.64 211.791 506.34L212.511 504C213.091 504.28 213.711 504.51 214.371 504.69C215.031 504.87 215.711 504.96 216.411 504.96C217.271 504.96 217.941 504.81 218.421 504.51C218.901 504.21 219.141 503.75 219.141 503.13C219.141 502.55 218.921 502.14 218.481 501.9C218.061 501.64 217.401 501.37 216.501 501.09L215.571 500.82C214.311 500.4 213.371 499.87 212.751 499.23C212.151 498.59 211.851 497.75 211.851 496.71C211.851 496.09 211.981 495.53 212.241 495.03C212.501 494.53 212.861 494.1 213.321 493.74C213.781 493.38 214.331 493.1 214.971 492.9C215.631 492.7 216.351 492.6 217.131 492.6C217.871 492.6 218.621 492.67 219.381 492.81C220.161 492.95 220.881 493.17 221.541 493.47L220.851 495.72ZM223.522 492.84H226.792L229.012 501.27L229.552 504.63H229.672L230.332 501.27L232.522 492.84H235.822L238.102 501.27L238.732 504.63H238.852L239.482 501.27L241.642 492.84H244.792L240.622 507H237.052L234.832 498.66L234.172 495.18L233.482 498.66L231.202 507H227.752L223.522 492.84ZM260.111 499.77C260.111 500.95 259.921 502.01 259.541 502.95C259.181 503.89 258.681 504.68 258.041 505.32C257.401 505.96 256.651 506.45 255.791 506.79C254.931 507.13 254.001 507.3 253.001 507.3C252.001 507.3 251.071 507.14 250.211 506.82C249.371 506.5 248.631 506.04 247.991 505.44C247.371 504.82 246.881 504.06 246.521 503.16C246.181 502.26 246.011 501.23 246.011 500.07C246.011 498.87 246.191 497.81 246.551 496.89C246.931 495.97 247.441 495.19 248.081 494.55C248.721 493.91 249.471 493.43 250.331 493.11C251.191 492.77 252.121 492.6 253.121 492.6C254.121 492.6 255.041 492.76 255.881 493.08C256.741 493.38 257.481 493.83 258.101 494.43C258.741 495.03 259.231 495.78 259.571 496.68C259.931 497.58 260.111 498.61 260.111 499.77ZM256.901 499.92C256.901 499.02 256.791 498.26 256.571 497.64C256.351 497 256.061 496.48 255.701 496.08C255.341 495.68 254.931 495.39 254.471 495.21C254.011 495.03 253.531 494.94 253.031 494.94C252.551 494.94 252.081 495.02 251.621 495.18C251.161 495.34 250.751 495.61 250.391 495.99C250.031 496.37 249.741 496.88 249.521 497.52C249.321 498.16 249.221 498.96 249.221 499.92C249.221 500.8 249.331 501.56 249.551 502.2C249.771 502.84 250.061 503.37 250.421 503.79C250.781 504.19 251.191 504.49 251.651 504.69C252.131 504.87 252.611 504.96 253.091 504.96C253.571 504.96 254.041 504.88 254.501 504.72C254.961 504.56 255.371 504.29 255.731 503.91C256.091 503.51 256.371 502.99 256.571 502.35C256.791 501.69 256.901 500.88 256.901 499.92ZM263.169 507V492.84H265.509L265.959 495.57C266.299 494.73 266.849 494.03 267.609 493.47C268.369 492.89 269.289 492.6 270.369 492.6C270.849 492.6 271.259 492.64 271.599 492.72C271.959 492.8 272.279 492.91 272.559 493.05L271.989 495.63C271.749 495.51 271.469 495.41 271.149 495.33C270.849 495.25 270.499 495.21 270.099 495.21C268.999 495.21 268.079 495.59 267.339 496.35C266.599 497.09 266.229 498.22 266.229 499.74V507H263.169ZM282.959 485.67H286.049V507H283.619L283.259 505.44H283.139C282.619 506.04 282.039 506.5 281.399 506.82C280.759 507.14 279.929 507.3 278.909 507.3C278.109 507.3 277.339 507.15 276.599 506.85C275.879 506.53 275.229 506.06 274.649 505.44C274.089 504.82 273.639 504.05 273.299 503.13C272.959 502.21 272.789 501.15 272.789 499.95C272.789 498.83 272.929 497.82 273.209 496.92C273.509 496.02 273.929 495.25 274.469 494.61C275.029 493.97 275.709 493.48 276.509 493.14C277.309 492.78 278.219 492.6 279.239 492.6C279.939 492.6 280.619 492.71 281.279 492.93C281.939 493.15 282.499 493.46 282.959 493.86V485.67ZM282.959 496.35C282.119 495.39 281.109 494.91 279.929 494.91C279.409 494.91 278.909 495 278.429 495.18C277.949 495.36 277.519 495.65 277.139 496.05C276.759 496.45 276.459 496.96 276.239 497.58C276.019 498.2 275.909 498.96 275.909 499.86C275.909 500.76 276.009 501.53 276.209 502.17C276.429 502.81 276.709 503.34 277.049 503.76C277.389 504.18 277.779 504.49 278.219 504.69C278.679 504.87 279.149 504.96 279.629 504.96C280.349 504.96 280.979 504.8 281.519 504.48C282.079 504.16 282.559 503.71 282.959 503.13V496.35ZM289.466 505.23C289.466 504.65 289.666 504.16 290.066 503.76C290.466 503.36 290.946 503.16 291.506 503.16C292.046 503.16 292.506 503.36 292.886 503.76C293.286 504.16 293.486 504.65 293.486 505.23C293.486 505.87 293.286 506.38 292.886 506.76C292.506 507.12 292.046 507.3 291.506 507.3C290.946 507.3 290.466 507.12 290.066 506.76C289.666 506.38 289.466 505.87 289.466 505.23ZM289.466 496.14C289.466 495.56 289.666 495.08 290.066 494.7C290.466 494.3 290.946 494.1 291.506 494.1C292.046 494.1 292.506 494.3 292.886 494.7C293.286 495.08 293.486 495.56 293.486 496.14C293.486 496.78 293.286 497.29 292.886 497.67C292.506 498.03 292.046 498.21 291.506 498.21C290.946 498.21 290.466 498.03 290.066 497.67C289.666 497.29 289.466 496.78 289.466 496.14Z" fill="black"/>
<path d="M501.475 563.4V565.12H496.015V568.96H501.035V570.66H496.015V576H493.875V563.4H501.475ZM511.988 571.18C511.988 571.967 511.861 572.673 511.608 573.3C511.368 573.927 511.034 574.453 510.608 574.88C510.181 575.307 509.681 575.633 509.108 575.86C508.534 576.087 507.914 576.2 507.248 576.2C506.581 576.2 505.961 576.093 505.388 575.88C504.828 575.667 504.334 575.36 503.908 574.96C503.494 574.547 503.168 574.04 502.928 573.44C502.701 572.84 502.588 572.153 502.588 571.38C502.588 570.58 502.708 569.873 502.948 569.26C503.201 568.647 503.541 568.127 503.968 567.7C504.394 567.273 504.894 566.953 505.468 566.74C506.041 566.513 506.661 566.4 507.328 566.4C507.994 566.4 508.608 566.507 509.168 566.72C509.741 566.92 510.234 567.22 510.648 567.62C511.074 568.02 511.401 568.52 511.628 569.12C511.868 569.72 511.988 570.407 511.988 571.18ZM509.848 571.28C509.848 570.68 509.774 570.173 509.628 569.76C509.481 569.333 509.288 568.987 509.048 568.72C508.808 568.453 508.534 568.26 508.228 568.14C507.921 568.02 507.601 567.96 507.268 567.96C506.948 567.96 506.634 568.013 506.328 568.12C506.021 568.227 505.748 568.407 505.508 568.66C505.268 568.913 505.074 569.253 504.928 569.68C504.794 570.107 504.728 570.64 504.728 571.28C504.728 571.867 504.801 572.373 504.948 572.8C505.094 573.227 505.288 573.58 505.528 573.86C505.768 574.127 506.041 574.327 506.348 574.46C506.668 574.58 506.988 574.64 507.308 574.64C507.628 574.64 507.941 574.587 508.248 574.48C508.554 574.373 508.828 574.193 509.068 573.94C509.308 573.673 509.494 573.327 509.628 572.9C509.774 572.46 509.848 571.92 509.848 571.28ZM514.026 576V566.56H515.586L515.886 568.38C516.113 567.82 516.479 567.353 516.986 566.98C517.493 566.593 518.106 566.4 518.826 566.4C519.146 566.4 519.419 566.427 519.646 566.48C519.886 566.533 520.099 566.607 520.286 566.7L519.906 568.42C519.746 568.34 519.559 568.273 519.346 568.22C519.146 568.167 518.913 568.14 518.646 568.14C517.913 568.14 517.299 568.393 516.806 568.9C516.313 569.393 516.066 570.147 516.066 571.16V576H514.026ZM521.289 569.72C521.289 569.2 521.383 568.733 521.569 568.32C521.769 567.907 522.043 567.56 522.389 567.28C522.736 566.987 523.149 566.767 523.629 566.62C524.109 566.473 524.629 566.4 525.189 566.4C525.603 566.4 526.023 566.453 526.449 566.56H530.509V567.98H529.809L528.329 567.78C528.556 568.033 528.736 568.327 528.869 568.66C529.003 568.993 529.069 569.34 529.069 569.7C529.069 570.22 528.976 570.687 528.789 571.1C528.603 571.5 528.336 571.847 527.989 572.14C527.656 572.42 527.249 572.633 526.769 572.78C526.289 572.927 525.763 573 525.189 573C525.003 573 524.823 572.993 524.649 572.98C524.489 572.967 524.329 572.947 524.169 572.92C523.916 573.027 523.736 573.153 523.629 573.3C523.523 573.447 523.469 573.607 523.469 573.78C523.469 574.047 523.563 574.233 523.749 574.34C523.936 574.447 524.203 574.5 524.549 574.5H526.929C527.969 574.5 528.776 574.74 529.349 575.22C529.936 575.687 530.229 576.36 530.229 577.24C530.229 577.76 530.109 578.227 529.869 578.64C529.643 579.067 529.309 579.427 528.869 579.72C528.443 580.027 527.923 580.26 527.309 580.42C526.696 580.58 526.009 580.66 525.249 580.66C523.849 580.66 522.743 580.413 521.929 579.92C521.116 579.427 520.709 578.7 520.709 577.74C520.709 577.273 520.863 576.873 521.169 576.54C521.476 576.207 521.883 575.947 522.389 575.76C522.149 575.6 521.956 575.413 521.809 575.2C521.663 574.973 521.589 574.68 521.589 574.32C521.589 573.893 521.716 573.533 521.969 573.24C522.223 572.933 522.556 572.693 522.969 572.52C522.489 572.293 522.089 571.953 521.769 571.5C521.449 571.033 521.289 570.44 521.289 569.72ZM523.569 576.1C522.956 576.393 522.649 576.833 522.649 577.42C522.649 577.953 522.863 578.36 523.289 578.64C523.729 578.92 524.409 579.06 525.329 579.06C525.849 579.06 526.289 579.007 526.649 578.9C527.009 578.807 527.303 578.68 527.529 578.52C527.769 578.36 527.943 578.18 528.049 577.98C528.156 577.78 528.209 577.573 528.209 577.36C528.209 576.853 528.036 576.513 527.689 576.34C527.356 576.18 526.909 576.1 526.349 576.1H523.569ZM527.009 569.74C527.009 569.1 526.843 568.627 526.509 568.32C526.176 568 525.736 567.84 525.189 567.84C524.629 567.84 524.183 567.993 523.849 568.3C523.529 568.607 523.369 569.067 523.369 569.68C523.369 570.32 523.536 570.793 523.869 571.1C524.203 571.407 524.643 571.56 525.189 571.56C525.749 571.56 526.189 571.407 526.509 571.1C526.843 570.793 527.009 570.34 527.009 569.74ZM540.39 571.64H533.77V571.72C533.77 572.68 534.05 573.407 534.61 573.9C535.17 574.393 535.91 574.64 536.83 574.64C537.337 574.64 537.79 574.6 538.19 574.52C538.603 574.427 539.017 574.287 539.43 574.1L539.83 575.6C539.443 575.773 538.983 575.913 538.45 576.02C537.917 576.14 537.33 576.2 536.69 576.2C536.01 576.2 535.363 576.107 534.75 575.92C534.137 575.733 533.597 575.44 533.13 575.04C532.677 574.64 532.317 574.133 532.05 573.52C531.783 572.907 531.65 572.173 531.65 571.32C531.65 570.587 531.757 569.92 531.97 569.32C532.197 568.707 532.51 568.187 532.91 567.76C533.323 567.32 533.817 566.987 534.39 566.76C534.977 566.52 535.623 566.4 536.33 566.4C536.943 566.4 537.497 566.5 537.99 566.7C538.497 566.9 538.923 567.187 539.27 567.56C539.63 567.92 539.903 568.367 540.09 568.9C540.29 569.42 540.39 570 540.39 570.64V571.64ZM538.27 570.2C538.27 569.88 538.23 569.58 538.15 569.3C538.07 569.02 537.95 568.78 537.79 568.58C537.63 568.367 537.417 568.2 537.15 568.08C536.897 567.947 536.59 567.88 536.23 567.88C535.563 567.88 535.017 568.093 534.59 568.52C534.177 568.947 533.923 569.52 533.83 570.24L538.27 570.2ZM547.586 568.08H544.906V573.18C544.906 573.647 545.013 573.96 545.226 574.12C545.453 574.28 545.753 574.36 546.126 574.36C546.393 574.36 546.673 574.333 546.966 574.28C547.273 574.213 547.539 574.14 547.766 574.06L548.086 575.58C547.819 575.687 547.473 575.787 547.046 575.88C546.633 575.96 546.193 576 545.726 576C544.713 576 543.979 575.793 543.526 575.38C543.086 574.953 542.866 574.327 542.866 573.5V568.08H541.426V566.56H542.866V563.58H544.906V566.56H547.586V568.08ZM554.52 563.4H558.64C559.32 563.4 559.933 563.487 560.48 563.66C561.04 563.833 561.513 564.087 561.9 564.42C562.3 564.74 562.607 565.14 562.82 565.62C563.047 566.087 563.16 566.627 563.16 567.24C563.16 567.92 563.04 568.513 562.8 569.02C562.56 569.513 562.227 569.927 561.8 570.26C561.373 570.58 560.867 570.82 560.28 570.98C559.707 571.14 559.08 571.22 558.4 571.22H556.66V576H554.52V563.4ZM556.66 569.52H557.8C558.253 569.52 558.667 569.487 559.04 569.42C559.427 569.353 559.76 569.24 560.04 569.08C560.32 568.907 560.54 568.68 560.7 568.4C560.86 568.107 560.94 567.733 560.94 567.28C560.94 566.88 560.867 566.54 560.72 566.26C560.573 565.98 560.373 565.753 560.12 565.58C559.867 565.407 559.58 565.28 559.26 565.2C558.94 565.12 558.6 565.08 558.24 565.08H556.66V569.52ZM565.123 567.4C565.736 567.067 566.323 566.82 566.883 566.66C567.456 566.487 568.09 566.4 568.783 566.4C569.316 566.4 569.803 566.46 570.243 566.58C570.696 566.7 571.083 566.893 571.403 567.16C571.723 567.427 571.97 567.787 572.143 568.24C572.33 568.68 572.423 569.22 572.423 569.86V576H570.763L570.543 574.98H570.483C570.11 575.407 569.676 575.72 569.183 575.92C568.69 576.107 568.143 576.2 567.543 576.2C566.596 576.2 565.83 575.947 565.243 575.44C564.67 574.933 564.383 574.26 564.383 573.42C564.383 572.9 564.49 572.453 564.703 572.08C564.916 571.693 565.216 571.373 565.603 571.12C565.99 570.867 566.45 570.68 566.983 570.56C567.516 570.427 568.103 570.36 568.743 570.36H570.343V569.64C570.343 569.04 570.183 568.627 569.863 568.4C569.543 568.16 569.103 568.04 568.543 568.04C568.196 568.04 567.803 568.1 567.363 568.22C566.936 568.327 566.443 568.533 565.883 568.84L565.123 567.4ZM570.363 571.72L569.103 571.74C568.156 571.767 567.49 571.933 567.103 572.24C566.716 572.547 566.523 572.907 566.523 573.32C566.523 573.587 566.563 573.807 566.643 573.98C566.736 574.153 566.856 574.293 567.003 574.4C567.15 574.507 567.316 574.587 567.503 574.64C567.703 574.68 567.903 574.7 568.103 574.7C568.516 574.7 568.923 574.6 569.323 574.4C569.736 574.187 570.083 573.887 570.363 573.5V571.72ZM580.541 568.48C580.114 568.28 579.714 568.14 579.341 568.06C578.981 567.967 578.621 567.92 578.261 567.92C577.701 567.92 577.274 568.027 576.981 568.24C576.701 568.44 576.561 568.713 576.561 569.06C576.561 569.327 576.667 569.56 576.881 569.76C577.094 569.947 577.534 570.133 578.201 570.32L578.801 570.5C579.667 570.767 580.321 571.113 580.761 571.54C581.214 571.967 581.441 572.54 581.441 573.26C581.441 574.14 581.107 574.853 580.441 575.4C579.774 575.933 578.861 576.2 577.701 576.2C577.074 576.2 576.487 576.14 575.941 576.02C575.407 575.913 574.927 575.76 574.501 575.56L574.981 574C575.367 574.187 575.781 574.34 576.221 574.46C576.661 574.58 577.114 574.64 577.581 574.64C578.154 574.64 578.601 574.54 578.921 574.34C579.241 574.14 579.401 573.833 579.401 573.42C579.401 573.033 579.254 572.76 578.961 572.6C578.681 572.427 578.241 572.247 577.641 572.06L577.021 571.88C576.181 571.6 575.554 571.247 575.141 570.82C574.741 570.393 574.541 569.833 574.541 569.14C574.541 568.727 574.627 568.353 574.801 568.02C574.974 567.687 575.214 567.4 575.521 567.16C575.827 566.92 576.194 566.733 576.621 566.6C577.061 566.467 577.541 566.4 578.061 566.4C578.554 566.4 579.054 566.447 579.561 566.54C580.081 566.633 580.561 566.78 581.001 566.98L580.541 568.48ZM588.861 568.48C588.434 568.28 588.034 568.14 587.661 568.06C587.301 567.967 586.941 567.92 586.581 567.92C586.021 567.92 585.594 568.027 585.301 568.24C585.021 568.44 584.881 568.713 584.881 569.06C584.881 569.327 584.988 569.56 585.201 569.76C585.414 569.947 585.854 570.133 586.521 570.32L587.121 570.5C587.988 570.767 588.641 571.113 589.081 571.54C589.534 571.967 589.761 572.54 589.761 573.26C589.761 574.14 589.428 574.853 588.761 575.4C588.094 575.933 587.181 576.2 586.021 576.2C585.394 576.2 584.808 576.14 584.261 576.02C583.728 575.913 583.248 575.76 582.821 575.56L583.301 574C583.688 574.187 584.101 574.34 584.541 574.46C584.981 574.58 585.434 574.64 585.901 574.64C586.474 574.64 586.921 574.54 587.241 574.34C587.561 574.14 587.721 573.833 587.721 573.42C587.721 573.033 587.574 572.76 587.281 572.6C587.001 572.427 586.561 572.247 585.961 572.06L585.341 571.88C584.501 571.6 583.874 571.247 583.461 570.82C583.061 570.393 582.861 569.833 582.861 569.14C582.861 568.727 582.948 568.353 583.121 568.02C583.294 567.687 583.534 567.4 583.841 567.16C584.148 566.92 584.514 566.733 584.941 566.6C585.381 566.467 585.861 566.4 586.381 566.4C586.874 566.4 587.374 566.447 587.881 566.54C588.401 566.633 588.881 566.78 589.321 566.98L588.861 568.48ZM590.641 566.56H592.821L594.301 572.18L594.661 574.42H594.741L595.181 572.18L596.641 566.56H598.841L600.361 572.18L600.781 574.42H600.861L601.281 572.18L602.721 566.56H604.821L602.041 576H599.661L598.181 570.44L597.741 568.12L597.281 570.44L595.761 576H593.461L590.641 566.56ZM615.035 571.18C615.035 571.967 614.908 572.673 614.655 573.3C614.415 573.927 614.081 574.453 613.655 574.88C613.228 575.307 612.728 575.633 612.155 575.86C611.581 576.087 610.961 576.2 610.295 576.2C609.628 576.2 609.008 576.093 608.435 575.88C607.875 575.667 607.381 575.36 606.955 574.96C606.541 574.547 606.215 574.04 605.975 573.44C605.748 572.84 605.635 572.153 605.635 571.38C605.635 570.58 605.755 569.873 605.995 569.26C606.248 568.647 606.588 568.127 607.015 567.7C607.441 567.273 607.941 566.953 608.515 566.74C609.088 566.513 609.708 566.4 610.375 566.4C611.041 566.4 611.655 566.507 612.215 566.72C612.788 566.92 613.281 567.22 613.695 567.62C614.121 568.02 614.448 568.52 614.675 569.12C614.915 569.72 615.035 570.407 615.035 571.18ZM612.895 571.28C612.895 570.68 612.821 570.173 612.675 569.76C612.528 569.333 612.335 568.987 612.095 568.72C611.855 568.453 611.581 568.26 611.275 568.14C610.968 568.02 610.648 567.96 610.315 567.96C609.995 567.96 609.681 568.013 609.375 568.12C609.068 568.227 608.795 568.407 608.555 568.66C608.315 568.913 608.121 569.253 607.975 569.68C607.841 570.107 607.775 570.64 607.775 571.28C607.775 571.867 607.848 572.373 607.995 572.8C608.141 573.227 608.335 573.58 608.575 573.86C608.815 574.127 609.088 574.327 609.395 574.46C609.715 574.58 610.035 574.64 610.355 574.64C610.675 574.64 610.988 574.587 611.295 574.48C611.601 574.373 611.875 574.193 612.115 573.94C612.355 573.673 612.541 573.327 612.675 572.9C612.821 572.46 612.895 571.92 612.895 571.28ZM617.073 576V566.56H618.633L618.933 568.38C619.16 567.82 619.526 567.353 620.033 566.98C620.54 566.593 621.153 566.4 621.873 566.4C622.193 566.4 622.466 566.427 622.693 566.48C622.933 566.533 623.146 566.607 623.333 566.7L622.953 568.42C622.793 568.34 622.606 568.273 622.393 568.22C622.193 568.167 621.96 568.14 621.693 568.14C620.96 568.14 620.346 568.393 619.853 568.9C619.36 569.393 619.113 570.147 619.113 571.16V576H617.073ZM630.266 561.78H632.326V576H630.706L630.466 574.96H630.386C630.039 575.36 629.653 575.667 629.226 575.88C628.799 576.093 628.246 576.2 627.566 576.2C627.033 576.2 626.519 576.1 626.026 575.9C625.546 575.687 625.113 575.373 624.726 574.96C624.353 574.547 624.053 574.033 623.826 573.42C623.599 572.807 623.486 572.1 623.486 571.3C623.486 570.553 623.579 569.88 623.766 569.28C623.966 568.68 624.246 568.167 624.606 567.74C624.979 567.313 625.433 566.987 625.966 566.76C626.499 566.52 627.106 566.4 627.786 566.4C628.253 566.4 628.706 566.473 629.146 566.62C629.586 566.767 629.959 566.973 630.266 567.24V561.78ZM630.266 568.9C629.706 568.26 629.033 567.94 628.246 567.94C627.899 567.94 627.566 568 627.246 568.12C626.926 568.24 626.639 568.433 626.386 568.7C626.133 568.967 625.933 569.307 625.786 569.72C625.639 570.133 625.566 570.64 625.566 571.24C625.566 571.84 625.633 572.353 625.766 572.78C625.913 573.207 626.099 573.56 626.326 573.84C626.553 574.12 626.813 574.327 627.106 574.46C627.413 574.58 627.726 574.64 628.046 574.64C628.526 574.64 628.946 574.533 629.306 574.32C629.679 574.107 629.999 573.807 630.266 573.42V568.9Z" fill="black"/>
<path d="M269.197 691.4C270.117 691.4 270.963 691.527 271.737 691.78C272.51 692.033 273.177 692.413 273.737 692.92C274.297 693.413 274.73 694.04 275.037 694.8C275.357 695.547 275.517 696.42 275.517 697.42C275.517 698.607 275.33 699.62 274.957 700.46C274.583 701.287 274.077 701.967 273.437 702.5C272.81 703.02 272.07 703.4 271.217 703.64C270.377 703.88 269.49 704 268.557 704H264.997V691.4H269.197ZM267.137 702.28H268.377C268.99 702.28 269.583 702.213 270.157 702.08C270.743 701.933 271.263 701.68 271.717 701.32C272.17 700.947 272.53 700.447 272.797 699.82C273.077 699.193 273.217 698.393 273.217 697.42C273.217 696.033 272.817 694.973 272.017 694.24C271.23 693.493 270.17 693.12 268.837 693.12H267.137V702.28ZM286.546 699.18C286.546 699.967 286.42 700.673 286.166 701.3C285.926 701.927 285.593 702.453 285.166 702.88C284.74 703.307 284.24 703.633 283.666 703.86C283.093 704.087 282.473 704.2 281.806 704.2C281.14 704.2 280.52 704.093 279.946 703.88C279.386 703.667 278.893 703.36 278.466 702.96C278.053 702.547 277.726 702.04 277.486 701.44C277.26 700.84 277.146 700.153 277.146 699.38C277.146 698.58 277.266 697.873 277.506 697.26C277.76 696.647 278.1 696.127 278.526 695.7C278.953 695.273 279.453 694.953 280.026 694.74C280.6 694.513 281.22 694.4 281.886 694.4C282.553 694.4 283.166 694.507 283.726 694.72C284.3 694.92 284.793 695.22 285.206 695.62C285.633 696.02 285.96 696.52 286.186 697.12C286.426 697.72 286.546 698.407 286.546 699.18ZM284.406 699.28C284.406 698.68 284.333 698.173 284.186 697.76C284.04 697.333 283.846 696.987 283.606 696.72C283.366 696.453 283.093 696.26 282.786 696.14C282.48 696.02 282.16 695.96 281.826 695.96C281.506 695.96 281.193 696.013 280.886 696.12C280.58 696.227 280.306 696.407 280.066 696.66C279.826 696.913 279.633 697.253 279.486 697.68C279.353 698.107 279.286 698.64 279.286 699.28C279.286 699.867 279.36 700.373 279.506 700.8C279.653 701.227 279.846 701.58 280.086 701.86C280.326 702.127 280.6 702.327 280.906 702.46C281.226 702.58 281.546 702.64 281.866 702.64C282.186 702.64 282.5 702.587 282.806 702.48C283.113 702.373 283.386 702.193 283.626 701.94C283.866 701.673 284.053 701.327 284.186 700.9C284.333 700.46 284.406 699.92 284.406 699.28ZM290.665 704H288.605V694.56H290.225L290.505 695.82C290.971 695.367 291.458 695.02 291.965 694.78C292.485 694.527 293.071 694.4 293.725 694.4C294.725 694.4 295.498 694.673 296.045 695.22C296.591 695.767 296.865 696.547 296.865 697.56V704H294.805V697.82C294.805 697.273 294.665 696.84 294.385 696.52C294.105 696.2 293.685 696.04 293.125 696.04C292.698 696.04 292.271 696.147 291.845 696.36C291.431 696.56 291.038 696.853 290.665 697.24V704ZM299.108 691.72C298.734 691.653 298.448 691.493 298.248 691.24C298.048 690.973 297.948 690.667 297.948 690.32C297.948 689.96 298.068 689.647 298.308 689.38C298.548 689.1 298.888 688.96 299.328 688.96C299.501 688.96 299.674 688.993 299.848 689.06C300.034 689.127 300.201 689.24 300.348 689.4C300.508 689.547 300.634 689.753 300.728 690.02C300.834 690.287 300.888 690.62 300.888 691.02C300.888 691.42 300.821 691.8 300.688 692.16C300.568 692.52 300.401 692.86 300.188 693.18C299.974 693.487 299.721 693.767 299.428 694.02C299.148 694.273 298.848 694.487 298.528 694.66L297.888 693.78C298.261 693.58 298.588 693.313 298.868 692.98C299.161 692.647 299.354 692.247 299.448 691.78L299.108 691.72ZM307.926 696.08H305.246V701.18C305.246 701.647 305.352 701.96 305.566 702.12C305.792 702.28 306.092 702.36 306.466 702.36C306.732 702.36 307.012 702.333 307.306 702.28C307.612 702.213 307.879 702.14 308.106 702.06L308.426 703.58C308.159 703.687 307.812 703.787 307.386 703.88C306.972 703.96 306.532 704 306.066 704C305.052 704 304.319 703.793 303.866 703.38C303.426 702.953 303.206 702.327 303.206 701.5V696.08H301.766V694.56H303.206V691.58H305.246V694.56H307.926V696.08ZM316.74 704H314.68V689.78H316.74V695.64C317.167 695.293 317.633 695 318.14 694.76C318.66 694.52 319.233 694.4 319.86 694.4C320.393 694.4 320.86 694.48 321.26 694.64C321.66 694.8 321.987 695.02 322.24 695.3C322.507 695.58 322.7 695.913 322.82 696.3C322.953 696.687 323.02 697.107 323.02 697.56V704H320.96V698.02C320.96 697.313 320.813 696.807 320.52 696.5C320.227 696.193 319.8 696.04 319.24 696.04C318.827 696.04 318.4 696.147 317.96 696.36C317.533 696.56 317.127 696.84 316.74 697.2V704ZM325.756 695.4C326.369 695.067 326.956 694.82 327.516 694.66C328.089 694.487 328.723 694.4 329.416 694.4C329.949 694.4 330.436 694.46 330.876 694.58C331.329 694.7 331.716 694.893 332.036 695.16C332.356 695.427 332.603 695.787 332.776 696.24C332.963 696.68 333.056 697.22 333.056 697.86V704H331.396L331.176 702.98H331.116C330.743 703.407 330.309 703.72 329.816 703.92C329.323 704.107 328.776 704.2 328.176 704.2C327.229 704.2 326.463 703.947 325.876 703.44C325.303 702.933 325.016 702.26 325.016 701.42C325.016 700.9 325.123 700.453 325.336 700.08C325.549 699.693 325.849 699.373 326.236 699.12C326.623 698.867 327.083 698.68 327.616 698.56C328.149 698.427 328.736 698.36 329.376 698.36H330.976V697.64C330.976 697.04 330.816 696.627 330.496 696.4C330.176 696.16 329.736 696.04 329.176 696.04C328.829 696.04 328.436 696.1 327.996 696.22C327.569 696.327 327.076 696.533 326.516 696.84L325.756 695.4ZM330.996 699.72L329.736 699.74C328.789 699.767 328.123 699.933 327.736 700.24C327.349 700.547 327.156 700.907 327.156 701.32C327.156 701.587 327.196 701.807 327.276 701.98C327.369 702.153 327.489 702.293 327.636 702.4C327.783 702.507 327.949 702.587 328.136 702.64C328.336 702.68 328.536 702.7 328.736 702.7C329.149 702.7 329.556 702.6 329.956 702.4C330.369 702.187 330.716 701.887 330.996 701.5V699.72ZM341.281 694.56H343.461L340.001 704H337.841L334.381 694.56H336.601L338.481 700.44L338.901 702.4H338.981L339.401 700.46L341.281 694.56ZM352.957 699.64H346.337V699.72C346.337 700.68 346.617 701.407 347.177 701.9C347.737 702.393 348.477 702.64 349.397 702.64C349.903 702.64 350.357 702.6 350.757 702.52C351.17 702.427 351.583 702.287 351.997 702.1L352.397 703.6C352.01 703.773 351.55 703.913 351.017 704.02C350.483 704.14 349.897 704.2 349.257 704.2C348.577 704.2 347.93 704.107 347.317 703.92C346.703 703.733 346.163 703.44 345.697 703.04C345.243 702.64 344.883 702.133 344.617 701.52C344.35 700.907 344.217 700.173 344.217 699.32C344.217 698.587 344.323 697.92 344.537 697.32C344.763 696.707 345.077 696.187 345.477 695.76C345.89 695.32 346.383 694.987 346.957 694.76C347.543 694.52 348.19 694.4 348.897 694.4C349.51 694.4 350.063 694.5 350.557 694.7C351.063 694.9 351.49 695.187 351.837 695.56C352.197 695.92 352.47 696.367 352.657 696.9C352.857 697.42 352.957 698 352.957 698.64V699.64ZM350.837 698.2C350.837 697.88 350.797 697.58 350.717 697.3C350.637 697.02 350.517 696.78 350.357 696.58C350.197 696.367 349.983 696.2 349.717 696.08C349.463 695.947 349.157 695.88 348.797 695.88C348.13 695.88 347.583 696.093 347.157 696.52C346.743 696.947 346.49 697.52 346.397 698.24L350.837 698.2ZM359.584 695.4C360.197 695.067 360.784 694.82 361.344 694.66C361.917 694.487 362.551 694.4 363.244 694.4C363.777 694.4 364.264 694.46 364.704 694.58C365.157 694.7 365.544 694.893 365.864 695.16C366.184 695.427 366.431 695.787 366.604 696.24C366.791 696.68 366.884 697.22 366.884 697.86V704H365.224L365.004 702.98H364.944C364.571 703.407 364.137 703.72 363.644 703.92C363.151 704.107 362.604 704.2 362.004 704.2C361.057 704.2 360.291 703.947 359.704 703.44C359.131 702.933 358.844 702.26 358.844 701.42C358.844 700.9 358.951 700.453 359.164 700.08C359.377 699.693 359.677 699.373 360.064 699.12C360.451 698.867 360.911 698.68 361.444 698.56C361.977 698.427 362.564 698.36 363.204 698.36H364.804V697.64C364.804 697.04 364.644 696.627 364.324 696.4C364.004 696.16 363.564 696.04 363.004 696.04C362.657 696.04 362.264 696.1 361.824 696.22C361.397 696.327 360.904 696.533 360.344 696.84L359.584 695.4ZM364.824 699.72L363.564 699.74C362.617 699.767 361.951 699.933 361.564 700.24C361.177 700.547 360.984 700.907 360.984 701.32C360.984 701.587 361.024 701.807 361.104 701.98C361.197 702.153 361.317 702.293 361.464 702.4C361.611 702.507 361.777 702.587 361.964 702.64C362.164 702.68 362.364 702.7 362.564 702.7C362.977 702.7 363.384 702.6 363.784 702.4C364.197 702.187 364.544 701.887 364.824 701.5V699.72ZM371.426 704H369.366V694.56H370.986L371.266 695.82C371.733 695.367 372.22 695.02 372.726 694.78C373.246 694.527 373.833 694.4 374.486 694.4C375.486 694.4 376.26 694.673 376.806 695.22C377.353 695.767 377.626 696.547 377.626 697.56V704H375.566V697.82C375.566 697.273 375.426 696.84 375.146 696.52C374.866 696.2 374.446 696.04 373.886 696.04C373.46 696.04 373.033 696.147 372.606 696.36C372.193 696.56 371.8 696.853 371.426 697.24V704ZM384.877 695.4C385.49 695.067 386.077 694.82 386.637 694.66C387.21 694.487 387.844 694.4 388.537 694.4C389.07 694.4 389.557 694.46 389.997 694.58C390.45 694.7 390.837 694.893 391.157 695.16C391.477 695.427 391.724 695.787 391.897 696.24C392.084 696.68 392.177 697.22 392.177 697.86V704H390.517L390.297 702.98H390.237C389.864 703.407 389.43 703.72 388.937 703.92C388.444 704.107 387.897 704.2 387.297 704.2C386.35 704.2 385.584 703.947 384.997 703.44C384.424 702.933 384.137 702.26 384.137 701.42C384.137 700.9 384.244 700.453 384.457 700.08C384.67 699.693 384.97 699.373 385.357 699.12C385.744 698.867 386.204 698.68 386.737 698.56C387.27 698.427 387.857 698.36 388.497 698.36H390.097V697.64C390.097 697.04 389.937 696.627 389.617 696.4C389.297 696.16 388.857 696.04 388.297 696.04C387.95 696.04 387.557 696.1 387.117 696.22C386.69 696.327 386.197 696.533 385.637 696.84L384.877 695.4ZM390.117 699.72L388.857 699.74C387.91 699.767 387.244 699.933 386.857 700.24C386.47 700.547 386.277 700.907 386.277 701.32C386.277 701.587 386.317 701.807 386.397 701.98C386.49 702.153 386.61 702.293 386.757 702.4C386.904 702.507 387.07 702.587 387.257 702.64C387.457 702.68 387.657 702.7 387.857 702.7C388.27 702.7 388.677 702.6 389.077 702.4C389.49 702.187 389.837 701.887 390.117 701.5V699.72ZM399.299 702.64C399.726 702.64 400.099 702.593 400.419 702.5C400.753 702.393 401.053 702.273 401.319 702.14L401.739 703.62C401.419 703.793 401.033 703.933 400.579 704.04C400.126 704.147 399.626 704.2 399.079 704.2C398.386 704.2 397.733 704.1 397.119 703.9C396.519 703.687 395.993 703.38 395.539 702.98C395.099 702.567 394.746 702.053 394.479 701.44C394.226 700.827 394.099 700.113 394.099 699.3C394.099 698.553 394.219 697.88 394.459 697.28C394.699 696.667 395.039 696.147 395.479 695.72C395.919 695.293 396.446 694.967 397.059 694.74C397.673 694.513 398.346 694.4 399.079 694.4C399.493 694.4 399.906 694.433 400.319 694.5C400.746 694.567 401.213 694.72 401.719 694.96L401.259 696.46C400.633 696.113 399.979 695.94 399.299 695.94C398.379 695.94 397.633 696.227 397.059 696.8C396.486 697.373 396.199 698.187 396.199 699.24C396.199 699.88 396.286 700.42 396.459 700.86C396.646 701.287 396.886 701.633 397.179 701.9C397.473 702.167 397.799 702.36 398.159 702.48C398.533 702.587 398.913 702.64 399.299 702.64ZM407.659 702.64C408.085 702.64 408.459 702.593 408.779 702.5C409.112 702.393 409.412 702.273 409.679 702.14L410.099 703.62C409.779 703.793 409.392 703.933 408.939 704.04C408.485 704.147 407.985 704.2 407.439 704.2C406.745 704.2 406.092 704.1 405.479 703.9C404.879 703.687 404.352 703.38 403.899 702.98C403.459 702.567 403.105 702.053 402.839 701.44C402.585 700.827 402.459 700.113 402.459 699.3C402.459 698.553 402.579 697.88 402.819 697.28C403.059 696.667 403.399 696.147 403.839 695.72C404.279 695.293 404.805 694.967 405.419 694.74C406.032 694.513 406.705 694.4 407.439 694.4C407.852 694.4 408.265 694.433 408.679 694.5C409.105 694.567 409.572 694.72 410.079 694.96L409.619 696.46C408.992 696.113 408.339 695.94 407.659 695.94C406.739 695.94 405.992 696.227 405.419 696.8C404.845 697.373 404.559 698.187 404.559 699.24C404.559 699.88 404.645 700.42 404.819 700.86C405.005 701.287 405.245 701.633 405.539 701.9C405.832 702.167 406.159 702.36 406.519 702.48C406.892 702.587 407.272 702.64 407.659 702.64ZM420.218 699.18C420.218 699.967 420.091 700.673 419.838 701.3C419.598 701.927 419.265 702.453 418.838 702.88C418.411 703.307 417.911 703.633 417.338 703.86C416.765 704.087 416.145 704.2 415.478 704.2C414.811 704.2 414.191 704.093 413.618 703.88C413.058 703.667 412.565 703.36 412.138 702.96C411.725 702.547 411.398 702.04 411.158 701.44C410.931 700.84 410.818 700.153 410.818 699.38C410.818 698.58 410.938 697.873 411.178 697.26C411.431 696.647 411.771 696.127 412.198 695.7C412.625 695.273 413.125 694.953 413.698 694.74C414.271 694.513 414.891 694.4 415.558 694.4C416.225 694.4 416.838 694.507 417.398 694.72C417.971 694.92 418.465 695.22 418.878 695.62C419.305 696.02 419.631 696.52 419.858 697.12C420.098 697.72 420.218 698.407 420.218 699.18ZM418.078 699.28C418.078 698.68 418.005 698.173 417.858 697.76C417.711 697.333 417.518 696.987 417.278 696.72C417.038 696.453 416.765 696.26 416.458 696.14C416.151 696.02 415.831 695.96 415.498 695.96C415.178 695.96 414.865 696.013 414.558 696.12C414.251 696.227 413.978 696.407 413.738 696.66C413.498 696.913 413.305 697.253 413.158 697.68C413.025 698.107 412.958 698.64 412.958 699.28C412.958 699.867 413.031 700.373 413.178 700.8C413.325 701.227 413.518 701.58 413.758 701.86C413.998 702.127 414.271 702.327 414.578 702.46C414.898 702.58 415.218 702.64 415.538 702.64C415.858 702.64 416.171 702.587 416.478 702.48C416.785 702.373 417.058 702.193 417.298 701.94C417.538 701.673 417.725 701.327 417.858 700.9C418.005 700.46 418.078 699.92 418.078 699.28ZM428.537 694.56H430.597V704H429.017L428.757 702.86H428.677C428.343 703.207 427.923 703.52 427.417 703.8C426.91 704.067 426.297 704.2 425.577 704.2C424.577 704.2 423.777 703.92 423.177 703.36C422.577 702.8 422.277 701.96 422.277 700.84V694.56H424.337V700.62C424.337 701.353 424.503 701.867 424.837 702.16C425.183 702.453 425.597 702.6 426.077 702.6C426.597 702.6 427.057 702.493 427.457 702.28C427.857 702.053 428.217 701.76 428.537 701.4V694.56ZM435.255 704H433.195V694.56H434.815L435.095 695.82C435.561 695.367 436.048 695.02 436.555 694.78C437.075 694.527 437.661 694.4 438.315 694.4C439.315 694.4 440.088 694.673 440.635 695.22C441.181 695.767 441.455 696.547 441.455 697.56V704H439.395V697.82C439.395 697.273 439.255 696.84 438.975 696.52C438.695 696.2 438.275 696.04 437.715 696.04C437.288 696.04 436.861 696.147 436.435 696.36C436.021 696.56 435.628 696.853 435.255 697.24V704ZM449.176 696.08H446.496V701.18C446.496 701.647 446.602 701.96 446.816 702.12C447.042 702.28 447.342 702.36 447.716 702.36C447.982 702.36 448.262 702.333 448.556 702.28C448.862 702.213 449.129 702.14 449.356 702.06L449.676 703.58C449.409 703.687 449.062 703.787 448.636 703.88C448.222 703.96 447.782 704 447.316 704C446.302 704 445.569 703.793 445.116 703.38C444.676 702.953 444.456 702.327 444.456 701.5V696.08H443.016V694.56H444.456V691.58H446.496V694.56H449.176V696.08ZM454.118 689.7C454.731 689.7 455.278 689.787 455.758 689.96C456.238 690.133 456.645 690.373 456.978 690.68C457.311 690.973 457.565 691.327 457.738 691.74C457.911 692.153 457.998 692.6 457.998 693.08C457.998 693.427 457.945 693.76 457.838 694.08C457.731 694.387 457.585 694.687 457.398 694.98C457.211 695.26 456.998 695.533 456.758 695.8C456.518 696.067 456.271 696.327 456.018 696.58C455.458 697.087 455.031 697.513 454.738 697.86C454.458 698.193 454.318 698.58 454.318 699.02C454.318 699.193 454.325 699.347 454.338 699.48C454.365 699.6 454.411 699.753 454.478 699.94L452.758 700.22C452.691 700.033 452.631 699.833 452.578 699.62C452.538 699.393 452.518 699.167 452.518 698.94C452.518 698.367 452.658 697.86 452.938 697.42C453.218 696.967 453.631 696.467 454.178 695.92C454.418 695.68 454.645 695.453 454.858 695.24C455.071 695.013 455.251 694.793 455.398 694.58C455.558 694.353 455.678 694.127 455.758 693.9C455.851 693.673 455.898 693.42 455.898 693.14C455.898 692.7 455.745 692.307 455.438 691.96C455.145 691.6 454.645 691.42 453.938 691.42C453.618 691.42 453.298 691.467 452.978 691.56C452.658 691.653 452.338 691.813 452.018 692.04L451.178 690.56C451.565 690.28 452.025 690.067 452.558 689.92C453.091 689.773 453.611 689.7 454.118 689.7ZM452.478 702.84C452.478 702.453 452.611 702.133 452.878 701.88C453.145 701.627 453.451 701.5 453.798 701.5C454.158 701.5 454.465 701.627 454.718 701.88C454.971 702.133 455.098 702.453 455.098 702.84C455.098 703.253 454.971 703.587 454.718 703.84C454.465 704.08 454.158 704.2 453.798 704.2C453.451 704.2 453.145 704.08 452.878 703.84C452.611 703.587 452.478 703.253 452.478 702.84ZM464.739 691.4H469.519C470.226 691.4 470.846 691.507 471.379 691.72C471.926 691.92 472.379 692.2 472.739 692.56C473.099 692.907 473.366 693.32 473.539 693.8C473.726 694.267 473.819 694.773 473.819 695.32C473.819 695.827 473.739 696.28 473.579 696.68C473.433 697.067 473.239 697.407 472.999 697.7C472.773 697.98 472.513 698.22 472.219 698.42C471.939 698.607 471.666 698.76 471.399 698.88L474.479 704H471.339L468.919 699.36H467.459V704H464.739V691.4ZM467.459 697.26H468.539C469.259 697.26 469.846 697.113 470.299 696.82C470.766 696.527 470.999 696.04 470.999 695.36C470.999 694.76 470.813 694.3 470.439 693.98C470.079 693.647 469.546 693.48 468.839 693.48H467.459V697.26ZM484.485 699.92H478.145V700C478.145 700.76 478.412 701.327 478.945 701.7C479.478 702.073 480.165 702.26 481.005 702.26C481.538 702.26 482.005 702.207 482.405 702.1C482.818 701.993 483.192 701.867 483.525 701.72L484.005 703.58C483.645 703.753 483.192 703.9 482.645 704.02C482.098 704.153 481.452 704.22 480.705 704.22C479.985 704.22 479.305 704.127 478.665 703.94C478.038 703.74 477.485 703.44 477.005 703.04C476.538 702.64 476.165 702.133 475.885 701.52C475.605 700.907 475.465 700.173 475.465 699.32C475.465 698.56 475.578 697.873 475.805 697.26C476.032 696.633 476.352 696.1 476.765 695.66C477.192 695.22 477.698 694.88 478.285 694.64C478.872 694.387 479.525 694.26 480.245 694.26C481.538 694.26 482.565 694.653 483.325 695.44C484.098 696.227 484.485 697.327 484.485 698.74V699.92ZM481.765 698.1C481.765 697.847 481.732 697.6 481.665 697.36C481.612 697.12 481.518 696.913 481.385 696.74C481.252 696.553 481.085 696.407 480.885 696.3C480.685 696.193 480.438 696.14 480.145 696.14C479.612 696.14 479.172 696.32 478.825 696.68C478.478 697.04 478.272 697.527 478.205 698.14L481.765 698.1ZM486.256 697.7C486.256 697.18 486.356 696.707 486.556 696.28C486.77 695.853 487.056 695.493 487.416 695.2C487.79 694.893 488.223 694.66 488.716 694.5C489.223 694.34 489.776 694.26 490.376 694.26C490.603 694.26 490.85 694.28 491.116 694.32C491.383 694.347 491.63 694.393 491.856 694.46H495.936V696.14H495.076L493.836 695.96C494.01 696.173 494.15 696.44 494.256 696.76C494.376 697.08 494.436 697.4 494.436 697.72C494.436 698.733 494.07 699.553 493.336 700.18C492.616 700.793 491.623 701.1 490.356 701.1C490.023 701.1 489.73 701.073 489.476 701.02C489.143 701.153 488.976 701.373 488.976 701.68C488.976 701.893 489.05 702.053 489.196 702.16C489.343 702.267 489.603 702.32 489.976 702.32H492.116C493.17 702.32 494.01 702.553 494.636 703.02C495.276 703.473 495.596 704.207 495.596 705.22C495.596 705.74 495.47 706.213 495.216 706.64C494.976 707.08 494.63 707.453 494.176 707.76C493.723 708.08 493.176 708.327 492.536 708.5C491.896 708.673 491.183 708.76 490.396 708.76C488.943 708.76 487.79 708.5 486.936 707.98C486.096 707.473 485.676 706.74 485.676 705.78C485.676 705.34 485.823 704.953 486.116 704.62C486.41 704.3 486.816 704.047 487.336 703.86C487.15 703.727 486.963 703.54 486.776 703.3C486.59 703.047 486.496 702.733 486.496 702.36C486.496 701.92 486.63 701.54 486.896 701.22C487.163 700.9 487.503 700.647 487.916 700.46C487.716 700.353 487.516 700.22 487.316 700.06C487.13 699.887 486.956 699.687 486.796 699.46C486.636 699.233 486.503 698.973 486.396 698.68C486.303 698.387 486.256 698.06 486.256 697.7ZM488.816 704.32C488.616 704.427 488.45 704.567 488.316 704.74C488.183 704.913 488.116 705.133 488.116 705.4C488.116 705.787 488.29 706.107 488.636 706.36C488.996 706.627 489.61 706.76 490.476 706.76C491.343 706.76 491.976 706.613 492.376 706.32C492.776 706.027 492.976 705.693 492.976 705.32C492.976 704.947 492.85 704.687 492.596 704.54C492.343 704.393 491.95 704.32 491.416 704.32H488.816ZM491.836 697.68C491.836 697.16 491.696 696.767 491.416 696.5C491.136 696.233 490.783 696.1 490.356 696.1C489.916 696.1 489.556 696.233 489.276 696.5C489.01 696.767 488.876 697.153 488.876 697.66C488.876 698.193 489.016 698.593 489.296 698.86C489.576 699.127 489.93 699.26 490.356 699.26C490.796 699.26 491.15 699.127 491.416 698.86C491.696 698.593 491.836 698.2 491.836 697.68ZM497.924 704V694.46H500.584V704H497.924ZM499.264 692.42C498.811 692.42 498.457 692.293 498.204 692.04C497.951 691.773 497.824 691.447 497.824 691.06C497.824 690.673 497.951 690.353 498.204 690.1C498.457 689.833 498.811 689.7 499.264 689.7C499.704 689.7 500.051 689.833 500.304 690.1C500.571 690.353 500.704 690.673 500.704 691.06C500.704 691.447 500.577 691.773 500.324 692.04C500.071 692.293 499.717 692.42 499.264 692.42ZM508.991 696.74C508.205 696.367 507.445 696.18 506.711 696.18C506.285 696.18 505.951 696.253 505.711 696.4C505.485 696.547 505.371 696.747 505.371 697C505.371 697.253 505.471 697.46 505.671 697.62C505.885 697.78 506.305 697.953 506.931 698.14L507.531 698.32C508.358 698.56 508.985 698.907 509.411 699.36C509.838 699.813 510.051 700.4 510.051 701.12C510.051 702.067 509.685 702.82 508.951 703.38C508.231 703.94 507.251 704.22 506.011 704.22C504.745 704.22 503.658 703.993 502.751 703.54L503.351 701.58C503.738 701.78 504.145 701.947 504.571 702.08C504.998 702.2 505.431 702.26 505.871 702.26C506.405 702.26 506.791 702.18 507.031 702.02C507.285 701.847 507.411 701.627 507.411 701.36C507.411 701.08 507.291 700.867 507.051 700.72C506.811 700.56 506.358 700.387 505.691 700.2L505.071 700.02C504.271 699.753 503.685 699.4 503.311 698.96C502.938 698.52 502.751 697.933 502.751 697.2C502.751 696.333 503.078 695.627 503.731 695.08C504.385 694.533 505.298 694.26 506.471 694.26C507.631 694.26 508.658 694.467 509.551 694.88L508.991 696.74ZM517.623 696.38H515.083V700.78C515.083 701.233 515.183 701.547 515.383 701.72C515.596 701.88 515.876 701.96 516.223 701.96C516.489 701.96 516.763 701.933 517.043 701.88C517.323 701.827 517.549 701.753 517.723 701.66L518.123 703.52C517.896 703.627 517.556 703.733 517.103 703.84C516.649 703.947 516.169 704 515.663 704C514.503 704 513.676 703.773 513.183 703.32C512.689 702.853 512.443 702.16 512.443 701.24V696.38H510.963V694.46H512.443V691.52H515.083V694.46H517.623V696.38ZM528.059 699.92H521.719V700C521.719 700.76 521.986 701.327 522.519 701.7C523.053 702.073 523.739 702.26 524.579 702.26C525.113 702.26 525.579 702.207 525.979 702.1C526.393 701.993 526.766 701.867 527.099 701.72L527.579 703.58C527.219 703.753 526.766 703.9 526.219 704.02C525.673 704.153 525.026 704.22 524.279 704.22C523.559 704.22 522.879 704.127 522.239 703.94C521.613 703.74 521.059 703.44 520.579 703.04C520.113 702.64 519.739 702.133 519.459 701.52C519.179 700.907 519.039 700.173 519.039 699.32C519.039 698.56 519.153 697.873 519.379 697.26C519.606 696.633 519.926 696.1 520.339 695.66C520.766 695.22 521.273 694.88 521.859 694.64C522.446 694.387 523.099 694.26 523.819 694.26C525.113 694.26 526.139 694.653 526.899 695.44C527.673 696.227 528.059 697.327 528.059 698.74V699.92ZM525.339 698.1C525.339 697.847 525.306 697.6 525.239 697.36C525.186 697.12 525.093 696.913 524.959 696.74C524.826 696.553 524.659 696.407 524.459 696.3C524.259 696.193 524.013 696.14 523.719 696.14C523.186 696.14 522.746 696.32 522.399 696.68C522.053 697.04 521.846 697.527 521.779 698.14L525.339 698.1ZM529.93 704V694.46H531.99L532.29 696.18C532.517 695.673 532.877 695.227 533.37 694.84C533.864 694.453 534.484 694.26 535.23 694.26C535.537 694.26 535.81 694.293 536.05 694.36C536.29 694.427 536.49 694.507 536.65 694.6L536.21 696.7C536.064 696.62 535.877 696.553 535.65 696.5C535.424 696.433 535.157 696.4 534.85 696.4C534.197 696.4 533.65 696.62 533.21 697.06C532.784 697.487 532.57 698.193 532.57 699.18V704H529.93Z" fill="black"/>
<line x1="169" y1="388.5" x2="634" y2="388.5" stroke="black"/>
<line x1="169" y1="526.5" x2="634" y2="526.5" stroke="black"/>
<path d="M614 489.667V487.333C614 482.793 617.337 479 622 479C626.663 479 630 482.793 630 487.333V489.667H630.667C631.551 489.667 632.399 490.018 633.024 490.643C633.649 491.268 634 492.116 634 493V503.667C634 504.551 633.649 505.399 633.024 506.024C632.399 506.649 631.551 507 630.667 507H613.333C612.449 507 611.601 506.649 610.976 506.024C610.351 505.399 610 504.551 610 503.667V493C610 492.116 610.351 491.268 610.976 490.643C611.601 490.018 612.449 489.667 613.333 489.667H614ZM612 493V503.667C612 504.02 612.14 504.359 612.391 504.609C612.641 504.86 612.98 505 613.333 505H630.667C631.02 505 631.359 504.86 631.609 504.609C631.86 504.359 632 504.02 632 503.667V493C632 492.646 631.86 492.307 631.609 492.057C631.359 491.807 631.02 491.667 630.667 491.667H613.333C612.98 491.667 612.641 491.807 612.391 492.057C612.14 492.307 612 492.646 612 493ZM616 487.333V489.667H628V487.333C628 483.773 625.437 481 622 481C618.563 481 616 483.773 616 487.333Z" fill="black"/>
<g clip-path="url(#clip0_7_201)">
<path d="M631.281 368.253H607.719C606.214 368.253 605 367.053 605 365.565V349.435C605 347.948 606.214 346.747 607.719 346.747H631.281C632.786 346.747 634 347.948 634 349.435V365.565C634 367.053 632.786 368.253 631.281 368.253ZM607.719 348.539C607.211 348.539 606.812 348.933 606.812 349.435V365.565C606.812 366.067 607.211 366.461 607.719 366.461H631.281C631.789 366.461 632.188 366.067 632.188 365.565V349.435C632.188 348.933 631.789 348.539 631.281 348.539H607.719Z" fill="black"/>
<path d="M619.5 361.013C618.231 361.013 617.071 360.511 616.201 359.597L606.686 349.596C606.341 349.238 606.359 348.664 606.722 348.324C607.084 347.983 607.664 348.001 608.009 348.36L617.524 358.36C618.557 359.454 620.442 359.454 621.476 358.36L630.991 348.378C631.336 348.019 631.916 348.001 632.278 348.342C632.641 348.682 632.659 349.256 632.314 349.614L622.799 359.615C621.929 360.529 620.769 361.031 619.5 361.031V361.013Z" fill="black"/>
</g>
<defs>
<filter id="filter0_d_7_201" x="0.5" y="0.5" width="799" height="904" filterUnits="userSpaceOnUse" color-interpolation-filters="sRGB">
<feFlood flood-opacity="0" result="BackgroundImageFix"/>
<feColorMatrix in="SourceAlpha" type="matrix" values="0 0 0 0 0 0 0 0 0 0 0 0 0 0 0 0 0 0 127 0" result="hardAlpha"/>
<feMorphology radius="9" operator="dilate" in="SourceAlpha" result="effect1_dropShadow_7_201"/>
<feOffset dy="4"/>
<feGaussianBlur stdDeviation="19.5"/>
<feComposite in2="hardAlpha" operator="out"/>
<feColorMatrix type="matrix" values="0 0 0 0 1 0 0 0 0 1 0 0 0 0 1 0 0 0 0.39 0"/>
<feBlend mode="normal" in2="BackgroundImageFix" result="effect1_dropShadow_7_201"/>
<feBlend mode="normal" in="SourceGraphic" in2="effect1_dropShadow_7_201" result="shape"/>
</filter>
<clipPath id="clip0_7_201">
<rect width="29" height="23" fill="white" transform="translate(605 346)"/>
</clipPath>
</defs>
</svg>
